{"glyphs":{"0":{"ha":694,"x_min":54,"x_max":639,"o":"m 54 444 q 117 110 54 225 q 220 1 157 33 q 346 -31 283 -31 q 588 131 513 -31 q 639 444 639 242 q 583 769 639 651 q 506 868 554 831 q 421 915 458 906 q 347 925 383 925 q 106 760 178 925 q 54 444 54 649 m 169 461 q 181 717 169 642 q 212 814 190 775 q 261 868 233 853 q 308 889 289 883 q 346 894 328 894 q 443 858 394 894 q 510 732 492 822 q 524 461 524 654 q 508 174 524 263 q 448 42 494 83 q 346 0 401 0 q 248 39 294 0 q 185 168 201 78 q 169 461 169 251 "},"1":{"ha":694,"x_min":124,"x_max":582,"o":"m 124 793 q 306 829 233 793 l 306 110 q 285 56 306 68 q 176 43 264 43 l 132 43 l 132 0 q 357 4 181 4 q 582 0 533 4 l 582 43 l 538 43 q 428 56 449 43 q 408 110 408 68 l 408 889 q 404 919 408 914 q 376 925 400 925 q 124 836 290 836 l 124 793 "},"2":{"ha":694,"x_min":69,"x_max":624,"o":"m 69 0 l 585 0 l 624 242 l 589 242 q 558 118 572 138 q 426 107 549 107 l 176 107 l 324 250 q 440 354 404 321 q 521 434 476 388 q 582 510 565 481 q 611 576 599 539 q 624 656 624 614 q 540 849 624 774 q 329 925 457 925 q 143 848 217 925 q 69 674 69 771 q 89 619 69 639 q 121 598 108 600 q 143 596 133 596 q 191 614 167 596 q 215 669 215 632 q 196 720 215 699 q 142 742 176 742 q 124 740 128 742 q 199 844 147 807 q 311 882 250 882 q 449 815 400 882 q 497 656 497 749 q 351 349 497 513 l 85 51 q 72 33 74 40 q 69 0 69 25 "},"3":{"ha":694,"x_min":58,"x_max":635,"o":"m 58 188 q 141 32 58 94 q 339 -31 224 -31 q 549 49 464 -31 q 635 238 635 129 q 572 397 635 325 q 403 489 508 468 q 543 584 489 517 q 597 733 597 651 q 521 871 597 817 q 342 925 444 925 q 167 870 238 925 q 96 736 96 815 q 116 683 96 703 q 167 664 136 664 q 218 684 199 664 q 238 735 238 704 q 151 804 238 804 q 234 870 181 850 q 336 890 288 890 q 429 855 389 890 q 469 735 469 819 q 431 576 469 642 q 307 504 388 507 q 253 500 274 500 q 232 483 232 497 q 238 470 232 472 q 265 468 244 468 l 326 468 q 450 406 408 468 q 492 238 492 344 q 443 60 492 111 q 335 8 394 8 q 217 33 278 8 q 122 114 156 58 q 187 130 160 108 q 214 190 214 151 q 191 247 214 226 q 136 268 168 268 q 82 249 106 268 q 58 188 58 229 "},"4":{"ha":694,"x_min":39,"x_max":654,"o":"m 39 229 l 408 229 l 408 108 q 392 56 408 68 q 303 43 375 43 l 274 43 l 274 0 q 461 4 331 4 q 650 0 593 4 l 650 43 l 621 43 q 532 56 549 43 q 515 108 515 68 l 515 229 l 654 229 l 654 272 l 515 272 l 515 904 q 512 934 515 928 q 493 940 508 940 q 465 924 476 940 l 39 272 l 39 229 m 78 272 l 417 790 l 417 272 l 78 272 "},"5":{"ha":694,"x_min":69,"x_max":624,"o":"m 69 224 q 140 49 69 128 q 321 -31 210 -31 q 533 59 443 -31 q 624 279 624 149 q 547 494 624 404 q 360 583 471 583 q 183 513 256 583 l 183 783 q 301 765 243 765 q 394 778 350 765 q 469 811 439 792 q 524 851 500 831 q 558 888 547 872 q 569 910 569 904 q 556 925 569 925 q 544 921 551 925 q 356 881 456 881 q 171 919 258 881 q 154 924 160 924 q 140 890 140 924 l 140 479 q 143 451 140 458 q 160 443 146 443 q 178 456 169 443 q 357 553 244 553 q 475 464 436 553 q 500 289 500 406 q 467 99 500 157 q 318 8 411 8 q 188 54 244 8 q 114 164 132 100 q 138 161 122 161 q 188 181 169 161 q 207 229 207 201 q 188 277 207 257 q 138 297 169 297 q 92 281 114 297 q 69 224 69 265 "},"6":{"ha":694,"x_min":58,"x_max":635,"o":"m 58 439 q 85 210 58 307 q 156 64 111 114 q 248 -8 200 14 q 349 -31 296 -31 q 551 59 467 -31 q 635 283 635 149 q 554 504 635 415 q 357 593 474 593 q 183 456 240 593 l 183 489 q 202 665 183 589 q 248 783 221 742 q 310 849 275 824 q 373 883 346 875 q 426 890 400 890 q 549 835 513 890 q 472 772 472 835 q 492 725 472 742 q 536 708 511 708 q 579 724 558 708 q 600 775 600 739 q 553 883 600 840 q 424 925 507 925 q 169 791 281 925 q 58 439 58 657 m 186 314 q 201 427 186 374 q 257 521 217 481 q 356 561 297 561 q 485 475 442 561 q 510 285 510 424 q 486 99 510 149 q 349 8 442 8 q 292 21 318 8 q 249 53 265 33 q 224 87 233 72 q 211 113 215 101 q 186 314 186 178 "},"7":{"ha":694,"x_min":78,"x_max":674,"o":"m 78 653 l 113 653 q 147 779 133 767 q 283 788 157 788 l 571 788 q 501 689 568 783 q 415 568 433 594 q 244 46 244 311 q 308 -31 244 -31 q 372 46 372 -31 l 372 117 q 388 344 372 242 q 474 582 414 499 l 661 846 q 674 894 674 863 l 336 894 q 216 901 256 894 q 169 915 176 907 q 158 939 163 922 l 124 939 l 78 653 "},"8":{"ha":694,"x_min":58,"x_max":635,"o":"m 58 210 q 144 37 58 104 q 346 -31 231 -31 q 549 46 464 -31 q 635 233 635 122 q 567 404 635 329 q 429 503 540 433 q 597 718 597 589 q 522 867 597 810 q 347 925 447 925 q 169 858 243 925 q 96 693 96 790 q 157 540 96 608 q 258 465 172 524 q 58 210 58 365 m 128 210 q 290 444 128 354 l 461 336 q 495 312 483 321 q 526 283 507 303 q 556 238 546 263 q 565 183 565 213 q 500 58 565 108 q 347 8 435 8 q 192 66 257 8 q 128 210 128 124 m 157 747 q 213 850 157 810 q 346 890 269 890 q 480 841 424 890 q 536 718 536 792 q 399 524 536 604 l 226 635 q 157 747 157 681 "},"9":{"ha":694,"x_min":58,"x_max":635,"o":"m 58 613 q 139 392 58 482 q 336 303 219 303 q 510 442 454 303 l 510 397 q 487 200 510 282 q 426 79 464 118 q 354 24 389 40 q 285 8 319 8 q 149 58 189 8 q 205 78 189 58 q 221 122 221 97 q 201 169 221 153 q 157 186 182 186 q 113 171 133 186 q 93 119 93 156 q 145 10 93 50 q 286 -31 197 -31 q 531 106 426 -31 q 635 457 635 242 q 608 687 635 590 q 538 833 582 783 q 449 903 494 882 q 351 925 403 925 q 147 838 231 925 q 80 737 101 788 q 58 613 58 686 m 183 611 q 213 803 183 751 q 351 890 260 890 q 485 781 443 890 q 507 585 507 721 q 465 410 507 486 q 338 335 422 335 q 208 422 251 335 q 183 611 183 474 "},"\u0000":{"ha":1056,"x_min":14,"x_max":1042,"o":"m 14 14 l 1042 14 l 1042 1063 l 14 1063 l 14 14 m 97 156 l 97 921 l 481 539 l 97 156 m 146 97 l 528 481 l 910 97 l 146 97 m 146 979 l 910 979 l 528 596 l 146 979 m 575 539 l 958 921 l 958 156 l 575 539 "}," ":{"ha":463,"x_min":0,"x_max":0,"o":""},"!":{"ha":386,"x_min":118,"x_max":265,"o":"m 118 74 q 139 23 118 44 q 192 1 160 1 q 242 22 219 1 q 264 74 264 43 q 242 126 264 106 q 192 147 221 147 q 140 126 163 147 q 118 74 118 106 m 118 922 q 119 913 118 919 q 119 903 119 906 l 172 299 q 190 261 175 261 q 211 293 208 261 l 264 907 q 265 915 264 910 q 265 922 265 919 q 243 975 265 956 q 192 994 221 994 q 140 975 163 994 q 118 922 118 956 "},"\"":{"ha":694,"x_min":165,"x_max":526,"o":"m 165 922 q 175 828 165 915 q 197 633 185 742 q 214 482 210 525 l 246 482 q 258 594 246 486 q 283 809 271 703 q 294 922 294 915 q 274 972 294 957 q 229 986 253 986 q 186 972 207 986 q 165 922 165 957 m 399 921 q 422 706 399 908 q 447 482 444 503 l 478 482 q 494 635 482 526 q 517 829 507 743 q 526 922 526 915 q 506 972 526 957 q 463 986 485 986 q 417 969 436 986 q 399 921 399 953 "},"#":{"ha":1157,"x_min":79,"x_max":1076,"o":"m 79 213 q 114 196 79 196 l 354 196 l 243 -208 q 233 -250 233 -247 q 247 -267 233 -267 q 255 -264 251 -267 q 262 -254 258 -261 q 267 -242 265 -247 q 271 -228 268 -237 q 274 -215 274 -218 l 386 196 l 685 196 l 574 -208 q 565 -250 565 -242 q 578 -267 565 -267 q 585 -264 582 -267 q 592 -254 589 -261 q 597 -242 596 -247 q 601 -228 599 -237 q 604 -215 604 -218 l 718 196 l 1043 196 q 1076 213 1076 196 q 1043 228 1076 228 l 728 228 l 792 467 l 1040 467 q 1076 482 1075 467 q 1042 499 1076 499 l 801 499 l 913 903 q 922 944 922 942 q 908 961 922 961 q 900 958 904 961 q 893 948 896 954 q 889 937 890 942 q 885 922 888 932 q 882 910 883 913 l 769 499 l 471 499 l 582 903 q 590 944 590 936 q 578 961 590 961 q 569 958 574 961 q 563 948 565 956 q 558 937 560 940 q 553 922 556 933 q 550 910 550 911 l 438 499 l 121 499 q 79 482 79 499 q 111 467 79 467 l 428 467 l 363 228 l 115 228 q 79 213 79 228 m 396 228 l 461 467 l 760 467 l 694 228 l 396 228 "},"$":{"ha":694,"x_min":76,"x_max":617,"o":"m 76 246 q 86 173 76 210 q 120 94 96 136 q 197 22 144 51 q 325 -14 250 -8 l 325 -76 l 368 -76 l 368 -14 q 547 78 476 -4 q 617 271 617 161 q 583 410 617 344 q 561 447 574 429 q 535 477 549 464 q 508 501 521 490 q 480 520 496 513 q 453 533 464 528 q 427 544 443 539 q 404 551 411 549 q 383 556 397 553 q 368 560 369 560 l 368 936 q 574 790 532 921 q 551 793 560 793 q 506 774 524 793 q 489 729 489 756 q 508 684 489 701 q 553 667 526 667 q 596 682 576 667 q 615 736 615 697 q 610 790 615 763 q 588 850 604 817 q 546 910 572 883 q 474 956 519 936 q 368 979 428 975 l 368 1042 l 325 1042 l 325 979 q 145 891 214 967 q 76 713 76 815 q 117 572 76 636 q 144 536 129 553 q 172 508 158 519 q 203 487 186 497 q 233 471 221 476 q 262 460 244 465 q 287 452 279 454 q 309 447 294 450 q 325 443 324 443 l 325 28 q 118 193 157 43 q 142 190 135 190 q 187 209 169 190 q 204 254 204 228 q 185 299 204 282 q 140 317 165 317 q 97 300 117 317 q 76 246 76 283 m 149 754 q 199 875 149 824 q 325 935 249 926 l 325 571 q 300 576 324 571 q 265 588 276 582 q 184 651 219 607 q 149 754 149 694 m 368 29 l 368 432 q 426 414 418 418 q 511 342 478 392 q 544 229 544 292 q 497 99 544 157 q 368 29 450 40 "},"%":{"ha":1157,"x_min":78,"x_max":1078,"o":"m 78 763 q 139 561 78 640 q 282 482 200 482 q 410 563 358 482 q 463 761 463 644 q 433 918 463 846 q 643 860 536 860 q 828 908 756 860 l 829 907 l 206 -22 q 193 -50 193 -40 q 201 -69 193 -61 q 221 -78 210 -78 q 249 -57 233 -78 l 951 989 q 963 1014 963 1006 q 954 1033 963 1025 q 935 1042 946 1042 q 906 1022 922 1042 q 642 890 808 890 q 382 997 494 890 q 282 1042 332 1042 q 139 962 200 1042 q 78 763 78 882 m 174 876 q 197 950 183 925 q 229 990 211 975 q 259 1008 247 1004 q 283 1011 271 1011 q 384 940 340 1011 q 428 763 428 868 q 384 583 428 654 q 283 513 340 513 q 260 516 272 513 q 230 534 249 519 q 197 574 211 549 q 174 647 183 599 q 164 761 164 696 q 169 851 164 826 q 174 876 174 876 m 693 203 q 754 1 693 81 q 897 -78 815 -78 q 1026 3 974 -78 q 1078 201 1078 85 q 1025 401 1078 319 q 897 482 972 482 q 754 402 815 482 q 693 203 693 322 m 789 316 q 813 390 799 365 q 844 430 826 415 q 874 448 863 444 q 899 451 886 451 q 999 380 956 451 q 1043 203 1043 308 q 999 24 1043 94 q 899 -47 956 -47 q 876 -44 888 -47 q 845 -26 864 -40 q 813 14 826 -11 q 789 88 799 39 q 779 201 779 136 q 784 291 779 267 q 789 316 789 316 "},"&":{"ha":1079,"x_min":58,"x_max":1010,"o":"m 58 178 q 132 29 58 89 q 310 -31 206 -31 q 561 75 443 -31 q 806 -31 682 -31 q 943 25 886 -31 q 1001 168 1000 81 l 967 168 q 915 53 964 93 q 811 13 867 13 q 619 136 724 13 q 803 414 685 211 q 842 476 828 457 q 879 517 856 494 q 933 547 903 539 q 1010 556 964 556 l 1010 599 q 875 594 933 594 q 706 599 761 594 l 706 556 q 778 538 753 556 q 804 494 804 521 q 796 467 804 492 q 597 164 686 274 q 482 321 558 208 q 367 535 406 433 q 447 627 418 592 q 506 717 475 663 q 536 815 536 772 q 531 871 536 843 q 513 928 525 899 q 476 976 501 957 q 415 994 450 994 q 285 934 343 994 q 226 771 226 874 q 283 489 226 633 l 157 354 q 80 263 101 297 q 58 178 58 229 m 174 222 q 201 346 174 299 q 296 457 229 393 q 407 264 343 356 q 535 101 481 156 q 321 13 435 13 q 233 51 268 13 q 185 133 197 89 q 174 222 174 178 m 314 803 q 345 924 314 883 q 418 964 376 964 q 459 948 442 964 q 484 913 476 932 q 496 869 492 894 q 501 834 500 844 q 501 817 501 824 q 356 568 501 726 q 314 803 314 692 "},"'":{"ha":386,"x_min":128,"x_max":256,"o":"m 128 922 q 129 901 128 908 l 176 482 l 208 482 l 254 901 q 256 922 256 908 q 238 969 256 953 q 192 986 219 986 q 149 972 169 986 q 128 922 128 957 "},"(":{"ha":539,"x_min":138,"x_max":460,"o":"m 138 347 q 229 -86 138 103 q 318 -228 267 -164 q 403 -319 369 -292 q 446 -347 436 -347 q 460 -333 460 -347 q 436 -303 460 -326 q 218 347 218 -83 q 442 1004 218 776 q 460 1028 460 1021 q 446 1042 460 1042 q 401 1013 436 1042 q 315 917 367 983 q 225 771 263 850 q 138 347 138 582 "},")":{"ha":539,"x_min":79,"x_max":401,"o":"m 79 -333 q 93 -347 79 -347 q 138 -318 103 -347 q 224 -222 172 -289 q 314 -76 276 -156 q 401 347 401 113 q 310 781 401 592 q 221 922 272 858 q 136 1014 169 986 q 93 1042 103 1042 q 79 1028 79 1042 q 106 996 79 1021 q 321 347 321 778 q 97 -310 321 -82 q 79 -333 79 -326 "},"*":{"ha":694,"x_min":90,"x_max":603,"o":"m 90 613 q 92 601 90 607 q 104 584 93 594 q 136 574 115 574 l 331 714 l 310 478 q 321 453 310 463 q 346 443 332 443 q 373 453 363 443 q 383 478 383 464 q 363 714 383 485 q 437 660 392 693 q 511 605 482 626 q 543 582 540 583 q 565 574 557 574 q 592 586 581 574 q 603 613 603 599 q 574 650 603 636 l 378 742 l 571 833 q 603 872 603 849 q 592 899 603 886 q 565 911 581 911 q 517 885 553 911 l 363 771 l 383 1007 q 372 1032 383 1022 q 347 1042 361 1042 q 320 1031 331 1042 q 310 1007 310 1021 q 331 771 310 1000 l 158 896 q 128 911 139 911 q 101 899 113 911 q 90 872 90 886 q 119 835 90 849 l 315 743 l 122 651 q 90 613 90 636 "},"+":{"ha":1081,"x_min":79,"x_max":999,"o":"m 111 331 q 123 331 115 331 q 132 332 131 332 l 524 332 l 524 -61 q 523 -69 524 -62 q 522 -79 522 -75 q 539 -112 522 -112 q 556 -81 556 -112 l 556 332 l 947 332 q 955 331 949 332 q 965 331 961 331 q 999 347 999 331 q 967 364 999 364 q 956 363 963 364 q 947 363 949 363 l 556 363 l 556 774 q 539 807 556 807 q 522 774 522 807 q 523 763 522 769 q 524 756 524 757 l 524 363 l 132 363 q 124 363 131 363 q 113 364 117 364 q 79 347 79 364 q 111 331 79 331 "},",":{"ha":385,"x_min":119,"x_max":282,"o":"m 139 22 q 193 0 158 0 q 246 19 222 0 l 249 22 q 251 1 251 22 q 151 -237 251 -131 q 142 -253 142 -247 q 156 -268 142 -268 q 195 -236 167 -268 q 253 -137 224 -204 q 282 1 282 -71 q 258 108 282 68 q 193 147 235 147 q 139 125 158 147 q 119 74 119 103 q 129 33 119 44 q 139 22 139 22 "},"-":{"ha":463,"x_min":14,"x_max":383,"o":"m 14 258 l 383 258 l 383 340 l 14 340 l 14 258 "},".":{"ha":386,"x_min":118,"x_max":264,"o":"m 139 22 q 192 0 160 0 q 242 21 219 0 q 264 74 264 42 q 243 126 264 106 q 192 146 222 146 q 139 124 160 146 q 118 74 118 103 q 128 33 118 44 q 139 22 139 22 "},"/":{"ha":694,"x_min":79,"x_max":614,"o":"m 79 -328 q 92 -344 79 -344 q 105 -337 100 -344 q 118 -307 110 -331 l 610 1004 q 614 1022 614 1021 q 600 1039 614 1039 q 590 1035 594 1039 q 584 1026 586 1031 q 578 1013 582 1021 q 575 1004 575 1006 l 85 -306 q 79 -328 79 -321 "},":":{"ha":385,"x_min":119,"x_max":267,"o":"m 141 473 q 193 451 163 451 q 245 473 224 451 q 267 525 267 494 q 245 577 267 556 q 193 599 224 599 q 141 577 163 599 q 119 525 119 556 q 130 484 119 494 q 141 473 141 473 m 141 22 q 193 0 163 0 q 245 22 224 0 q 267 74 267 43 q 245 126 267 104 q 193 147 224 147 q 141 126 163 147 q 119 74 119 104 q 130 32 119 43 q 141 22 141 22 "},";":{"ha":386,"x_min":118,"x_max":282,"o":"m 139 474 q 192 451 160 451 q 242 472 219 451 q 264 525 264 493 q 243 577 264 557 q 192 597 222 597 q 139 576 160 597 q 118 525 118 554 q 128 485 118 496 q 139 474 139 474 m 139 22 q 193 0 158 0 q 246 19 222 0 l 249 22 q 251 1 251 22 q 151 -237 251 -131 q 142 -253 142 -247 q 156 -268 142 -268 q 195 -236 167 -268 q 253 -137 224 -204 q 282 1 282 -71 q 258 108 282 68 q 193 147 235 147 q 139 125 158 147 q 119 74 119 103 q 129 33 119 44 q 139 22 139 22 "},"<":{"ha":1081,"x_min":118,"x_max":960,"o":"m 118 347 q 140 325 119 333 l 911 -26 q 946 -40 939 -40 q 960 -26 960 -40 q 928 0 960 -14 l 250 311 q 169 347 208 331 q 250 383 208 364 l 928 694 q 960 721 960 710 q 946 735 960 735 q 911 721 939 735 l 140 369 q 118 347 118 358 "},"=":{"ha":1081,"x_min":79,"x_max":999,"o":"m 79 211 q 117 196 79 196 l 961 196 q 999 213 999 196 q 958 228 999 228 l 107 228 q 79 211 81 228 m 79 482 q 107 467 79 467 l 964 467 q 999 482 999 467 q 957 499 999 499 l 108 499 q 79 482 79 499 "},">":{"ha":1081,"x_min":118,"x_max":961,"o":"m 118 -26 q 133 -40 118 -40 q 168 -26 140 -40 l 921 317 q 961 347 960 335 q 960 354 961 351 q 956 359 958 357 q 950 363 953 361 q 944 367 947 365 q 939 369 940 369 l 168 721 q 133 735 140 735 q 118 721 118 735 q 120 714 118 717 q 126 708 122 711 q 133 703 129 706 q 142 699 136 701 q 151 694 149 696 l 829 383 q 910 347 882 358 q 829 311 882 336 l 151 0 q 124 -14 131 -10 q 118 -26 118 -18 "},"?":{"ha":656,"x_min":78,"x_max":576,"o":"m 78 794 q 97 744 78 761 q 142 728 115 728 q 188 746 171 728 q 206 792 206 764 q 128 854 206 854 q 310 949 183 949 q 383 938 353 949 q 428 913 414 926 q 451 875 443 899 q 460 838 460 851 q 461 800 461 824 q 453 734 461 761 q 438 695 446 707 q 414 668 429 683 q 321 514 350 599 q 292 356 292 429 l 292 293 q 294 266 292 272 q 308 260 297 260 q 321 265 317 260 q 326 276 325 269 q 326 297 326 282 l 326 346 q 510 656 326 519 q 576 792 576 706 q 515 922 576 865 q 314 979 454 979 q 142 923 207 979 q 78 794 78 867 m 256 22 q 308 0 278 0 q 360 22 339 0 q 382 74 382 43 q 360 126 382 104 q 308 147 339 147 q 256 126 278 147 q 235 74 235 104 q 245 32 235 43 q 256 22 256 22 "},"@":{"ha":1079,"x_min":78,"x_max":1001,"o":"m 78 482 q 211 133 78 281 q 547 -15 344 -15 q 797 15 667 -15 q 922 53 844 26 q 1000 94 1000 81 q 996 104 1000 101 q 987 108 992 107 q 968 108 982 108 l 956 108 q 924 104 931 108 q 546 15 735 15 q 236 153 360 15 q 113 482 113 292 q 239 813 113 678 q 539 949 365 949 q 686 919 613 949 q 824 831 760 889 q 927 677 888 774 q 967 461 967 581 q 963 367 967 406 q 950 288 960 328 q 919 228 940 249 q 865 208 899 208 q 817 300 817 208 l 817 635 q 812 663 817 658 q 783 668 807 668 l 760 668 q 728 679 738 668 q 538 786 650 786 q 345 698 428 786 q 263 482 263 610 q 345 266 263 354 q 538 178 428 178 q 721 276 650 178 q 772 202 731 226 q 860 178 814 178 q 933 201 904 178 q 976 269 963 225 q 996 360 990 314 q 1001 469 1001 407 q 961 686 1001 588 q 855 847 921 785 q 707 944 789 910 q 540 979 625 979 q 213 834 349 979 q 78 482 78 689 m 412 676 q 542 756 465 756 q 703 656 639 756 q 721 600 721 629 l 721 364 q 701 304 721 333 q 542 208 635 208 q 413 288 467 208 q 358 482 358 367 q 385 637 358 597 q 412 676 412 676 "},"A":{"ha":1042,"x_min":44,"x_max":996,"o":"m 44 0 q 186 4 140 4 q 346 0 213 4 l 346 43 q 269 64 296 43 q 242 114 242 85 q 244 135 242 129 l 308 317 l 651 317 l 725 104 q 729 85 729 88 q 614 43 729 43 l 614 0 q 814 4 664 4 q 996 0 908 4 l 996 43 l 971 43 q 886 53 908 43 q 853 99 864 64 l 553 967 q 547 979 549 976 q 542 987 546 982 q 534 993 539 992 q 521 994 529 994 q 499 989 506 994 q 488 967 493 983 l 200 136 q 44 43 168 46 l 44 0 m 324 360 l 479 811 l 636 360 l 324 360 "},"B":{"ha":983,"x_min":50,"x_max":904,"o":"m 50 0 l 594 0 q 817 76 729 0 q 904 254 904 153 q 828 414 904 344 q 636 496 751 483 q 802 576 738 515 q 867 714 867 638 q 778 878 867 807 q 558 949 690 949 l 50 949 l 50 906 l 83 906 q 176 893 158 906 q 193 840 193 881 l 193 108 q 176 56 193 68 q 83 43 158 43 l 50 43 l 50 0 m 308 99 l 308 478 l 569 478 q 715 408 664 478 q 765 256 765 338 q 708 108 765 174 q 550 43 650 43 l 376 43 q 319 53 329 43 q 308 99 308 63 m 308 508 l 308 850 q 319 896 308 886 q 376 906 329 906 l 549 906 q 686 844 640 906 q 732 714 732 782 q 674 573 732 638 q 510 508 617 508 l 308 508 "},"C":{"ha":1003,"x_min":78,"x_max":924,"o":"m 78 475 q 221 116 78 263 q 561 -31 364 -31 q 822 81 721 -31 q 924 324 924 192 q 906 347 924 347 q 897 346 900 347 q 892 341 893 344 q 890 335 890 338 q 889 325 890 332 q 789 97 881 182 q 578 13 697 13 q 507 20 544 13 q 416 56 469 28 q 322 131 363 85 q 251 267 281 178 q 221 474 221 357 q 251 681 221 592 q 322 817 281 769 q 416 892 363 864 q 506 928 469 921 q 576 936 543 936 q 775 847 692 936 q 879 607 858 757 q 885 588 882 592 q 901 583 888 583 q 921 589 918 583 q 924 617 924 594 l 924 946 q 922 973 924 967 q 908 979 919 979 q 886 963 897 979 l 817 860 q 756 915 781 896 q 676 957 731 935 q 561 979 622 979 q 221 832 364 979 q 78 475 78 685 "},"D":{"ha":1060,"x_min":49,"x_max":982,"o":"m 49 0 l 557 0 q 858 136 733 0 q 982 467 982 272 q 858 807 982 665 q 557 949 735 949 l 49 949 l 49 906 l 82 906 q 174 893 157 906 q 192 840 192 881 l 192 108 q 174 56 192 68 q 82 43 157 43 l 49 43 l 49 0 m 311 99 l 311 850 q 322 896 311 886 q 379 906 332 906 l 518 906 q 771 776 678 906 q 843 467 843 678 q 767 161 843 265 q 673 81 735 118 q 519 43 611 43 l 379 43 q 322 53 332 43 q 311 99 311 63 "},"E":{"ha":944,"x_min":46,"x_max":906,"o":"m 46 0 l 847 0 l 906 358 l 871 358 q 853 260 861 297 q 830 182 844 222 q 794 119 815 142 q 743 78 774 97 q 669 51 713 58 q 565 43 625 43 l 381 43 q 323 53 333 43 q 313 99 313 63 l 313 469 l 438 469 q 560 435 533 469 q 588 307 588 401 l 622 307 l 622 675 l 588 675 q 560 546 588 579 q 438 513 533 513 l 313 513 l 313 846 q 323 892 313 882 q 381 901 333 901 l 560 901 q 688 888 639 901 q 767 838 738 874 q 810 757 797 803 q 832 632 822 711 l 867 632 l 828 944 l 46 944 l 46 901 l 79 901 q 172 889 154 901 q 189 836 189 876 l 189 108 q 172 56 189 68 q 79 43 154 43 l 46 43 l 46 0 "},"F":{"ha":906,"x_min":46,"x_max":847,"o":"m 46 0 q 257 4 94 4 q 490 0 440 4 l 490 43 l 444 43 q 351 51 381 43 q 317 69 322 58 q 313 110 313 81 l 313 451 l 432 451 q 553 418 526 451 q 579 289 579 385 l 614 289 l 614 657 l 579 657 q 553 528 579 563 q 432 494 526 494 l 313 494 l 313 846 q 323 892 313 882 q 381 901 333 901 l 547 901 q 673 888 625 901 q 749 838 721 874 q 790 756 778 801 q 813 632 803 711 l 847 632 l 808 944 l 46 944 l 46 901 l 79 901 q 172 889 154 901 q 189 836 189 876 l 189 108 q 172 56 189 68 q 79 43 154 43 l 46 43 l 46 0 "},"G":{"ha":1089,"x_min":78,"x_max":1021,"o":"m 221 117 q 564 -31 364 -31 q 718 -1 646 -31 q 824 88 790 29 q 869 33 838 64 q 913 1 901 1 q 925 33 925 1 l 925 275 q 940 326 925 317 q 1021 336 954 336 l 1021 379 q 851 375 867 375 q 628 379 678 375 l 628 336 l 672 336 q 781 324 761 336 q 801 269 801 311 l 801 181 q 775 90 801 126 q 707 38 749 53 q 638 17 665 22 q 586 13 610 13 q 513 20 551 13 q 419 57 474 28 q 322 133 364 86 q 251 269 281 179 q 221 475 221 358 q 251 682 221 593 q 322 817 281 771 q 417 892 363 864 q 508 928 471 921 q 578 936 544 936 q 776 847 692 936 q 881 607 860 757 q 886 588 883 592 q 903 583 889 583 q 922 589 919 583 q 925 617 925 594 l 925 946 q 923 973 925 967 q 910 979 921 979 q 888 963 899 979 l 818 860 q 777 898 794 883 q 726 935 760 913 q 651 968 693 957 q 561 979 610 979 q 222 833 365 979 q 78 475 78 686 q 149 190 78 264 q 221 117 221 117 "},"H":{"ha":1042,"x_min":46,"x_max":994,"o":"m 46 0 q 250 4 94 4 q 456 0 407 4 l 456 43 l 422 43 q 330 56 347 43 q 313 108 313 68 l 313 472 l 728 472 l 728 108 q 710 56 728 68 q 618 43 693 43 l 585 43 l 585 0 q 789 4 633 4 q 994 0 946 4 l 994 43 l 961 43 q 869 56 886 43 q 851 108 851 68 l 851 840 q 869 893 851 881 q 961 906 886 906 l 994 906 l 994 949 q 790 944 946 944 q 585 949 633 944 l 585 906 l 618 906 q 710 893 693 906 q 728 840 728 881 l 728 515 l 313 515 l 313 840 q 330 893 313 881 q 422 906 347 906 l 456 906 l 456 949 q 251 944 407 944 q 46 949 94 944 l 46 906 l 79 906 q 172 893 154 906 q 189 840 189 881 l 189 108 q 172 56 189 68 q 79 43 154 43 l 46 43 l 46 0 "},"I":{"ha":501,"x_min":39,"x_max":463,"o":"m 39 0 q 250 4 88 4 q 463 0 414 4 l 463 43 l 426 43 q 331 56 349 43 q 313 108 313 68 l 313 840 q 331 893 313 881 q 426 906 349 906 l 463 906 l 463 949 q 251 944 414 944 q 39 949 88 944 l 39 906 l 75 906 q 171 893 153 906 q 189 840 189 881 l 189 108 q 171 56 189 68 q 75 43 153 43 l 39 43 l 39 0 "},"J":{"ha":713,"x_min":57,"x_max":646,"o":"m 57 156 q 122 24 57 78 q 279 -31 186 -31 q 453 29 382 -31 q 538 171 525 89 q 539 232 539 182 l 539 849 q 557 897 539 889 q 646 906 575 906 l 646 949 q 467 944 554 944 q 233 949 286 944 l 233 906 l 283 906 q 379 898 350 906 q 414 879 408 890 q 419 839 419 868 l 419 206 q 377 57 419 114 q 276 0 335 0 q 124 81 174 0 q 213 158 213 81 q 189 215 213 194 q 135 236 165 236 q 81 217 106 236 q 57 156 57 197 "},"K":{"ha":1079,"x_min":46,"x_max":1022,"o":"m 46 0 q 250 4 94 4 q 456 0 407 4 l 456 43 l 422 43 q 330 56 347 43 q 313 108 313 68 l 313 351 l 474 504 l 725 132 q 746 85 746 100 q 664 43 746 43 l 664 0 q 863 4 713 4 q 1022 0 935 4 l 1022 43 q 934 55 963 43 q 876 110 906 67 l 556 582 l 806 822 q 1003 906 888 904 l 1003 949 q 885 944 967 944 q 708 949 756 944 l 708 906 q 749 896 733 906 q 769 877 765 886 q 772 860 772 868 q 747 814 772 836 l 313 399 l 313 840 q 330 893 313 881 q 422 906 347 906 l 456 906 l 456 949 q 251 944 407 944 q 46 949 94 944 l 46 906 l 79 906 q 172 893 154 906 q 189 840 189 881 l 189 108 q 172 56 189 68 q 79 43 154 43 l 46 43 l 46 0 "},"L":{"ha":868,"x_min":46,"x_max":808,"o":"m 46 0 l 769 0 l 808 358 l 774 358 q 763 269 768 301 q 739 188 757 238 q 694 111 721 138 q 616 64 667 85 q 494 43 565 43 l 381 43 q 323 53 333 43 q 313 99 313 63 l 313 839 q 317 878 313 867 q 351 897 322 889 q 444 906 381 906 l 490 906 l 490 949 q 257 944 440 944 q 46 949 94 944 l 46 906 l 79 906 q 172 893 154 906 q 189 840 189 881 l 189 108 q 172 56 189 68 q 79 43 154 43 l 46 43 l 46 0 "},"M":{"ha":1272,"x_min":51,"x_max":1221,"o":"m 51 0 q 214 4 197 4 q 376 0 231 4 l 376 43 q 294 53 326 43 q 251 81 263 63 q 236 113 239 100 q 233 146 233 125 l 233 894 l 235 894 l 569 31 q 597 0 581 0 q 622 26 613 0 l 964 906 l 965 906 l 965 108 q 948 56 965 68 q 856 43 931 43 l 822 43 l 822 0 q 1022 4 874 4 q 1221 0 1169 4 l 1221 43 l 1188 43 q 1095 56 1113 43 q 1078 108 1078 68 l 1078 840 q 1095 893 1078 881 q 1188 906 1113 906 l 1221 906 l 1221 949 l 986 949 q 953 945 960 949 q 940 922 947 942 l 636 140 l 335 918 q 318 944 325 940 q 286 949 311 949 l 51 949 l 51 906 l 85 906 q 177 893 160 906 q 194 840 194 881 l 194 146 q 192 113 194 125 q 177 81 189 100 q 133 53 165 63 q 51 43 101 43 l 51 0 "},"N":{"ha":1042,"x_min":46,"x_max":994,"o":"m 46 0 q 208 4 192 4 q 371 0 225 4 l 371 43 q 289 53 321 43 q 245 81 257 63 q 231 113 233 100 q 228 146 228 125 l 228 868 q 242 851 236 860 l 808 18 q 832 0 822 0 q 849 7 846 0 q 851 36 851 14 l 851 803 q 854 836 851 824 q 869 867 857 849 q 913 896 881 886 q 994 906 944 906 l 994 949 q 832 944 849 944 q 669 949 815 944 l 669 906 q 751 896 719 906 q 795 867 783 886 q 810 836 807 849 q 813 803 813 824 l 813 210 l 322 931 q 307 946 313 943 q 282 949 301 949 l 46 949 l 46 906 l 86 906 q 156 903 114 906 q 184 895 179 900 q 189 871 189 890 l 189 146 q 186 113 189 125 q 172 81 183 100 q 128 53 160 63 q 46 43 96 43 l 46 0 "},"O":{"ha":1079,"x_min":78,"x_max":1001,"o":"m 78 471 q 215 115 78 260 q 539 -31 351 -31 q 865 115 729 -31 q 1001 471 1001 261 q 865 831 1001 682 q 539 979 729 979 q 214 831 350 979 q 78 471 78 683 m 221 490 q 253 712 221 618 q 338 853 286 806 q 440 923 389 901 q 539 944 490 944 q 619 932 578 944 q 703 887 660 919 q 781 805 747 854 q 837 674 815 756 q 858 490 858 592 q 827 260 858 360 q 747 108 796 161 q 645 31 697 56 q 540 6 593 6 q 433 31 486 6 q 331 110 381 57 q 251 263 282 164 q 221 490 221 361 "},"P":{"ha":944,"x_min":49,"x_max":867,"o":"m 49 0 q 253 4 97 4 q 458 0 410 4 l 458 43 l 425 43 q 333 56 350 43 q 315 108 315 68 l 315 439 l 550 439 q 772 513 676 439 q 867 690 867 588 q 773 872 867 794 q 539 949 679 949 l 49 949 l 49 906 l 82 906 q 174 893 157 906 q 192 840 192 881 l 192 108 q 174 56 192 68 q 82 43 157 43 l 49 43 l 49 0 m 311 475 l 311 850 q 322 896 311 886 q 379 906 332 906 l 503 906 q 610 889 565 906 q 676 851 656 872 q 709 794 697 829 q 722 740 721 760 q 724 690 724 721 q 722 642 724 661 q 709 588 721 622 q 676 531 697 553 q 610 492 656 510 q 503 475 565 475 l 311 475 "},"Q":{"ha":1079,"x_min":78,"x_max":1010,"o":"m 78 471 q 214 115 78 261 q 540 -31 350 -31 q 672 -10 606 -31 q 685 -89 681 -62 q 703 -157 690 -115 q 733 -218 717 -199 q 776 -253 749 -237 q 842 -269 804 -269 q 927 -240 892 -269 q 979 -167 963 -211 q 1003 -85 996 -122 q 1010 -14 1010 -47 q 994 15 1010 15 q 979 -10 982 15 q 937 -95 974 -64 q 853 -126 900 -126 q 776 -94 806 -126 q 719 10 746 -61 q 923 192 844 67 q 1001 471 1001 317 q 865 831 1001 682 q 539 979 729 979 q 214 831 350 979 q 78 471 78 683 m 217 471 q 249 696 217 599 q 331 844 281 793 q 433 920 381 896 q 539 944 486 944 q 647 919 593 944 q 750 842 700 894 q 831 693 800 789 q 863 471 863 597 q 699 58 863 179 q 542 206 640 206 q 460 170 492 206 q 428 89 428 135 q 447 22 428 61 q 378 60 413 35 q 305 135 344 86 q 241 272 265 185 q 217 471 217 358 m 458 89 q 481 149 458 122 q 542 175 504 175 q 663 36 636 175 q 540 4 606 4 q 488 22 508 4 q 463 57 468 40 q 458 89 458 74 "},"R":{"ha":1022,"x_min":49,"x_max":1017,"o":"m 49 0 q 251 4 99 4 q 454 0 404 4 l 454 43 l 421 43 q 328 56 346 43 q 311 108 311 68 l 311 460 l 471 460 q 600 413 551 460 q 644 342 636 378 q 653 226 653 307 q 655 144 653 169 q 669 85 657 118 q 710 28 682 53 q 885 -31 776 -31 q 951 -12 922 -31 q 992 32 979 6 q 1011 81 1006 58 q 1017 122 1017 104 q 999 146 1017 146 q 982 124 985 146 q 949 28 976 57 q 890 0 922 0 q 861 5 874 0 q 839 24 849 10 q 823 51 829 38 q 810 92 817 64 q 801 140 804 119 q 792 200 797 160 l 774 311 q 604 472 742 425 q 778 560 710 499 q 847 699 847 621 q 742 874 847 800 q 485 949 636 949 l 49 949 l 49 906 l 82 906 q 174 893 157 906 q 192 840 192 881 l 192 108 q 174 56 192 68 q 82 43 157 43 l 49 43 l 49 0 m 311 490 l 311 850 q 313 878 311 869 q 320 894 314 886 q 342 903 326 901 q 424 906 356 906 q 489 904 464 906 q 551 897 514 903 q 611 878 588 892 q 658 842 635 864 q 693 784 682 821 q 704 699 704 747 q 695 624 704 657 q 663 559 686 592 q 589 508 639 526 q 465 490 539 490 l 311 490 "},"S":{"ha":771,"x_min":78,"x_max":693,"o":"m 78 3 q 80 -24 78 -17 q 93 -31 82 -31 q 114 -12 103 -31 l 118 -6 q 164 67 136 21 q 267 -2 200 26 q 419 -31 333 -31 q 616 55 539 -31 q 693 258 693 140 q 633 440 693 361 q 485 539 574 518 l 307 582 q 205 647 243 597 q 167 758 167 697 q 219 887 167 833 q 350 940 271 940 q 621 650 582 940 q 638 633 624 633 q 650 637 646 633 q 655 646 654 640 q 656 667 656 651 l 656 946 q 653 973 656 967 q 640 979 651 979 q 619 961 631 979 l 571 882 q 521 927 540 911 q 453 961 501 943 q 349 979 406 979 q 156 900 235 979 q 78 710 78 821 q 128 553 78 624 q 260 456 178 483 q 443 410 271 451 q 483 398 469 403 q 520 378 497 393 q 561 339 543 363 q 604 211 604 286 q 553 72 604 132 q 418 13 501 13 q 199 88 279 13 q 113 301 117 164 q 96 315 111 315 q 83 311 88 315 q 78 301 79 307 q 78 281 78 296 l 78 3 "},"T":{"ha":1003,"x_min":50,"x_max":951,"o":"m 50 628 l 85 628 q 95 726 90 690 q 112 797 100 763 q 138 847 124 831 q 181 877 153 864 q 244 894 208 890 q 335 897 281 897 q 410 894 396 897 q 430 885 424 892 q 438 869 436 878 q 439 842 439 861 l 439 110 q 433 71 439 82 q 396 51 428 60 q 293 43 364 43 l 238 43 l 238 0 q 500 4 294 4 q 764 0 707 4 l 764 43 l 708 43 q 606 51 638 43 q 568 71 574 60 q 563 110 563 82 l 563 842 q 567 878 563 867 q 588 894 571 890 q 667 897 603 897 q 757 894 721 897 q 821 877 793 890 q 863 847 849 864 q 890 797 878 831 q 906 726 901 763 q 917 628 911 690 l 951 628 l 925 940 l 76 940 l 50 628 "},"U":{"ha":1042,"x_min":46,"x_max":994,"o":"m 46 906 l 79 906 q 172 893 154 906 q 189 840 189 881 l 189 317 q 292 70 189 171 q 539 -31 396 -31 q 743 53 657 -31 q 847 257 829 136 q 851 353 851 285 l 851 797 q 854 835 851 821 q 869 868 857 849 q 913 897 881 888 q 994 906 944 906 l 994 949 q 831 944 844 944 q 665 949 815 944 l 665 906 q 747 896 715 906 q 791 867 779 886 q 806 836 803 849 q 808 803 808 824 l 808 321 q 728 97 808 181 q 542 13 647 13 q 477 23 510 13 q 404 62 444 33 q 338 154 364 90 q 313 311 313 218 l 313 840 q 330 893 313 881 q 422 906 347 906 l 456 906 l 456 949 q 251 944 407 944 q 46 949 94 944 l 46 906 "},"V":{"ha":1042,"x_min":26,"x_max":1014,"o":"m 26 906 q 124 898 100 906 q 163 853 149 890 l 485 0 q 499 -25 492 -19 q 519 -31 506 -31 q 542 -26 536 -31 q 553 -4 547 -21 l 863 813 q 1014 906 897 904 l 1014 949 q 879 944 950 944 q 721 949 829 944 l 721 906 q 797 884 771 904 q 822 836 822 864 q 815 808 822 829 l 561 139 l 296 840 q 288 865 288 860 q 401 906 288 906 l 401 949 q 203 944 351 944 q 26 949 176 944 l 26 906 "},"W":{"ha":1426,"x_min":25,"x_max":1401,"o":"m 25 906 q 120 897 101 906 q 151 847 139 888 l 429 -4 q 456 -31 438 -31 q 471 -27 465 -31 q 478 -19 476 -24 q 483 -3 481 -14 l 713 703 l 943 -4 q 969 -31 951 -31 q 985 -27 979 -31 q 992 -19 990 -24 q 997 -3 994 -14 l 1263 813 q 1401 906 1292 906 l 1401 949 q 1275 944 1339 944 q 1110 949 1218 944 l 1110 906 q 1201 881 1172 904 q 1231 832 1231 857 q 1224 804 1231 825 l 1015 163 l 793 843 q 789 864 789 860 q 906 906 789 906 l 906 949 q 708 944 856 944 q 657 945 685 944 q 594 947 629 946 q 539 949 558 949 l 539 906 q 629 898 606 906 q 664 856 653 890 l 694 758 l 501 163 l 278 846 q 275 864 275 854 q 392 906 275 906 l 392 949 q 194 944 342 944 q 143 945 171 944 q 80 947 115 946 q 25 949 44 949 l 25 906 "},"X":{"ha":1042,"x_min":33,"x_max":1008,"o":"m 33 0 q 188 4 183 4 q 365 0 315 4 l 365 43 q 300 65 322 44 q 278 107 278 85 q 292 140 278 118 l 489 432 l 708 100 q 715 85 715 86 q 691 58 715 71 q 625 43 667 44 l 625 0 q 828 4 674 4 q 1008 0 921 4 l 1008 43 l 982 43 q 899 53 925 43 q 851 93 872 63 l 558 536 l 749 815 q 950 906 810 904 l 950 949 q 897 947 931 949 q 837 945 863 946 q 796 944 811 944 q 618 949 674 944 l 618 906 q 681 885 658 904 q 704 842 704 867 q 692 810 704 829 l 533 575 l 354 843 q 344 864 344 858 q 369 891 344 878 q 435 906 393 904 l 435 949 q 232 944 386 944 q 51 949 128 944 l 51 906 l 78 906 q 161 896 135 906 q 207 857 188 886 l 463 471 l 235 135 q 204 97 218 111 q 144 63 190 82 q 33 43 97 43 l 33 0 "},"Y":{"ha":1042,"x_min":15,"x_max":1025,"o":"m 15 906 l 40 906 q 111 899 86 906 q 146 884 136 893 q 168 854 156 875 l 460 379 l 460 108 q 442 56 460 68 q 350 43 425 43 l 317 43 l 317 0 q 519 4 367 4 q 722 0 672 4 l 722 43 l 690 43 q 597 56 614 43 q 579 111 579 68 l 579 379 l 847 815 q 1025 906 901 906 l 1025 949 q 889 944 961 944 q 729 949 838 944 l 729 906 q 789 890 769 906 q 808 851 808 875 q 794 810 808 831 l 565 438 l 314 847 q 304 871 304 861 q 327 899 304 892 q 401 906 350 906 l 401 949 q 196 944 351 944 q 15 949 103 944 l 15 906 "},"Z":{"ha":849,"x_min":78,"x_max":778,"o":"m 78 24 q 84 3 78 7 q 114 0 90 0 l 754 0 l 778 371 l 743 371 q 733 262 739 304 q 708 174 726 219 q 660 104 690 129 q 576 63 629 79 q 449 47 524 47 l 221 47 l 760 900 q 769 926 769 915 q 768 939 769 935 q 761 946 767 943 q 751 949 756 949 q 733 949 746 949 l 111 949 l 96 636 l 131 636 q 147 745 135 701 q 188 828 158 789 q 272 887 217 868 q 410 906 326 906 l 628 906 l 88 51 q 78 24 78 36 "},"[":{"ha":386,"x_min":144,"x_max":354,"o":"m 144 -347 l 354 -347 l 354 -315 l 238 -315 l 238 1010 l 354 1010 l 354 1042 l 144 1042 l 144 -347 "},"\\":{"ha":694,"x_min":79,"x_max":614,"o":"m 79 1022 q 85 1001 79 1015 l 576 -312 q 600 -344 589 -344 q 614 -328 614 -344 q 607 -303 614 -324 l 115 1010 q 92 1039 104 1039 q 79 1022 79 1039 "},"]":{"ha":386,"x_min":29,"x_max":239,"o":"m 29 -315 l 29 -347 l 239 -347 l 239 1042 l 29 1042 l 29 1010 l 146 1010 l 146 -315 l 29 -315 "},"^":{"ha":849,"x_min":163,"x_max":683,"o":"m 163 672 l 183 643 l 422 799 l 663 643 l 683 672 l 422 872 l 163 672 "},"_":{"ha":1081,"x_min":117,"x_max":961,"o":"m 157 -324 l 922 -324 q 961 -296 961 -324 q 919 -268 961 -268 l 158 -268 q 117 -296 117 -268 q 157 -324 117 -324 "},"`":{"ha":694,"x_min":139,"x_max":396,"o":"m 139 840 q 142 825 139 832 q 149 813 146 818 q 160 803 153 808 q 170 795 167 797 q 181 789 174 793 l 189 785 q 375 681 347 694 l 396 708 q 317 786 364 739 q 222 876 240 861 q 188 892 203 892 q 153 875 167 892 q 139 840 139 858 "},"a":{"ha":694,"x_min":58,"x_max":685,"o":"m 58 132 q 97 44 58 79 q 183 -3 136 10 q 281 -15 231 -15 q 394 19 346 -15 q 463 106 442 53 q 496 26 467 60 q 571 -8 525 -8 q 646 21 607 -8 q 685 124 685 50 l 685 201 l 650 201 l 650 124 q 600 35 650 35 q 567 52 579 35 q 551 83 554 69 q 549 104 549 96 l 549 382 q 547 441 549 421 q 534 492 546 461 q 499 546 522 522 q 308 622 422 622 q 160 578 221 622 q 99 465 99 533 q 117 417 99 435 q 163 400 135 400 q 209 418 192 400 q 226 464 226 436 q 212 506 226 485 q 156 528 197 526 q 306 592 204 592 q 408 546 363 592 q 453 414 453 500 l 453 363 q 197 313 281 353 q 58 132 58 250 m 165 133 q 232 267 165 206 q 453 333 299 328 l 453 194 q 401 60 453 106 q 290 15 349 15 q 202 49 239 15 q 165 133 165 82 "},"b":{"ha":771,"x_min":39,"x_max":724,"o":"m 39 906 q 129 892 111 906 q 147 828 147 879 l 147 0 l 182 0 q 232 86 183 1 q 414 -15 299 -15 q 632 76 540 -15 q 724 300 724 168 q 636 522 724 431 q 429 614 549 614 q 239 524 319 614 l 239 964 l 39 949 l 39 906 m 243 158 l 243 444 q 258 494 243 472 q 422 583 321 583 q 568 494 513 583 q 608 301 608 431 q 565 104 608 171 q 408 15 506 15 q 263 100 318 15 q 243 158 243 129 "},"c":{"ha":617,"x_min":47,"x_max":576,"o":"m 135 76 q 346 -15 224 -15 q 441 2 399 -15 q 508 44 483 19 q 549 96 532 68 q 571 141 565 124 q 576 165 576 158 q 558 179 576 179 q 540 165 544 179 q 358 19 494 19 q 297 33 328 19 q 233 77 265 47 q 182 165 201 107 q 163 303 163 224 q 221 521 163 454 q 350 588 279 588 q 499 536 449 588 q 457 522 472 535 q 438 497 442 508 q 433 472 433 485 q 451 426 433 444 q 497 408 468 408 q 543 426 525 408 q 561 474 561 443 q 497 582 561 542 q 349 622 433 622 q 134 527 221 622 q 47 300 47 432 q 91 122 47 168 q 135 76 135 76 "},"d":{"ha":771,"x_min":47,"x_max":732,"o":"m 47 299 q 135 76 47 168 q 342 -15 222 -15 q 528 76 456 -15 l 528 -15 l 732 0 l 732 43 q 642 56 660 43 q 624 121 624 69 l 624 964 l 424 949 l 424 906 q 514 892 496 906 q 532 828 532 879 l 532 528 q 357 614 463 614 q 140 522 232 614 q 47 299 47 431 m 163 297 q 206 494 163 428 q 363 583 265 583 q 513 500 456 583 q 528 449 528 476 l 528 164 q 513 113 528 136 q 349 15 451 15 q 203 104 258 15 q 163 297 163 168 "},"e":{"ha":617,"x_min":39,"x_max":576,"o":"m 39 306 q 131 77 39 169 q 344 -15 222 -15 q 451 9 403 -15 q 525 66 500 33 q 563 126 550 99 q 576 165 576 153 q 558 182 576 182 q 540 163 544 182 q 494 81 524 113 q 432 37 465 49 q 383 22 399 25 q 353 19 367 19 q 196 113 254 19 q 154 321 154 179 l 542 321 q 571 325 565 321 q 576 350 576 329 q 513 543 576 464 q 328 622 450 622 q 123 529 207 622 q 39 306 39 436 m 156 350 q 178 474 158 422 q 228 549 199 526 q 281 582 257 572 q 328 592 306 592 q 412 563 378 592 q 460 490 446 535 q 480 412 475 444 q 485 350 485 379 l 156 350 "},"f":{"ha":424,"x_min":46,"x_max":496,"o":"m 46 556 l 156 556 l 156 106 q 138 52 156 61 q 47 43 121 43 l 47 0 q 101 1 67 0 q 163 3 136 3 q 206 4 189 4 q 382 0 326 4 l 382 43 l 353 43 q 264 56 281 43 q 247 108 247 68 l 247 556 l 406 556 l 406 599 l 243 599 l 243 760 q 282 897 243 846 q 371 949 321 949 q 417 939 396 949 q 375 881 375 925 q 391 838 375 856 q 435 821 407 821 q 480 838 464 821 q 496 882 496 856 q 460 950 496 921 q 371 979 425 979 q 222 920 289 979 q 156 758 156 861 l 156 599 l 46 599 l 46 556 "},"g":{"ha":694,"x_min":39,"x_max":674,"o":"m 39 -110 q 128 -235 39 -185 q 346 -286 218 -286 q 563 -236 472 -286 q 654 -107 654 -186 q 564 51 654 1 q 485 78 529 69 q 411 89 442 88 q 325 90 381 90 q 221 92 231 90 q 168 123 189 96 q 147 185 147 150 q 171 250 147 222 q 308 207 231 207 q 468 267 403 207 q 533 410 533 328 q 476 544 533 492 q 601 599 533 599 q 615 597 611 599 q 593 560 593 589 q 605 531 593 542 q 633 519 617 519 q 660 530 647 519 q 674 561 674 540 q 656 607 674 585 q 603 629 639 629 q 456 564 522 629 q 308 614 392 614 q 149 553 214 614 q 83 411 83 493 q 149 268 83 322 q 106 153 106 218 q 167 29 106 68 q 73 -26 107 13 q 39 -110 39 -65 m 111 -110 q 144 -28 111 -62 q 225 10 178 7 l 307 10 q 403 8 369 10 q 486 -5 438 6 q 558 -42 535 -15 q 582 -110 582 -68 q 515 -211 582 -168 q 347 -254 447 -254 q 178 -210 246 -254 q 111 -110 111 -167 m 188 410 q 210 526 188 489 q 308 582 247 582 q 429 411 429 582 q 407 294 429 332 q 308 239 369 239 q 188 410 188 239 "},"h":{"ha":771,"x_min":44,"x_max":743,"o":"m 44 0 q 201 4 190 4 q 357 0 215 4 l 357 43 q 266 52 283 43 q 249 106 249 61 l 249 361 q 306 523 249 463 q 436 583 364 583 q 517 542 496 583 q 539 429 539 500 l 539 106 q 522 52 539 61 q 431 43 504 43 l 431 0 q 588 4 576 4 q 743 0 601 4 l 743 43 q 658 49 681 43 q 635 85 636 56 l 635 350 q 628 489 635 450 q 592 563 622 528 q 446 614 550 614 q 318 572 368 614 q 246 481 268 531 l 244 481 l 244 964 l 44 949 l 44 906 q 135 892 117 906 q 153 828 153 879 l 153 106 q 135 52 153 61 q 44 43 118 43 l 44 0 "},"i":{"ha":385,"x_min":46,"x_max":343,"o":"m 46 0 q 199 4 179 4 q 343 0 201 4 l 343 43 q 260 53 275 43 q 246 104 246 63 l 246 614 l 51 599 l 51 556 q 137 543 119 556 q 154 479 154 531 l 154 106 q 137 52 154 61 q 46 43 119 43 l 46 0 m 104 856 q 125 804 104 826 q 178 782 146 782 q 230 803 208 782 q 251 856 251 824 q 230 908 251 888 q 178 929 208 929 q 126 906 147 929 q 104 856 104 883 "},"j":{"ha":424,"x_min":-56,"x_max":292,"o":"m 166 803 q 218 782 188 782 q 270 803 249 782 q 292 856 292 825 q 270 908 292 886 q 218 929 249 929 q 166 908 188 929 q 144 856 144 886 q 155 814 144 825 q 166 803 166 803 m -56 -174 q -9 -255 -56 -225 q 101 -285 38 -285 q 236 -224 181 -285 q 292 -69 292 -162 l 292 614 l 81 599 l 81 556 q 180 542 160 556 q 200 478 200 529 l 200 -72 q 197 -128 200 -101 q 183 -185 193 -154 q 152 -235 174 -217 q 99 -254 131 -254 q 24 -236 60 -254 q 58 -215 43 -231 q 72 -174 72 -199 q 55 -128 72 -146 q 8 -110 38 -110 q -38 -128 -21 -110 q -56 -174 -56 -146 "},"k":{"ha":732,"x_min":39,"x_max":710,"o":"m 39 0 q 190 4 176 4 q 343 0 260 4 l 343 43 q 252 52 269 43 q 235 106 235 61 l 235 249 l 324 325 q 350 288 333 313 q 376 253 368 264 q 489 75 489 97 q 439 43 489 43 l 439 0 q 589 4 556 4 q 710 0 650 4 l 710 43 q 638 55 664 43 q 575 117 611 67 l 399 365 q 396 369 399 367 q 392 376 393 372 q 390 381 390 379 q 437 425 390 385 q 503 481 483 465 q 678 556 590 551 l 678 599 q 581 594 638 594 q 425 599 483 594 l 425 556 q 465 521 465 553 q 435 467 465 493 l 239 297 l 239 964 l 39 949 l 39 906 q 129 892 111 906 q 147 828 147 879 l 147 106 q 130 52 147 61 q 39 43 113 43 l 39 0 "},"l":{"ha":385,"x_min":46,"x_max":354,"o":"m 46 0 q 200 4 183 4 q 241 3 215 4 q 302 1 267 3 q 354 0 338 0 l 354 43 q 263 52 281 43 q 246 106 246 61 l 246 964 l 46 949 l 46 906 q 136 892 118 906 q 154 828 154 879 l 154 106 q 137 52 154 61 q 46 43 119 43 l 46 0 "},"m":{"ha":1157,"x_min":44,"x_max":1129,"o":"m 44 0 q 201 4 190 4 q 357 0 215 4 l 357 43 q 266 52 283 43 q 249 106 249 61 l 249 361 q 306 523 249 463 q 436 583 364 583 q 517 542 496 583 q 539 429 539 500 l 539 106 q 522 52 539 61 q 431 43 504 43 l 431 0 q 588 4 576 4 q 743 0 601 4 l 743 43 q 652 52 669 43 q 635 106 635 61 l 635 361 q 692 523 635 463 q 822 583 750 583 q 903 542 882 583 q 925 429 925 500 l 925 106 q 908 52 925 61 q 817 43 890 43 l 817 0 q 974 4 963 4 q 1129 0 988 4 l 1129 43 q 1044 49 1067 43 q 1021 85 1022 56 l 1021 350 q 1015 489 1021 450 q 978 563 1008 528 q 832 614 936 614 q 704 572 754 614 q 631 478 654 531 q 446 614 608 614 q 240 468 306 614 l 240 614 l 44 599 l 44 556 q 135 542 117 556 q 153 478 153 529 l 153 106 q 135 52 153 61 q 44 43 118 43 l 44 0 "},"n":{"ha":771,"x_min":44,"x_max":743,"o":"m 44 0 q 201 4 190 4 q 357 0 215 4 l 357 43 q 266 52 283 43 q 249 106 249 61 l 249 361 q 306 523 249 463 q 436 583 364 583 q 517 542 496 583 q 539 429 539 500 l 539 106 q 522 52 539 61 q 431 43 504 43 l 431 0 q 588 4 576 4 q 743 0 601 4 l 743 43 q 658 49 681 43 q 635 85 636 56 l 635 350 q 628 489 635 450 q 592 563 622 528 q 446 614 550 614 q 240 468 306 614 l 240 614 l 44 599 l 44 556 q 135 542 117 556 q 153 478 153 529 l 153 106 q 135 52 153 61 q 44 43 118 43 l 44 0 "},"o":{"ha":694,"x_min":39,"x_max":654,"o":"m 131 75 q 346 -15 222 -15 q 563 76 472 -15 q 654 297 654 167 q 564 526 654 431 q 347 622 474 622 q 128 526 218 622 q 39 297 39 429 q 85 120 39 165 q 131 75 131 75 m 154 308 q 188 499 154 438 q 258 568 214 544 q 346 592 301 592 q 503 501 449 592 q 539 308 539 442 q 508 122 539 183 q 442 47 485 75 q 347 19 399 19 q 189 113 243 19 q 154 308 154 174 "},"p":{"ha":771,"x_min":39,"x_max":724,"o":"m 39 -226 l 39 -269 q 194 -265 181 -265 q 351 -269 206 -265 l 351 -226 q 260 -217 278 -226 q 243 -164 243 -208 l 243 69 l 243 82 q 298 20 251 56 q 414 -15 344 -15 q 632 76 540 -15 q 724 300 724 168 q 638 522 724 431 q 433 614 551 614 q 239 522 322 614 l 239 614 l 39 599 l 39 556 q 130 544 113 556 q 147 486 147 532 l 147 -164 q 130 -217 147 -208 q 39 -226 113 -226 m 243 158 l 243 468 q 321 550 274 521 q 422 579 368 579 q 553 498 499 579 q 608 300 608 417 q 548 97 608 178 q 408 15 488 15 q 263 100 318 15 q 246 130 249 122 q 243 158 243 138 "},"q":{"ha":732,"x_min":47,"x_max":732,"o":"m 47 299 q 135 77 47 169 q 343 -15 222 -15 q 528 85 451 -15 l 528 -164 q 510 -217 528 -208 q 419 -226 493 -226 l 419 -269 q 575 -265 561 -265 q 732 -269 586 -265 l 732 -226 q 641 -217 658 -226 q 624 -164 624 -208 l 624 614 l 593 614 l 540 488 q 509 539 528 514 q 448 589 490 564 q 354 614 406 614 q 139 523 231 614 q 47 299 47 432 m 163 299 q 223 499 163 419 q 363 579 283 579 q 485 515 439 579 q 532 385 532 450 l 532 189 q 476 72 532 133 q 349 15 424 15 q 217 97 272 15 q 163 299 163 179 "},"r":{"ha":543,"x_min":39,"x_max":506,"o":"m 39 0 q 93 1 58 0 q 154 3 128 3 q 197 4 181 4 q 374 0 318 4 l 374 43 l 344 43 q 256 56 272 43 q 239 108 239 68 l 239 322 q 283 507 239 431 q 403 583 326 583 q 418 582 415 583 q 408 576 414 581 q 394 558 401 571 q 386 528 386 544 q 403 484 386 500 q 446 468 421 468 q 487 483 468 468 q 506 529 506 499 q 476 589 506 564 q 403 614 447 614 q 293 567 335 614 q 232 461 251 521 l 232 614 l 39 599 l 39 556 q 129 542 111 556 q 147 478 147 529 l 147 106 q 130 52 147 61 q 39 43 113 43 l 39 0 "},"s":{"ha":547,"x_min":46,"x_max":500,"o":"m 46 18 q 48 -8 46 -1 q 61 -15 50 -15 q 96 13 68 -15 q 98 15 97 14 q 101 19 99 17 q 109 29 103 22 q 124 44 115 36 q 276 -15 186 -15 q 444 40 389 -15 q 500 178 500 96 q 442 310 500 251 q 283 376 394 356 q 235 387 251 383 q 191 400 218 390 q 149 420 164 410 q 124 449 135 431 q 113 490 113 467 q 149 565 113 533 q 268 596 186 596 q 431 428 419 596 q 447 415 432 415 q 460 419 456 415 q 465 428 464 422 q 465 449 465 433 l 465 589 q 463 615 465 608 q 450 622 461 622 q 422 606 440 622 q 399 583 414 596 q 268 622 346 622 q 99 572 151 622 q 46 451 46 521 q 106 333 46 382 q 171 297 136 308 q 289 269 206 286 q 433 142 433 243 q 394 50 433 85 q 276 15 354 15 q 149 66 194 15 q 83 213 104 117 q 77 232 81 228 q 64 236 74 236 q 51 232 56 236 q 47 222 47 228 q 46 201 46 217 l 46 18 "},"t":{"ha":539,"x_min":26,"x_max":461,"o":"m 26 556 l 144 556 l 144 172 q 165 72 144 113 q 217 14 185 31 q 274 -9 249 -3 q 324 -15 299 -15 q 426 41 392 -15 q 461 172 461 97 l 461 251 l 426 251 l 426 175 q 400 60 426 101 q 333 19 374 19 q 240 169 240 19 l 240 556 l 439 556 l 439 599 l 240 599 l 240 854 l 206 854 q 190 735 204 790 q 133 634 175 679 q 26 586 90 589 l 26 556 "},"u":{"ha":771,"x_min":44,"x_max":743,"o":"m 44 556 q 139 539 125 556 q 153 428 153 522 l 153 219 q 154 152 153 175 q 167 92 156 129 q 199 35 178 54 q 261 0 219 15 q 364 -15 303 -15 q 543 110 485 -15 l 543 -15 l 743 0 l 743 43 q 653 56 671 43 q 635 121 635 69 l 635 614 l 431 599 l 431 556 q 521 542 503 556 q 539 478 539 529 l 539 231 q 492 77 539 139 q 371 15 446 15 q 303 26 329 15 q 265 58 276 36 q 251 100 254 81 q 249 153 249 119 l 249 614 l 44 599 l 44 556 "},"v":{"ha":732,"x_min":26,"x_max":706,"o":"m 26 556 q 106 547 89 556 q 138 504 124 539 l 338 11 q 349 -10 344 -6 q 367 -15 354 -15 q 396 11 385 -15 l 578 463 q 597 502 588 486 q 635 537 606 518 q 706 556 664 556 l 706 599 q 601 594 658 594 q 481 599 551 594 l 481 556 q 531 537 515 554 q 547 496 547 519 q 539 463 547 486 l 397 108 l 242 496 q 233 519 233 514 q 313 556 233 556 l 313 599 q 161 594 188 594 q 26 599 89 594 l 26 556 "},"w":{"ha":1003,"x_min":25,"x_max":976,"o":"m 25 556 q 97 547 79 556 q 128 507 115 539 l 303 15 q 314 -8 308 -1 q 332 -15 319 -15 q 349 -10 344 -15 q 360 13 354 -4 l 500 406 l 642 11 q 669 -15 651 -15 q 697 11 682 -14 l 860 467 q 976 556 890 553 l 976 599 q 875 594 931 594 q 746 599 825 594 l 746 556 q 805 537 783 554 q 826 489 826 519 q 819 460 826 478 l 693 104 l 556 492 q 549 518 549 513 q 631 556 549 556 l 631 599 q 486 594 510 594 q 363 599 425 594 l 363 556 q 450 535 433 556 q 482 458 457 526 l 363 122 l 231 493 q 224 518 224 510 q 306 556 224 556 l 306 599 q 154 594 181 594 q 25 599 100 594 l 25 556 "},"x":{"ha":732,"x_min":17,"x_max":717,"o":"m 17 0 q 132 4 71 4 q 264 0 164 4 l 264 43 q 224 86 224 49 q 229 108 224 96 q 349 263 243 138 l 454 124 q 483 78 483 83 q 471 56 483 67 q 433 43 458 44 l 433 0 q 583 4 558 4 q 717 0 654 4 l 717 43 q 632 50 657 43 q 585 86 607 57 l 399 326 q 526 483 500 454 q 692 556 586 553 l 692 599 q 578 594 638 594 q 444 599 499 594 l 444 556 q 485 513 485 551 q 464 464 485 489 l 378 356 l 269 496 q 257 521 257 510 q 306 556 257 553 l 306 599 q 156 594 197 594 q 24 599 81 594 l 24 556 q 117 544 96 556 q 188 471 139 533 l 325 292 q 194 126 194 126 q 17 43 125 43 l 17 0 "},"y":{"ha":732,"x_min":26,"x_max":706,"o":"m 26 -172 q 64 -252 26 -219 q 154 -285 101 -285 q 332 -126 265 -285 l 576 467 q 706 556 613 556 l 706 599 q 601 594 658 594 q 481 599 572 594 l 481 556 q 546 496 546 553 q 538 463 546 482 l 397 121 l 243 494 q 235 519 235 515 q 313 556 235 556 l 313 599 q 161 594 204 594 q 26 599 89 594 l 26 556 q 104 548 83 556 q 139 507 125 540 l 347 0 q 313 -82 332 -40 q 277 -164 292 -135 q 229 -224 263 -193 q 154 -254 196 -254 q 89 -229 115 -254 q 143 -171 143 -222 q 126 -128 143 -144 q 85 -112 110 -112 q 44 -128 61 -112 q 26 -172 26 -143 "},"z":{"ha":617,"x_min":39,"x_max":557,"o":"m 39 19 q 46 3 39 6 q 75 0 53 0 l 533 0 l 557 260 l 522 260 q 474 83 513 131 q 319 35 435 35 l 156 35 l 542 557 q 554 581 554 572 q 550 593 554 589 q 540 598 546 597 q 518 599 533 599 l 74 599 l 58 375 l 93 375 q 135 528 100 488 q 281 568 171 568 l 439 568 l 51 44 q 39 19 39 29 "},"{":{"ha":694,"x_min":101,"x_max":590,"o":"m 104 338 q 112 333 107 335 q 122 331 117 332 q 134 330 126 331 q 146 329 142 329 q 183 319 163 326 q 232 294 204 311 q 278 243 260 278 q 297 163 297 208 l 297 -142 q 299 -182 297 -168 q 388 -305 308 -262 q 567 -347 468 -347 q 590 -332 590 -347 q 557 -314 590 -318 q 450 -272 493 -307 q 397 -190 407 -237 q 394 -140 394 -174 l 394 168 q 229 347 394 306 q 394 535 394 389 l 394 847 q 513 1000 394 961 q 536 1005 524 1003 q 558 1008 549 1007 q 574 1011 567 1010 q 586 1016 582 1013 q 590 1026 590 1019 q 565 1042 590 1042 q 437 1020 504 1042 q 332 953 369 999 q 297 839 297 911 l 297 536 q 294 496 297 510 q 245 412 286 446 q 154 368 204 378 q 135 365 146 367 q 120 363 125 364 q 110 361 115 363 q 103 356 106 360 q 101 347 101 353 q 103 340 101 342 q 104 338 104 338 "},"|":{"ha":386,"x_min":164,"x_max":219,"o":"m 164 -304 q 192 -346 164 -346 q 219 -294 219 -346 l 219 999 q 192 1040 219 1040 q 164 989 164 1040 l 164 -304 "},"}":{"ha":694,"x_min":101,"x_max":590,"o":"m 101 -332 q 126 -347 101 -347 q 328 -289 249 -347 q 374 -235 358 -265 q 392 -189 390 -206 q 394 -144 394 -172 l 394 158 q 397 199 394 185 q 446 283 406 250 q 536 326 486 317 q 554 329 544 328 q 569 331 564 331 q 581 333 575 332 q 588 338 586 335 q 590 347 590 342 q 588 355 590 351 q 580 360 585 358 q 570 363 575 361 q 558 365 565 364 q 546 365 550 365 q 507 376 526 368 q 459 400 488 383 q 413 451 431 417 q 394 532 394 486 l 394 836 q 393 876 394 863 q 303 999 383 957 q 125 1042 224 1042 q 101 1025 101 1042 q 103 1017 101 1021 q 110 1013 106 1014 q 118 1010 115 1011 q 127 1009 121 1010 q 135 1008 133 1008 q 242 967 199 1001 q 294 885 285 932 q 297 835 297 868 l 297 525 q 463 347 297 389 q 297 160 297 306 l 297 -153 q 179 -306 297 -267 q 141 -314 163 -311 q 110 -319 119 -317 q 101 -332 101 -322 "},"~":{"ha":849,"x_min":115,"x_max":732,"o":"m 115 817 l 139 797 q 201 847 172 831 q 275 863 231 863 q 417 830 324 863 q 558 797 510 797 q 590 801 575 797 q 617 807 606 804 q 642 819 628 810 q 662 833 656 829 q 682 851 668 838 q 699 868 696 864 q 717 888 703 872 q 732 907 731 904 l 708 928 q 646 878 675 894 q 572 861 617 861 q 431 894 524 861 q 289 928 338 928 q 255 925 271 928 q 224 914 239 922 q 199 901 208 906 q 174 881 189 896 q 155 862 160 867 q 134 838 150 857 q 115 817 118 819 "},"":{"ha":463,"x_min":0,"x_max":0,"o":""},"":{"ha":386,"x_min":118,"x_max":265,"o":"m 118 -228 q 140 -281 118 -261 q 192 -300 163 -300 q 242 -281 219 -300 q 265 -228 265 -262 q 263 -200 265 -219 l 222 274 q 215 353 219 306 q 210 410 213 397 q 192 433 207 433 q 172 399 176 433 l 124 -167 q 118 -228 118 -217 m 118 621 q 139 570 118 592 q 192 549 160 549 q 242 569 219 549 q 264 621 264 590 q 242 674 264 653 q 192 694 221 694 q 140 674 163 694 q 118 621 118 653 "},"":{"ha":694,"x_min":46,"x_max":653,"o":"m 46 299 q 136 85 46 175 q 364 -14 226 -4 l 364 -135 l 407 -135 l 407 -14 q 508 8 463 -10 q 580 49 554 26 q 623 98 606 72 q 647 140 640 124 q 653 164 653 157 q 636 179 653 179 q 619 165 626 179 q 599 128 611 150 q 568 83 588 106 q 507 43 549 61 q 407 21 465 25 l 407 585 q 575 536 515 581 q 513 472 513 526 q 531 427 513 446 q 576 408 549 408 q 621 426 603 408 q 639 475 639 443 q 576 578 639 540 q 407 619 514 617 l 407 740 l 364 740 l 364 619 q 135 517 225 610 q 46 299 46 425 m 163 300 q 217 497 163 424 q 364 583 271 571 l 364 22 q 212 119 261 42 q 163 300 163 197 "},"":{"ha":888,"x_min":76,"x_max":847,"o":"m 76 67 q 108 7 76 29 q 193 -15 140 -15 q 382 83 306 -15 q 410 67 383 82 q 447 48 438 53 q 481 31 456 43 q 523 13 507 18 q 562 -1 539 7 q 604 -12 585 -10 q 643 -15 624 -15 q 792 50 736 -15 q 847 181 847 115 q 838 203 847 197 q 828 206 833 206 q 810 169 815 206 q 761 83 801 119 q 661 46 721 46 q 594 57 631 46 q 533 79 557 68 q 467 113 510 90 q 414 142 425 136 q 433 257 433 196 l 433 461 l 557 461 q 590 483 590 461 q 551 504 588 496 l 433 504 l 433 703 q 463 875 433 822 q 581 949 506 949 q 692 906 640 949 q 767 783 744 864 q 744 786 753 786 q 699 768 718 786 q 681 722 681 750 q 699 677 681 694 q 744 660 718 660 q 788 676 768 660 q 808 729 808 692 q 744 902 808 824 q 578 981 679 981 q 412 910 488 981 q 336 708 336 840 l 336 504 l 250 504 q 217 483 217 504 q 221 471 217 478 q 253 461 226 461 l 336 461 l 336 304 q 333 176 336 203 q 243 193 281 193 l 242 193 q 124 156 172 193 q 76 67 76 119 m 129 65 q 153 110 129 90 q 224 131 178 131 q 317 113 268 131 q 265 42 299 68 q 194 17 232 17 q 149 31 168 17 q 129 65 129 44 "},"":{"ha":1022,"x_min":64,"x_max":957,"o":"m 64 -33 q 71 -53 63 -44 q 90 -62 79 -62 q 119 -46 101 -62 q 249 83 138 -29 l 250 83 q 511 -15 365 -15 q 772 83 660 -15 q 829 26 794 61 q 908 -51 896 -40 q 931 -62 921 -62 q 949 -54 942 -62 q 957 -36 957 -46 q 939 -5 957 -25 q 813 122 921 15 l 813 124 q 910 385 910 236 q 813 646 910 531 l 813 647 q 853 688 828 661 q 957 804 957 789 q 949 824 957 817 q 932 831 940 831 q 917 826 924 831 q 774 686 907 819 q 511 783 656 783 q 250 686 365 783 l 249 686 q 123 812 143 793 q 90 831 103 831 l 88 831 q 72 823 79 831 q 64 806 64 815 q 68 790 64 797 q 210 647 72 785 q 111 385 111 528 q 210 122 111 235 q 146 58 185 97 q 75 -12 85 -1 q 64 -33 65 -24 m 269 628 q 511 728 371 728 q 755 626 656 728 q 854 385 854 524 q 752 140 854 240 q 511 40 650 40 q 268 140 369 40 q 167 385 167 240 q 218 579 167 529 q 269 628 269 628 "},"":{"ha":1042,"x_min":15,"x_max":1025,"o":"m 15 906 l 28 906 q 122 897 97 906 q 174 846 147 888 l 321 606 l 144 606 q 97 590 97 606 q 132 574 97 574 l 319 574 q 339 570 333 574 q 356 549 344 567 q 410 461 378 513 q 439 413 432 425 q 460 360 460 379 l 460 358 l 460 336 l 132 336 q 97 319 97 336 q 129 304 97 304 l 460 304 l 460 108 q 438 54 460 65 q 331 43 415 43 l 317 43 l 317 0 q 529 4 422 4 q 724 0 549 4 l 724 43 l 710 43 q 603 53 625 43 q 581 107 581 64 l 581 304 l 911 304 q 942 319 942 304 q 908 336 942 336 l 581 336 l 581 357 q 583 378 581 371 q 685 549 586 389 q 701 570 696 567 q 722 574 707 574 l 908 574 q 942 583 936 574 q 933 603 950 596 q 896 606 926 606 l 719 606 q 861 835 853 824 q 1025 906 917 904 l 1025 949 q 893 944 964 944 q 731 949 811 944 l 731 906 q 808 853 808 903 q 806 833 808 842 q 668 606 801 824 l 463 606 q 422 671 442 639 q 390 724 403 703 q 363 767 376 746 q 342 800 350 788 q 328 824 335 813 q 317 843 321 836 q 310 856 313 850 q 306 865 307 861 q 306 871 306 868 q 393 906 306 906 l 401 906 l 401 949 q 193 944 297 944 q 15 949 94 944 l 15 906 m 482 574 l 649 574 l 565 438 l 482 574 "},"":{"ha":232,"x_min":88,"x_max":143,"o":"m 88 194 l 88 -304 q 115 -346 88 -346 q 143 -303 143 -346 l 143 197 q 115 239 143 239 q 88 194 88 239 m 88 499 q 115 456 88 456 q 143 499 143 456 l 143 997 q 115 1040 143 1040 q 88 997 88 1040 l 88 499 "},"":{"ha":617,"x_min":96,"x_max":519,"o":"m 96 354 q 142 203 96 281 q 286 81 188 125 l 311 69 q 345 56 338 60 q 376 39 353 51 q 408 17 399 26 q 432 -8 418 7 q 451 -40 446 -22 q 457 -76 457 -57 q 416 -198 457 -142 q 306 -254 375 -254 q 227 -235 271 -254 q 160 -164 183 -215 q 192 -153 179 -162 q 208 -133 204 -143 q 211 -115 211 -124 q 197 -81 211 -94 q 164 -68 183 -68 q 131 -81 147 -68 q 115 -121 115 -93 q 170 -234 115 -183 q 307 -285 225 -285 q 458 -222 397 -285 q 519 -71 519 -160 q 410 153 519 51 q 519 340 519 217 q 474 491 519 414 q 329 613 428 568 l 303 622 q 270 638 278 633 q 240 654 263 642 q 207 676 217 667 q 183 701 197 686 q 164 733 169 715 q 158 769 158 750 q 199 890 158 833 q 310 947 240 947 q 389 928 346 947 q 456 858 432 908 q 424 847 436 857 q 408 828 411 838 q 404 810 404 818 q 418 775 404 789 q 451 761 432 761 q 484 774 468 761 q 500 814 500 786 q 444 928 500 878 q 308 979 389 979 q 159 918 222 979 q 96 764 96 857 q 206 542 96 647 q 96 354 96 479 m 158 358 q 188 464 158 415 q 242 513 217 513 q 263 504 249 513 q 306 485 275 499 q 359 460 338 471 q 406 431 381 449 q 444 388 431 413 q 457 333 457 364 q 426 229 457 276 q 374 182 396 182 q 353 189 367 182 q 307 210 339 196 q 253 235 275 224 q 208 263 232 246 q 171 305 183 281 q 158 358 158 329 "},"":{"ha":694,"x_min":139,"x_max":554,"o":"m 139 842 q 159 791 139 813 q 211 769 179 769 q 262 790 239 769 q 285 842 285 811 q 262 894 285 872 q 211 915 239 915 q 160 894 182 915 q 139 842 139 874 m 408 842 q 429 791 408 813 q 482 769 450 769 q 532 790 510 769 q 554 842 554 811 q 533 894 554 874 q 482 915 511 915 q 431 894 453 915 q 408 842 408 874 "},"":{"ha":1543,"x_min":76,"x_max":1464,"o":"m 76 347 q 133 62 76 197 q 283 -169 189 -74 q 505 -322 378 -265 q 769 -378 632 -378 q 1035 -322 907 -378 q 1257 -171 1163 -267 q 1408 60 1351 -75 q 1464 347 1464 196 q 1408 633 1464 497 q 1257 864 1351 768 q 1035 1016 1163 960 q 771 1072 908 1072 q 431 980 589 1072 q 174 719 272 888 q 76 347 76 551 m 132 346 q 220 688 132 532 q 455 930 308 843 q 772 1017 601 1017 q 1086 930 940 1017 q 1320 688 1232 843 q 1408 347 1408 533 q 1321 8 1408 163 q 1087 -234 1233 -146 q 768 -322 940 -322 q 321 -128 510 -322 q 132 346 132 65 m 385 332 q 501 77 385 185 q 783 -31 618 -31 q 999 53 919 -31 q 1079 221 1079 136 q 1063 247 1079 247 q 1042 215 1046 247 q 963 69 1032 125 q 801 13 894 13 q 740 19 771 13 q 669 45 708 25 q 599 99 629 65 q 549 192 569 132 q 528 333 528 253 q 549 474 528 413 q 599 567 569 535 q 669 620 629 600 q 740 646 710 640 q 800 651 771 651 q 903 626 857 651 q 973 568 949 601 q 1013 497 997 535 q 1034 439 1029 460 q 1039 414 1039 418 q 1069 407 1050 393 q 1079 436 1079 417 l 1079 664 q 1063 693 1079 693 q 981 618 1049 693 l 979 618 q 782 694 893 694 q 503 588 621 694 q 385 332 385 482 "},"":{"ha":617,"x_min":57,"x_max":608,"o":"m 57 603 q 238 506 57 506 q 386 569 338 506 q 405 526 393 538 q 443 514 417 515 l 461 514 q 581 534 554 515 q 608 600 608 553 l 608 632 l 574 632 l 574 597 q 565 568 574 576 q 524 558 556 560 q 490 565 501 558 q 475 578 478 571 q 472 599 472 586 l 472 803 q 408 999 472 935 q 271 1064 343 1064 q 142 992 188 1064 q 97 843 97 921 q 110 797 97 814 q 136 775 124 779 q 161 771 149 771 q 207 790 189 771 q 225 835 225 808 q 206 879 225 861 q 161 897 188 897 q 139 896 146 897 q 190 998 154 964 q 267 1032 225 1032 q 341 976 307 1032 q 375 796 375 919 l 375 733 q 142 696 226 731 q 57 603 57 661 m 64 449 q 92 433 64 433 l 521 433 q 551 450 551 433 q 521 465 551 465 l 90 465 q 64 449 64 465 m 167 603 q 225 674 167 647 q 375 704 283 701 l 375 643 q 368 594 375 610 q 323 553 356 568 q 253 538 290 538 q 192 556 217 538 q 167 603 167 574 "},"":{"ha":771,"x_min":157,"x_max":690,"o":"m 157 336 q 181 308 157 325 q 422 28 336 194 q 446 3 431 3 q 458 15 458 3 q 438 78 458 31 q 367 201 417 126 q 257 335 318 275 q 372 477 322 401 q 440 597 421 553 q 458 657 458 642 q 446 668 458 668 q 428 651 439 668 q 399 603 417 635 q 356 535 381 572 q 284 451 331 499 q 179 361 238 403 q 157 336 157 344 m 428 297 q 537 195 469 267 q 653 28 604 124 q 676 3 661 3 q 690 15 690 3 q 669 78 690 31 q 599 201 649 126 q 488 335 549 275 q 603 477 553 401 q 672 597 653 553 q 690 657 690 642 q 676 668 690 668 q 653 644 665 668 q 576 524 617 578 q 503 440 535 469 q 444 388 471 410 q 402 354 417 367 q 388 335 388 342 q 408 313 388 328 q 428 297 428 297 "},"":{"ha":926,"x_min":78,"x_max":847,"o":"m 122 439 l 792 439 l 792 165 q 819 126 792 126 q 847 169 847 126 l 847 449 q 838 485 847 475 q 804 494 829 494 l 118 494 q 78 467 78 494 q 122 439 78 439 "},"":{"ha":232,"x_min":14,"x_max":383,"o":"m 14 258 l 383 258 l 383 340 l 14 340 l 14 258 "},"":{"ha":1543,"x_min":76,"x_max":1464,"o":"m 76 347 q 133 62 76 197 q 283 -169 189 -74 q 505 -322 378 -265 q 769 -378 632 -378 q 1035 -322 907 -378 q 1257 -171 1163 -267 q 1408 60 1351 -75 q 1464 347 1464 196 q 1408 633 1464 497 q 1257 864 1351 768 q 1035 1016 1163 960 q 771 1072 908 1072 q 431 980 589 1072 q 174 719 272 888 q 76 347 76 551 m 132 346 q 220 688 132 532 q 455 930 308 843 q 772 1017 601 1017 q 1086 930 940 1017 q 1320 688 1232 843 q 1408 347 1408 533 q 1321 8 1408 163 q 1087 -234 1233 -146 q 768 -322 940 -322 q 321 -128 510 -322 q 132 346 132 65 m 336 0 q 539 4 439 4 q 742 0 639 4 l 742 43 l 729 43 q 622 54 644 43 q 599 108 599 65 l 599 317 l 717 317 q 825 285 785 317 q 865 192 865 254 l 865 135 q 925 7 864 44 q 1088 -31 986 -31 q 1152 -13 1125 -31 q 1191 30 1179 4 q 1208 76 1203 56 q 1213 111 1213 96 q 1196 135 1213 135 q 1181 125 1186 135 q 1176 102 1181 124 q 1166 59 1172 81 q 1140 19 1160 38 q 1093 1 1121 1 q 1017 88 1039 1 q 1001 153 1010 113 q 988 213 993 194 q 967 258 982 232 q 928 299 953 283 q 864 329 903 315 q 1010 396 963 354 q 1058 485 1058 438 q 972 608 1058 551 q 708 664 886 664 l 336 664 l 336 621 l 353 621 q 458 610 436 621 q 479 556 479 599 l 479 108 q 458 55 479 67 q 354 43 436 43 l 336 43 l 336 0 m 599 347 l 599 558 q 609 608 599 596 q 661 621 619 621 l 717 621 q 866 592 817 621 q 915 485 915 563 q 901 420 915 447 q 867 379 886 393 q 815 358 847 365 q 759 349 782 350 q 703 347 736 347 l 599 347 "},"":{"ha":694,"x_min":96,"x_max":596,"o":"m 96 901 l 596 901 l 596 946 l 96 946 l 96 901 "},"":{"ha":463,"x_min":76,"x_max":385,"o":"m 76 794 q 121 688 76 733 q 231 642 165 642 q 339 687 293 642 q 385 796 385 732 q 340 903 385 857 q 231 949 296 949 q 122 903 167 949 q 76 794 76 858 m 161 865 q 231 893 190 893 q 299 865 269 893 q 328 794 328 836 q 299 725 328 753 q 231 697 271 697 q 161 725 190 697 q 132 794 132 753 q 147 850 132 836 q 161 865 161 865 "},"":{"ha":1081,"x_min":78,"x_max":1000,"o":"m 78 28 q 119 0 78 0 l 960 0 q 1000 28 1000 0 q 958 56 1000 56 l 567 56 l 567 435 l 958 435 q 1000 463 1000 435 q 958 490 1000 490 l 567 490 l 567 882 q 539 924 567 924 q 511 882 511 924 l 511 490 l 119 490 q 78 463 78 490 q 119 435 78 435 l 511 435 l 511 56 l 117 56 q 78 28 78 54 "},"":{"ha":617,"x_min":69,"x_max":547,"o":"m 69 482 l 508 482 l 547 725 l 513 725 q 496 639 506 679 q 469 597 486 603 q 364 590 453 590 l 164 590 l 296 664 q 358 694 315 675 q 427 728 400 713 q 485 765 454 743 q 531 817 515 788 q 547 885 547 847 q 475 1020 547 968 q 292 1072 403 1072 q 133 1031 196 1072 q 69 925 69 990 q 91 872 69 893 q 143 851 113 851 q 194 872 172 851 q 215 924 215 893 q 197 973 215 954 q 153 996 179 992 q 265 1029 203 1029 q 377 988 335 1029 q 419 885 419 946 q 333 743 414 819 q 103 592 301 718 q 83 579 86 582 q 74 568 79 576 q 69 546 69 560 l 69 482 "},"":{"ha":617,"x_min":57,"x_max":557,"o":"m 57 600 q 109 508 57 547 q 299 467 161 468 q 484 517 411 467 q 557 633 557 567 q 506 728 557 686 q 376 782 454 769 q 518 938 518 835 q 454 1034 518 996 q 304 1072 390 1072 q 153 1010 211 1072 q 96 871 96 947 q 119 813 96 831 q 167 796 142 796 q 216 816 196 796 q 236 867 236 836 q 215 917 236 897 q 165 938 194 938 q 146 935 163 938 q 216 1015 174 992 q 297 1038 258 1038 q 363 1015 336 1038 q 390 942 390 993 q 371 856 390 893 q 319 804 351 818 q 285 798 308 800 q 247 792 261 796 q 232 778 232 788 q 261 761 232 761 l 290 761 q 414 631 414 761 q 290 507 414 507 q 158 528 221 507 q 213 601 213 553 q 190 657 213 635 q 135 679 167 679 q 80 658 103 679 q 57 600 57 636 "},"":{"ha":694,"x_min":297,"x_max":554,"o":"m 297 708 l 318 681 q 506 786 324 683 q 515 792 507 788 q 526 798 522 796 q 535 805 529 800 q 545 815 542 810 q 551 826 549 819 q 554 840 554 832 q 540 875 554 858 q 506 892 526 892 q 473 878 490 892 q 389 797 456 864 q 297 708 335 744 "},"":{"ha":771,"x_min":43,"x_max":742,"o":"m 43 -228 l 43 -271 q 189 -267 124 -267 l 194 -267 q 356 -271 275 -267 l 356 -228 l 349 -228 q 265 -217 282 -228 q 249 -165 249 -206 l 249 3 q 361 -15 303 -15 q 540 107 485 -15 l 540 -15 l 742 0 l 742 43 l 735 43 q 653 56 674 43 q 633 115 633 69 l 633 613 l 429 597 l 429 556 l 436 556 q 515 542 494 556 q 536 486 535 529 l 536 276 q 537 259 536 271 q 538 242 538 247 q 485 70 538 124 q 369 17 432 17 q 301 28 326 17 q 264 64 275 39 q 251 108 253 89 q 249 164 249 128 l 249 613 l 43 597 l 43 556 l 63 556 q 134 540 117 553 q 151 475 151 528 l 151 -157 q 137 -215 151 -203 q 57 -228 122 -228 l 43 -228 "},"":{"ha":849,"x_min":76,"x_max":807,"o":"m 76 643 q 194 415 76 503 q 486 319 313 328 l 486 -215 l 424 -215 q 419 -215 422 -215 q 413 -214 415 -214 q 372 -243 372 -214 q 413 -271 372 -271 l 767 -271 q 807 -243 807 -271 q 758 -215 807 -215 l 693 -215 l 693 908 l 764 908 q 807 936 807 908 q 761 964 807 964 l 442 964 q 273 933 347 964 q 158 851 199 901 q 97 748 117 801 q 76 643 76 694 m 542 -215 l 542 908 l 638 908 l 638 -215 l 542 -215 "},"":{"ha":386,"x_min":118,"x_max":264,"o":"m 139 285 q 192 263 160 263 q 242 283 219 263 q 264 336 264 304 q 243 388 264 368 q 192 408 222 408 q 139 387 160 408 q 118 336 118 365 q 128 296 118 307 q 139 285 139 285 "},"":{"ha":617,"x_min":143,"x_max":471,"o":"m 143 -251 l 143 -283 l 204 -283 q 471 -175 471 -283 q 357 -75 471 -101 l 357 0 l 260 0 l 260 -99 q 347 -124 321 -101 q 374 -175 374 -147 q 320 -235 374 -218 q 160 -251 267 -251 l 143 -251 "},"":{"ha":617,"x_min":96,"x_max":519,"o":"m 96 925 q 267 967 189 926 l 267 590 q 244 537 267 549 q 142 525 222 525 l 115 525 l 115 482 l 132 482 l 222 485 l 394 485 l 503 483 l 449 482 l 519 482 l 519 525 l 493 525 q 392 537 414 525 q 371 589 371 549 l 371 1028 q 371 1044 371 1040 q 369 1056 371 1047 q 363 1068 368 1065 q 351 1071 358 1071 q 324 1055 343 1071 q 283 1020 306 1039 q 210 985 260 1001 q 96 968 160 969 l 96 925 "},"":{"ha":617,"x_min":38,"x_max":576,"o":"m 38 779 q 115 586 38 667 q 307 506 193 506 q 499 585 421 506 q 576 779 576 665 q 497 981 576 899 q 307 1064 417 1064 q 117 981 197 1064 q 38 779 38 899 m 64 449 q 92 433 64 433 l 519 433 q 551 450 551 433 q 519 465 551 465 l 89 465 q 64 449 64 465 m 154 783 l 154 800 q 156 867 154 843 q 167 924 157 890 q 197 982 178 958 q 307 1032 240 1032 q 410 990 368 1032 q 451 916 442 958 q 461 808 461 874 l 461 778 q 415 590 461 643 q 307 542 372 542 q 204 586 246 542 q 169 648 181 610 q 156 712 157 686 q 154 783 154 738 "},"":{"ha":771,"x_min":79,"x_max":613,"o":"m 92 3 q 115 28 101 3 q 190 145 150 92 q 263 229 231 199 q 324 282 296 260 q 367 317 351 304 q 382 336 382 329 q 341 374 382 344 q 233 476 300 404 q 115 644 165 547 q 92 668 103 668 q 79 656 79 668 q 101 592 79 640 q 172 470 122 544 q 282 336 221 396 q 163 189 213 267 q 96 69 113 111 q 79 15 79 28 q 92 3 79 3 m 324 3 q 347 28 333 3 q 422 145 382 92 q 494 229 463 199 q 554 282 526 260 q 597 317 582 304 q 613 336 613 329 q 572 374 613 344 q 465 476 532 404 q 347 644 397 547 q 324 668 335 668 q 310 656 310 668 q 331 592 310 640 q 402 470 353 544 q 513 336 451 396 q 393 188 443 265 q 326 69 343 111 q 310 15 310 28 q 324 3 310 3 "},"":{"ha":617,"x_min":11,"x_max":603,"o":"m 51 358 l 563 358 q 603 385 603 358 q 557 414 603 414 l 56 414 q 11 386 11 414 q 51 358 11 358 m 38 -110 l 38 -131 l 331 -131 l 331 -167 q 308 -216 329 -204 q 215 -228 288 -228 l 196 -228 l 196 -271 q 393 -267 294 -267 q 574 -271 411 -267 l 574 -228 l 553 -228 q 460 -216 481 -228 q 439 -167 440 -204 l 439 -131 l 578 -131 l 578 -87 l 439 -87 l 439 313 q 414 347 439 347 q 396 342 404 347 q 381 331 388 338 q 360 306 375 325 l 65 -54 q 41 -86 44 -79 q 38 -110 38 -93 m 81 -87 l 338 226 l 338 -87 l 81 -87 m 96 974 q 267 994 197 974 l 267 578 q 244 524 267 535 q 133 513 221 513 l 114 513 l 114 469 q 311 474 232 474 q 519 469 415 474 l 519 513 l 503 513 q 394 524 417 513 q 371 576 371 535 l 371 1028 q 370 1051 371 1044 q 365 1065 369 1057 q 349 1072 360 1072 q 316 1058 339 1072 q 238 1031 293 1044 q 96 1017 183 1017 l 96 974 "},"":{"ha":617,"x_min":11,"x_max":603,"o":"m 51 358 l 563 358 q 603 385 603 358 q 557 414 603 414 l 56 414 q 11 386 11 414 q 51 358 11 358 m 68 -260 l 68 -271 l 508 -271 l 546 -28 l 511 -28 q 494 -114 504 -74 q 487 -137 489 -133 q 478 -151 485 -142 q 453 -160 472 -160 q 411 -161 433 -160 q 336 -162 389 -162 l 200 -162 l 336 -64 q 390 -28 353 -51 q 449 10 428 -6 q 496 51 471 26 q 533 103 521 75 q 546 167 546 132 q 486 283 546 232 q 288 333 426 333 q 123 296 176 333 q 69 207 69 258 q 90 154 69 175 q 142 133 110 133 q 193 153 172 133 q 214 206 214 174 q 168 274 214 254 q 260 290 214 290 q 376 256 332 290 q 419 165 419 222 q 308 -24 419 74 q 81 -228 90 -218 q 68 -260 68 -242 m 96 974 q 267 994 197 974 l 267 578 q 244 524 267 535 q 133 513 221 513 l 114 513 l 114 469 q 311 474 232 474 q 519 469 415 474 l 519 513 l 503 513 q 394 524 417 513 q 371 576 371 535 l 371 1028 q 370 1051 371 1044 q 365 1065 369 1057 q 349 1072 360 1072 q 316 1058 339 1072 q 238 1031 293 1044 q 96 1017 183 1017 l 96 974 "},"":{"ha":617,"x_min":11,"x_max":603,"o":"m 51 358 l 563 358 q 603 385 603 358 q 557 414 603 414 l 56 414 q 11 386 11 414 q 51 358 11 358 m 38 -110 l 38 -131 l 331 -131 l 331 -167 q 308 -216 329 -204 q 215 -228 288 -228 l 196 -228 l 196 -271 q 392 -267 294 -267 q 574 -271 411 -267 l 574 -228 l 553 -228 q 460 -216 481 -228 q 439 -167 440 -204 l 439 -131 l 578 -131 l 578 -87 l 439 -87 l 439 313 q 414 347 439 347 q 396 342 404 347 q 381 331 388 338 q 360 306 375 325 l 65 -54 q 41 -86 44 -79 q 38 -110 38 -93 m 57 575 q 130 469 57 501 q 297 438 203 438 q 484 490 411 438 q 557 611 557 542 q 506 710 557 667 q 375 768 454 754 q 519 933 519 824 q 455 1033 519 994 q 304 1072 390 1072 q 155 1025 214 1072 q 96 913 96 978 q 117 860 96 881 q 167 840 138 840 q 217 861 197 840 q 238 911 238 882 q 219 958 238 936 q 160 981 201 981 l 158 981 q 296 1036 214 1036 q 390 936 390 1036 q 369 840 390 879 q 313 789 347 800 q 281 784 303 786 q 245 778 258 782 q 232 764 232 775 q 258 749 232 749 l 292 749 q 414 611 414 749 q 292 478 414 478 q 156 500 213 478 q 213 576 213 519 q 190 631 213 610 q 135 653 167 653 q 80 631 103 653 q 57 575 57 610 m 81 -87 l 338 226 l 338 -87 l 81 -87 "},"":{"ha":656,"x_min":76,"x_max":578,"o":"m 76 -96 q 86 -157 76 -128 q 119 -217 96 -186 q 192 -266 142 -247 q 313 -285 242 -285 q 499 -233 421 -285 q 578 -101 578 -182 q 556 -49 578 -65 q 513 -33 535 -33 q 468 -51 486 -33 q 450 -96 450 -68 q 467 -140 450 -121 q 518 -160 483 -160 l 525 -160 q 311 -254 457 -254 q 254 -244 278 -254 q 219 -222 231 -235 q 201 -187 207 -210 q 194 -149 194 -164 q 193 -106 193 -133 q 199 -37 193 -65 q 213 4 206 -8 q 236 39 219 17 q 309 206 292 122 q 326 389 326 290 l 326 397 q 308 435 326 435 q 290 403 289 435 l 290 382 q 182 83 290 199 q 149 52 175 75 q 112 15 124 29 q 88 -30 100 0 q 76 -96 76 -60 m 235 621 q 256 570 235 592 q 308 549 276 549 q 358 569 336 549 q 381 621 381 590 q 359 674 381 653 q 308 694 338 694 q 257 674 279 694 q 235 621 235 653 "},"":{"ha":1042,"x_min":44,"x_max":996,"o":"m 44 0 q 186 4 140 4 q 346 0 213 4 l 346 43 q 269 64 296 43 q 242 114 242 85 q 244 135 242 129 l 308 317 l 651 317 l 725 104 q 729 85 729 88 q 614 43 729 43 l 614 0 q 814 4 664 4 q 996 0 908 4 l 996 43 l 971 43 q 886 53 908 43 q 853 99 864 64 l 553 967 q 547 979 549 976 q 542 987 546 982 q 534 993 539 992 q 521 994 529 994 q 499 989 506 994 q 488 967 493 983 l 200 136 q 44 43 168 46 l 44 0 m 324 360 l 479 811 l 636 360 l 324 360 m 325 1146 q 335 1118 325 1129 q 355 1103 346 1107 q 383 1093 364 1099 q 590 1029 581 1032 l 606 1063 q 414 1181 442 1165 q 372 1197 386 1197 q 338 1181 351 1197 q 325 1146 325 1164 "},"":{"ha":1042,"x_min":44,"x_max":996,"o":"m 397 1063 l 411 1031 q 619 1094 431 1036 q 678 1146 678 1106 q 664 1181 678 1164 q 631 1197 650 1197 q 619 1196 624 1197 q 397 1063 606 1192 m 44 0 q 186 4 140 4 q 346 0 213 4 l 346 43 q 269 64 296 43 q 242 114 242 85 q 244 135 242 129 l 308 317 l 651 317 l 725 104 q 729 85 729 88 q 614 43 729 43 l 614 0 q 814 4 664 4 q 996 0 908 4 l 996 43 l 971 43 q 886 53 908 43 q 853 99 864 64 l 553 967 q 547 979 549 976 q 542 987 546 982 q 534 993 539 992 q 521 994 529 994 q 499 989 506 994 q 488 967 493 983 l 200 136 q 44 43 168 46 l 44 0 m 324 360 l 479 811 l 636 360 l 324 360 "},"":{"ha":1042,"x_min":44,"x_max":996,"o":"m 44 0 q 186 4 140 4 q 346 0 213 4 l 346 43 q 269 64 296 43 q 242 114 242 85 q 244 135 242 129 l 308 317 l 651 317 l 725 104 q 729 85 729 88 q 614 43 729 43 l 614 0 q 814 4 664 4 q 996 0 908 4 l 996 43 l 971 43 q 886 53 908 43 q 853 99 864 64 l 553 967 q 547 979 549 976 q 542 987 546 982 q 534 993 539 992 q 521 994 529 994 q 499 989 506 994 q 488 967 493 983 l 200 136 q 44 43 168 46 l 44 0 m 324 360 l 479 811 l 636 360 l 324 360 m 335 1057 l 358 1033 l 360 1033 l 519 1179 l 521 1179 l 681 1033 l 682 1033 l 706 1057 l 521 1253 l 519 1253 l 335 1057 "},"":{"ha":1042,"x_min":44,"x_max":996,"o":"m 250 1143 l 274 1121 q 389 1174 329 1174 q 513 1147 426 1174 q 638 1121 599 1121 q 668 1123 654 1121 q 695 1132 682 1125 q 716 1142 708 1139 q 737 1159 724 1146 q 754 1176 750 1172 q 773 1197 758 1179 q 790 1217 788 1214 l 767 1239 q 651 1186 711 1186 q 526 1212 613 1186 q 403 1238 440 1238 q 376 1235 389 1238 q 353 1230 363 1232 q 331 1220 343 1228 q 314 1209 319 1213 q 297 1194 308 1206 q 281 1178 285 1182 q 265 1160 278 1175 q 250 1143 253 1146 m 44 0 q 186 4 140 4 q 346 0 213 4 l 346 43 q 269 64 296 43 q 242 114 242 85 q 244 135 242 129 l 308 317 l 651 317 l 725 104 q 729 85 729 88 q 614 43 729 43 l 614 0 q 814 4 664 4 q 996 0 908 4 l 996 43 l 971 43 q 886 53 908 43 q 853 99 864 64 l 553 967 q 547 979 549 976 q 542 987 546 982 q 534 993 539 992 q 521 994 529 994 q 499 989 506 994 q 488 967 493 983 l 200 136 q 44 43 168 46 l 44 0 m 324 360 l 479 811 l 636 360 l 324 360 "},"":{"ha":1042,"x_min":44,"x_max":996,"o":"m 44 0 q 186 4 140 4 q 346 0 213 4 l 346 43 q 269 64 296 43 q 242 114 242 85 q 244 135 242 129 l 308 317 l 651 317 l 725 104 q 729 85 729 88 q 614 43 729 43 l 614 0 q 814 4 664 4 q 996 0 908 4 l 996 43 l 971 43 q 886 53 908 43 q 853 99 864 64 l 553 967 q 547 979 549 976 q 542 987 546 982 q 534 993 539 992 q 521 994 529 994 q 499 989 506 994 q 488 967 493 983 l 200 136 q 44 43 168 46 l 44 0 m 313 1129 q 333 1079 313 1101 q 385 1057 354 1057 q 435 1078 413 1057 q 458 1129 458 1099 q 435 1181 458 1160 q 385 1203 413 1203 q 333 1181 354 1203 q 313 1129 313 1158 m 324 360 l 479 811 l 636 360 l 324 360 m 582 1129 q 605 1078 582 1099 q 656 1057 628 1057 q 707 1079 686 1057 q 728 1131 728 1101 q 707 1181 728 1158 q 654 1203 686 1203 q 603 1182 625 1203 q 582 1129 582 1161 "},"":{"ha":1042,"x_min":44,"x_max":996,"o":"m 44 0 q 182 4 114 4 q 344 0 264 4 l 344 43 q 266 66 290 44 q 242 113 242 88 q 252 156 242 124 q 281 239 263 189 q 307 317 299 289 l 651 317 q 726 88 726 99 q 617 43 726 43 l 614 43 l 614 0 q 818 4 717 4 q 996 0 907 4 l 996 43 l 990 43 q 885 55 906 43 q 844 125 865 67 l 553 968 q 653 1117 653 1007 q 615 1222 653 1176 q 519 1268 578 1268 q 424 1222 460 1268 q 388 1117 388 1175 q 488 968 388 1007 q 472 923 483 953 q 457 878 461 893 l 210 168 q 190 119 197 133 q 166 83 183 104 q 119 53 149 61 q 44 43 89 44 l 44 0 m 322 360 l 479 811 l 636 360 l 322 360 m 422 1118 q 451 1211 422 1185 q 519 1238 481 1238 q 588 1211 558 1238 q 618 1115 618 1185 q 589 1022 618 1049 q 521 996 560 996 q 452 1022 482 996 q 422 1118 422 1049 "},"":{"ha":1254,"x_min":44,"x_max":1214,"o":"m 44 0 q 183 4 128 4 q 344 0 264 4 l 344 43 q 267 67 290 46 q 243 113 243 88 q 266 189 243 122 q 319 340 289 256 q 354 435 350 424 l 578 435 l 578 99 q 558 53 576 63 q 482 43 540 43 l 471 43 l 471 0 l 1156 0 l 1214 358 l 1179 358 q 1165 276 1169 303 q 1148 207 1160 249 q 1124 147 1136 165 q 1092 103 1113 128 q 1044 69 1071 79 q 978 51 1017 58 q 890 43 940 43 l 765 43 q 710 52 725 43 q 693 94 694 61 l 693 435 l 797 435 q 920 408 886 435 q 954 288 954 382 l 954 272 l 989 272 l 989 639 l 954 639 q 950 567 954 590 q 932 517 946 536 q 894 490 918 497 q 850 480 869 482 q 797 478 831 478 l 693 478 l 693 851 q 705 894 693 882 q 761 907 717 907 q 774 906 767 907 q 785 906 782 906 l 882 906 q 974 900 936 906 q 1038 878 1011 894 q 1082 844 1065 861 q 1110 791 1099 826 q 1127 724 1121 756 q 1140 636 1133 693 l 1176 636 l 1138 949 l 358 949 l 358 906 l 478 904 l 213 168 q 193 119 201 135 q 167 83 185 104 q 119 53 149 63 q 44 43 89 44 l 44 0 m 369 478 l 522 901 q 555 893 543 899 q 572 877 567 888 q 577 858 576 867 q 578 832 578 850 l 578 478 l 369 478 "},"":{"ha":1003,"x_min":76,"x_max":925,"o":"m 76 475 q 199 140 76 285 q 515 -28 321 -6 l 515 -99 q 603 -124 578 -101 q 629 -176 629 -147 q 574 -236 629 -221 q 415 -251 518 -251 l 399 -251 l 399 -283 l 418 -283 q 653 -260 578 -283 q 728 -175 728 -236 q 700 -115 728 -139 q 652 -84 672 -90 q 613 -75 632 -78 l 613 -28 q 764 31 699 -12 q 862 128 829 74 q 910 231 894 182 q 925 318 925 279 q 908 347 925 347 q 899 346 903 347 q 894 342 896 344 q 892 336 893 340 q 890 329 890 332 q 890 321 890 326 q 889 313 889 315 q 790 99 878 186 q 578 13 701 13 q 495 22 538 13 q 401 63 453 32 q 311 143 350 94 q 246 277 272 192 q 219 474 219 363 q 264 725 219 624 q 389 877 304 818 q 575 936 474 936 q 738 881 665 936 q 850 725 810 825 q 870 660 863 693 q 881 610 878 626 q 888 589 883 593 q 903 583 896 583 q 925 611 925 583 l 925 947 q 913 976 925 972 q 910 978 911 976 l 908 978 q 817 860 892 978 q 561 979 706 979 q 222 834 367 979 q 76 475 76 689 "},"":{"ha":944,"x_min":46,"x_max":906,"o":"m 325 1146 q 329 1124 325 1133 q 345 1109 333 1115 q 362 1101 357 1103 q 383 1094 367 1100 q 590 1031 581 1033 l 606 1063 q 409 1184 432 1171 q 372 1197 386 1197 q 338 1181 351 1197 q 325 1146 325 1164 m 46 0 l 847 0 l 906 358 l 871 358 q 853 260 861 297 q 830 182 844 222 q 794 119 815 142 q 743 78 774 97 q 669 51 713 58 q 565 43 625 43 l 381 43 q 323 53 333 43 q 313 99 313 63 l 313 469 l 438 469 q 560 435 533 469 q 588 307 588 401 l 622 307 l 622 675 l 588 675 q 560 546 588 579 q 438 513 533 513 l 313 513 l 313 846 q 323 892 313 882 q 381 901 333 901 l 560 901 q 688 888 639 901 q 767 838 738 874 q 810 757 797 803 q 832 632 822 711 l 867 632 l 828 944 l 46 944 l 46 901 l 79 901 q 172 889 154 901 q 189 836 189 876 l 189 108 q 172 56 189 68 q 79 43 154 43 l 46 43 l 46 0 "},"":{"ha":944,"x_min":46,"x_max":906,"o":"m 417 1063 l 431 1031 q 639 1094 450 1036 q 697 1146 697 1106 q 683 1181 697 1164 q 650 1197 669 1197 q 639 1196 643 1197 q 417 1063 625 1192 m 46 0 l 847 0 l 906 358 l 871 358 q 853 260 861 297 q 830 182 844 222 q 794 119 815 142 q 743 78 774 97 q 669 51 713 58 q 565 43 625 43 l 381 43 q 323 53 333 43 q 313 99 313 63 l 313 469 l 438 469 q 560 435 533 469 q 588 307 588 401 l 622 307 l 622 675 l 588 675 q 560 546 588 579 q 438 513 533 513 l 313 513 l 313 846 q 323 892 313 882 q 381 901 333 901 l 560 901 q 688 888 639 901 q 767 838 738 874 q 810 757 797 803 q 832 632 822 711 l 867 632 l 828 944 l 46 944 l 46 901 l 79 901 q 172 889 154 901 q 189 836 189 876 l 189 108 q 172 56 189 68 q 79 43 154 43 l 46 43 l 46 0 "},"":{"ha":944,"x_min":46,"x_max":906,"o":"m 46 0 l 847 0 l 906 358 l 871 358 q 853 260 861 297 q 830 182 844 222 q 794 119 815 142 q 743 78 774 97 q 669 51 713 58 q 565 43 625 43 l 381 43 q 323 53 333 43 q 313 99 313 63 l 313 469 l 438 469 q 560 435 533 469 q 588 307 588 401 l 622 307 l 622 675 l 588 675 q 560 546 588 579 q 438 513 533 513 l 313 513 l 313 846 q 323 892 313 882 q 381 901 333 901 l 560 901 q 688 888 639 901 q 767 838 738 874 q 810 757 797 803 q 832 632 822 711 l 867 632 l 828 944 l 46 944 l 46 901 l 79 901 q 172 889 154 901 q 189 836 189 876 l 189 108 q 172 56 189 68 q 79 43 154 43 l 46 43 l 46 0 m 296 1057 l 321 1033 l 322 1033 l 482 1179 l 483 1179 l 643 1033 l 668 1057 l 483 1253 l 482 1253 l 296 1057 "},"":{"ha":944,"x_min":46,"x_max":906,"o":"m 274 1129 q 294 1078 274 1100 q 346 1057 314 1057 q 397 1078 374 1057 q 419 1129 419 1099 q 397 1181 419 1160 q 346 1203 374 1203 q 295 1182 317 1203 q 274 1129 274 1161 m 543 1129 q 564 1078 543 1100 q 617 1057 585 1057 q 667 1078 644 1057 q 689 1129 689 1099 q 667 1182 689 1161 q 617 1203 646 1203 q 565 1182 588 1203 q 543 1129 543 1161 m 46 0 l 847 0 l 906 358 l 871 358 q 853 260 861 297 q 830 182 844 222 q 794 119 815 142 q 743 78 774 97 q 669 51 713 58 q 565 43 625 43 l 381 43 q 323 53 333 43 q 313 99 313 63 l 313 469 l 438 469 q 560 435 533 469 q 588 307 588 401 l 622 307 l 622 675 l 588 675 q 560 546 588 579 q 438 513 533 513 l 313 513 l 313 846 q 323 892 313 882 q 381 901 333 901 l 560 901 q 688 888 639 901 q 767 838 738 874 q 810 757 797 803 q 832 632 822 711 l 867 632 l 828 944 l 46 944 l 46 901 l 79 901 q 172 889 154 901 q 189 836 189 876 l 189 108 q 172 56 189 68 q 79 43 154 43 l 46 43 l 46 0 "},"":{"ha":501,"x_min":39,"x_max":463,"o":"m 39 0 q 250 4 88 4 q 463 0 414 4 l 463 43 l 426 43 q 331 56 349 43 q 313 108 313 68 l 313 840 q 331 893 313 881 q 426 906 349 906 l 463 906 l 463 949 q 251 944 414 944 q 39 949 88 944 l 39 906 l 75 906 q 171 893 153 906 q 189 840 189 881 l 189 108 q 171 56 189 68 q 75 43 153 43 l 39 43 l 39 0 m 74 1146 q 84 1118 74 1129 q 104 1103 94 1107 q 133 1093 114 1099 q 339 1029 326 1032 l 353 1063 q 160 1182 186 1167 q 124 1197 135 1197 l 121 1197 q 87 1181 100 1197 q 74 1146 74 1164 "},"":{"ha":501,"x_min":39,"x_max":463,"o":"m 39 0 q 250 4 88 4 q 463 0 414 4 l 463 43 l 426 43 q 331 56 349 43 q 313 108 313 68 l 313 840 q 331 893 313 881 q 426 906 349 906 l 463 906 l 463 949 q 251 944 414 944 q 39 949 88 944 l 39 906 l 75 906 q 171 893 153 906 q 189 840 189 881 l 189 108 q 171 56 189 68 q 75 43 153 43 l 39 43 l 39 0 m 113 1063 l 128 1029 q 333 1093 140 1032 q 362 1102 353 1099 q 381 1117 371 1106 q 392 1146 392 1129 q 378 1181 392 1164 q 344 1197 365 1197 q 219 1129 328 1197 q 113 1063 157 1090 "},"":{"ha":501,"x_min":39,"x_max":463,"o":"m 39 0 q 250 4 88 4 q 463 0 414 4 l 463 43 l 426 43 q 331 56 349 43 q 313 108 313 68 l 313 840 q 331 893 313 881 q 426 906 349 906 l 463 906 l 463 949 q 251 944 414 944 q 39 949 88 944 l 39 906 l 75 906 q 171 893 153 906 q 189 840 189 881 l 189 108 q 171 56 189 68 q 75 43 153 43 l 39 43 l 39 0 m 64 1058 l 89 1033 l 249 1179 l 250 1179 l 410 1033 l 435 1057 l 250 1253 l 249 1253 l 64 1058 "},"":{"ha":501,"x_min":39,"x_max":463,"o":"m 39 0 q 250 4 88 4 q 463 0 414 4 l 463 43 l 426 43 q 331 56 349 43 q 313 108 313 68 l 313 840 q 331 893 313 881 q 426 906 349 906 l 463 906 l 463 949 q 251 944 414 944 q 39 949 88 944 l 39 906 l 75 906 q 171 893 153 906 q 189 840 189 881 l 189 108 q 171 56 189 68 q 75 43 153 43 l 39 43 l 39 0 m 42 1129 q 63 1078 42 1100 q 115 1057 83 1057 q 165 1078 143 1057 q 188 1129 188 1099 q 166 1182 188 1161 q 115 1203 144 1203 q 64 1182 86 1203 q 42 1129 42 1161 m 311 1129 q 332 1078 311 1100 q 385 1057 353 1057 q 435 1078 413 1057 q 457 1129 457 1099 q 434 1181 457 1160 q 383 1203 411 1203 q 333 1182 354 1203 q 311 1129 311 1161 "},"":{"ha":1061,"x_min":47,"x_max":982,"o":"m 47 0 l 536 0 q 604 3 582 0 q 874 155 767 22 q 982 467 982 288 q 923 711 982 596 q 761 890 864 826 q 529 949 668 949 l 47 949 l 47 906 l 63 906 q 167 894 144 906 q 190 843 190 883 l 190 486 q 154 487 178 486 q 118 488 131 488 q 100 487 111 488 q 82 486 89 486 q 49 467 49 486 l 49 460 q 63 446 53 449 q 117 443 74 443 q 153 444 129 443 q 190 444 178 444 l 190 106 q 167 54 190 65 q 63 43 144 43 l 47 43 l 47 0 m 311 93 l 311 444 l 540 444 q 572 465 572 447 q 542 486 572 483 l 311 486 l 311 856 q 328 899 313 890 q 394 907 344 907 l 408 907 q 447 906 422 907 q 486 906 472 906 l 510 906 q 771 778 682 906 q 843 469 843 675 q 775 174 843 272 q 510 43 688 43 l 408 43 q 328 50 343 43 q 311 93 313 57 "},"":{"ha":1042,"x_min":46,"x_max":994,"o":"m 250 1143 l 274 1121 q 389 1174 329 1174 q 513 1147 426 1174 q 638 1121 599 1121 q 668 1123 654 1121 q 695 1132 682 1125 q 716 1142 708 1139 q 737 1159 724 1146 q 754 1176 750 1172 q 773 1197 758 1179 q 790 1217 788 1214 l 767 1239 q 651 1186 711 1186 q 526 1212 613 1186 q 403 1238 440 1238 q 376 1235 389 1238 q 353 1230 363 1232 q 331 1220 343 1228 q 314 1209 319 1213 q 297 1194 308 1206 q 281 1178 285 1182 q 265 1160 278 1175 q 250 1143 253 1146 m 46 0 q 208 4 192 4 q 371 0 225 4 l 371 43 q 289 53 321 43 q 245 81 257 63 q 231 113 233 100 q 228 146 228 125 l 228 868 q 242 851 236 860 l 808 18 q 832 0 822 0 q 849 7 846 0 q 851 36 851 14 l 851 803 q 854 836 851 824 q 869 867 857 849 q 913 896 881 886 q 994 906 944 906 l 994 949 q 832 944 849 944 q 669 949 815 944 l 669 906 q 751 896 719 906 q 795 867 783 886 q 810 836 807 849 q 813 803 813 824 l 813 210 l 322 931 q 307 946 313 943 q 282 949 301 949 l 46 949 l 46 906 l 86 906 q 156 903 114 906 q 184 895 179 900 q 189 871 189 890 l 189 146 q 186 113 189 125 q 172 81 183 100 q 128 53 160 63 q 46 43 96 43 l 46 0 "},"":{"ha":1079,"x_min":78,"x_max":1001,"o":"m 382 1146 q 386 1124 382 1133 q 402 1109 390 1115 q 419 1101 414 1103 q 440 1094 424 1100 q 647 1031 638 1033 l 663 1063 q 466 1184 489 1171 q 429 1197 443 1197 q 395 1181 408 1197 q 382 1146 382 1164 m 78 471 q 215 115 78 260 q 539 -31 351 -31 q 865 115 729 -31 q 1001 471 1001 261 q 865 831 1001 682 q 539 979 729 979 q 214 831 350 979 q 78 471 78 683 m 221 490 q 253 712 221 618 q 338 853 286 806 q 440 923 389 901 q 539 944 490 944 q 619 932 578 944 q 703 887 660 919 q 781 805 747 854 q 837 674 815 756 q 858 490 858 592 q 827 260 858 360 q 747 108 796 161 q 645 31 697 56 q 540 6 593 6 q 433 31 486 6 q 331 110 381 57 q 251 263 282 164 q 221 490 221 361 "},"":{"ha":1079,"x_min":78,"x_max":1001,"o":"m 417 1063 l 431 1031 q 639 1094 450 1036 q 697 1146 697 1106 q 683 1181 697 1164 q 650 1197 669 1197 q 639 1196 643 1197 q 417 1063 625 1192 m 78 471 q 215 115 78 260 q 539 -31 351 -31 q 865 115 729 -31 q 1001 471 1001 261 q 865 831 1001 682 q 539 979 729 979 q 214 831 350 979 q 78 471 78 683 m 221 490 q 253 712 221 618 q 338 853 286 806 q 440 923 389 901 q 539 944 490 944 q 619 932 578 944 q 703 887 660 919 q 781 805 747 854 q 837 674 815 756 q 858 490 858 592 q 827 260 858 360 q 747 108 796 161 q 645 31 697 56 q 540 6 593 6 q 433 31 486 6 q 331 110 381 57 q 251 263 282 164 q 221 490 221 361 "},"":{"ha":1079,"x_min":78,"x_max":1001,"o":"m 78 471 q 215 115 78 260 q 539 -31 351 -31 q 865 115 729 -31 q 1001 471 1001 261 q 865 831 1001 682 q 539 979 729 979 q 214 831 350 979 q 78 471 78 683 m 221 490 q 253 712 221 618 q 338 853 286 806 q 440 923 389 901 q 539 944 490 944 q 619 932 578 944 q 703 887 660 919 q 781 805 747 854 q 837 674 815 756 q 858 490 858 592 q 827 260 858 360 q 747 108 796 161 q 645 31 697 56 q 540 6 593 6 q 433 31 486 6 q 331 110 381 57 q 251 263 282 164 q 221 490 221 361 m 354 1057 l 378 1033 l 379 1033 l 539 1179 l 540 1179 l 700 1033 l 701 1033 l 725 1057 l 725 1058 l 540 1253 l 539 1253 l 354 1058 l 354 1057 "},"":{"ha":1079,"x_min":78,"x_max":1001,"o":"m 78 471 q 215 115 78 260 q 539 -31 351 -31 q 865 115 729 -31 q 1001 471 1001 261 q 865 831 1001 682 q 539 979 729 979 q 214 831 350 979 q 78 471 78 683 m 221 490 q 253 712 221 618 q 338 853 286 806 q 440 923 389 901 q 539 944 490 944 q 619 932 578 944 q 703 887 660 919 q 781 805 747 854 q 837 674 815 756 q 858 490 858 592 q 827 260 858 360 q 747 108 796 161 q 645 31 697 56 q 540 6 593 6 q 433 31 486 6 q 331 110 381 57 q 251 263 282 164 q 221 490 221 361 m 269 1142 l 293 1121 q 408 1174 349 1174 q 532 1147 450 1174 q 656 1121 614 1121 q 686 1123 672 1121 q 713 1132 700 1125 q 734 1142 726 1139 q 755 1159 742 1146 q 772 1176 768 1172 q 791 1197 776 1179 q 808 1217 806 1214 l 785 1238 q 731 1197 756 1208 q 671 1185 707 1185 q 546 1211 628 1185 q 422 1238 464 1238 q 392 1235 406 1238 q 365 1226 378 1233 q 344 1216 351 1219 q 323 1199 336 1213 q 306 1183 310 1186 q 287 1162 301 1179 q 269 1142 272 1144 "},"":{"ha":1079,"x_min":78,"x_max":1001,"o":"m 78 471 q 215 115 78 260 q 539 -31 351 -31 q 865 115 729 -31 q 1001 471 1001 261 q 865 831 1001 682 q 539 979 729 979 q 214 831 350 979 q 78 471 78 683 m 221 490 q 253 712 221 618 q 338 853 286 806 q 440 923 389 901 q 539 944 490 944 q 619 932 578 944 q 703 887 660 919 q 781 805 747 854 q 837 674 815 756 q 858 490 858 592 q 827 260 858 360 q 747 108 796 161 q 645 31 697 56 q 540 6 593 6 q 433 31 486 6 q 331 110 381 57 q 251 263 282 164 q 221 490 221 361 m 332 1129 q 353 1078 332 1100 q 406 1057 374 1057 q 456 1078 433 1057 q 478 1129 478 1099 q 456 1182 478 1161 q 406 1203 435 1203 q 354 1182 376 1203 q 332 1129 332 1161 m 601 1129 q 622 1078 601 1100 q 675 1057 643 1057 q 725 1078 703 1057 q 747 1129 747 1099 q 724 1181 747 1160 q 674 1203 701 1203 q 623 1182 644 1203 q 601 1129 601 1161 "},"":{"ha":1081,"x_min":206,"x_max":872,"o":"m 206 654 q 210 642 206 649 q 217 631 214 635 q 229 619 221 626 q 239 610 238 611 l 500 347 q 235 84 264 114 q 207 40 207 54 q 215 22 207 29 q 232 14 222 14 q 244 18 238 14 q 256 26 251 22 q 269 37 261 29 q 279 47 276 44 l 539 308 l 806 42 q 847 14 833 14 q 865 22 858 14 q 872 38 872 29 q 842 85 872 54 l 579 347 q 842 608 810 575 q 872 656 874 642 q 866 672 872 664 q 847 681 860 681 q 807 653 835 681 l 540 386 l 274 653 q 233 681 246 681 l 229 681 q 214 673 222 681 q 206 654 206 665 "},"":{"ha":1081,"x_min":76,"x_max":1001,"o":"m 76 471 q 97 317 76 389 q 153 195 118 244 q 208 123 188 146 q 250 81 228 100 l 156 -58 l 185 -78 l 276 57 q 539 -31 399 -31 q 864 113 726 -31 q 1001 471 1001 257 q 956 691 1001 588 q 829 868 911 794 l 829 869 l 922 1007 l 893 1026 l 801 890 q 539 979 682 979 q 214 832 351 979 q 76 471 76 685 m 201 469 q 263 775 201 664 q 372 897 301 846 q 539 949 443 949 q 768 843 665 949 l 285 133 q 246 201 261 169 q 216 304 231 232 q 201 469 201 376 m 310 104 l 310 106 l 792 814 q 831 745 817 775 q 862 641 846 715 q 878 472 878 567 q 821 181 878 289 q 708 53 781 104 q 539 1 636 1 q 310 104 413 1 "},"":{"ha":1042,"x_min":46,"x_max":994,"o":"m 363 1146 q 367 1124 363 1133 q 383 1109 371 1115 q 399 1101 394 1103 q 421 1094 404 1100 q 628 1031 618 1033 l 643 1063 q 447 1184 469 1171 q 410 1197 424 1197 q 376 1181 389 1197 q 363 1146 363 1164 m 46 906 l 79 906 q 172 893 154 906 q 189 840 189 881 l 189 317 q 292 70 189 171 q 539 -31 396 -31 q 743 53 657 -31 q 847 257 829 136 q 851 353 851 285 l 851 797 q 854 835 851 821 q 869 868 857 849 q 913 897 881 888 q 994 906 944 906 l 994 949 q 831 944 844 944 q 665 949 815 944 l 665 906 q 747 896 715 906 q 791 867 779 886 q 806 836 803 849 q 808 803 808 824 l 808 321 q 728 97 808 181 q 542 13 647 13 q 477 23 510 13 q 404 62 444 33 q 338 154 364 90 q 313 311 313 218 l 313 840 q 330 893 313 881 q 422 906 347 906 l 456 906 l 456 949 q 251 944 407 944 q 46 949 94 944 l 46 906 "},"":{"ha":1042,"x_min":46,"x_max":994,"o":"m 456 1063 l 469 1031 q 678 1094 489 1036 q 736 1146 736 1106 q 722 1181 736 1164 q 689 1197 708 1197 q 678 1196 682 1197 q 456 1063 664 1192 m 46 906 l 79 906 q 172 893 154 906 q 189 840 189 881 l 189 317 q 292 70 189 171 q 539 -31 396 -31 q 743 53 657 -31 q 847 257 829 136 q 851 353 851 285 l 851 797 q 854 835 851 821 q 869 868 857 849 q 913 897 881 888 q 994 906 944 906 l 994 949 q 831 944 844 944 q 665 949 815 944 l 665 906 q 747 896 715 906 q 791 867 779 886 q 806 836 803 849 q 808 803 808 824 l 808 321 q 728 97 808 181 q 542 13 647 13 q 477 23 510 13 q 404 62 444 33 q 338 154 364 90 q 313 311 313 218 l 313 840 q 330 893 313 881 q 422 906 347 906 l 456 906 l 456 949 q 251 944 407 944 q 46 949 94 944 l 46 906 "},"":{"ha":1042,"x_min":46,"x_max":994,"o":"m 46 906 l 79 906 q 172 893 154 906 q 189 840 189 881 l 189 317 q 292 70 189 171 q 539 -31 396 -31 q 743 53 657 -31 q 847 257 829 136 q 851 353 851 285 l 851 797 q 854 835 851 821 q 869 868 857 849 q 913 897 881 888 q 994 906 944 906 l 994 949 q 831 944 844 944 q 665 949 815 944 l 665 906 q 747 896 715 906 q 791 867 779 886 q 806 836 803 849 q 808 803 808 824 l 808 321 q 728 97 808 181 q 542 13 647 13 q 477 23 510 13 q 404 62 444 33 q 338 154 364 90 q 313 311 313 218 l 313 840 q 330 893 313 881 q 422 906 347 906 l 456 906 l 456 949 q 251 944 407 944 q 46 949 94 944 l 46 906 m 356 1057 l 379 1033 l 381 1033 l 540 1179 l 542 1179 l 701 1033 l 703 1033 l 726 1057 l 542 1253 l 540 1253 l 356 1057 "},"":{"ha":1042,"x_min":46,"x_max":994,"o":"m 46 906 l 79 906 q 172 893 154 906 q 189 840 189 881 l 189 317 q 292 70 189 171 q 539 -31 396 -31 q 743 53 657 -31 q 847 257 829 136 q 851 353 851 285 l 851 797 q 854 835 851 821 q 869 868 857 849 q 913 897 881 888 q 994 906 944 906 l 994 949 q 831 944 844 944 q 665 949 815 944 l 665 906 q 747 896 715 906 q 791 867 779 886 q 806 836 803 849 q 808 803 808 824 l 808 321 q 728 97 808 181 q 542 13 647 13 q 477 23 510 13 q 404 62 444 33 q 338 154 364 90 q 313 311 313 218 l 313 840 q 330 893 313 881 q 422 906 347 906 l 456 906 l 456 949 q 251 944 407 944 q 46 949 94 944 l 46 906 m 313 1129 q 333 1079 313 1101 q 385 1057 354 1057 q 435 1078 413 1057 q 458 1129 458 1099 q 435 1181 458 1160 q 385 1203 413 1203 q 333 1181 354 1203 q 313 1129 313 1158 m 582 1129 q 605 1078 582 1099 q 656 1057 628 1057 q 707 1079 686 1057 q 728 1131 728 1101 q 708 1181 728 1160 q 656 1203 688 1203 q 604 1182 626 1203 q 582 1129 582 1161 "},"":{"ha":1042,"x_min":15,"x_max":1025,"o":"m 454 1063 l 468 1031 q 676 1094 488 1036 q 735 1146 735 1106 q 721 1181 735 1164 q 688 1197 707 1197 q 676 1196 681 1197 q 454 1063 663 1192 m 15 906 l 40 906 q 111 899 86 906 q 146 884 136 893 q 168 854 156 875 l 460 379 l 460 108 q 442 56 460 68 q 350 43 425 43 l 317 43 l 317 0 q 519 4 367 4 q 722 0 672 4 l 722 43 l 690 43 q 597 56 614 43 q 579 111 579 68 l 579 379 l 847 815 q 1025 906 901 906 l 1025 949 q 889 944 961 944 q 729 949 838 944 l 729 906 q 789 890 769 906 q 808 851 808 875 q 794 810 808 831 l 565 438 l 314 847 q 304 871 304 861 q 327 899 304 892 q 401 906 350 906 l 401 949 q 196 944 351 944 q 15 949 103 944 l 15 906 "},"":{"ha":868,"x_min":49,"x_max":789,"o":"m 49 0 q 233 4 151 4 l 243 4 q 451 0 347 4 l 451 43 l 438 43 q 331 54 353 43 q 308 108 308 65 l 308 247 l 486 247 q 626 273 565 247 q 722 339 688 299 q 772 422 756 379 q 789 507 789 465 q 772 592 789 549 q 719 676 754 636 q 624 742 685 717 q 488 767 564 767 l 308 767 l 308 840 q 329 894 308 883 q 436 906 350 906 l 451 906 l 451 949 l 243 944 q 49 949 147 944 l 49 906 l 69 906 q 167 896 144 906 q 192 847 190 886 l 192 101 q 168 54 190 65 q 71 43 146 43 l 49 43 l 49 0 m 308 290 l 308 724 l 475 724 q 602 658 554 724 q 650 508 650 593 q 599 356 650 424 q 449 289 547 289 q 432 290 443 289 q 417 290 421 290 l 308 290 "},"":{"ha":694,"x_min":38,"x_max":647,"o":"m 38 0 l 138 3 l 207 3 l 239 0 l 239 779 q 245 858 239 826 q 280 919 251 890 q 360 947 308 947 q 504 769 504 947 q 500 697 504 726 q 492 653 496 667 q 477 631 488 639 q 464 622 467 622 q 451 619 461 621 q 379 596 408 615 q 338 548 350 576 q 320 497 325 519 q 315 450 315 474 q 392 296 315 347 q 456 273 414 281 q 511 258 497 265 q 560 213 540 243 q 579 140 579 182 q 550 51 579 85 q 467 17 521 17 q 390 58 415 17 q 358 157 365 100 q 350 217 351 214 q 326 226 342 235 q 315 190 315 221 l 315 17 q 332 -12 315 -12 q 375 22 344 -12 q 468 -15 414 -15 q 599 37 551 -15 q 647 176 647 89 q 609 300 647 251 q 524 365 571 349 q 493 372 515 368 q 456 382 471 376 q 422 399 440 388 q 394 432 404 410 q 385 488 385 454 q 401 554 385 529 q 430 585 417 579 q 456 592 443 590 q 473 594 469 593 q 493 605 476 594 q 517 632 510 615 q 531 685 524 649 q 539 772 539 721 q 485 932 539 885 q 354 979 432 979 q 279 969 314 979 q 213 938 244 960 q 164 872 182 915 q 146 769 146 829 l 146 597 l 38 597 l 38 556 l 146 556 l 146 107 q 130 54 146 65 q 49 43 114 43 l 38 43 l 38 0 "},"":{"ha":694,"x_min":58,"x_max":685,"o":"m 215 840 q 219 825 215 832 q 226 813 222 818 q 236 803 229 808 q 247 795 243 797 q 257 789 250 793 l 265 785 q 451 681 424 694 l 472 708 q 393 786 440 739 q 298 876 317 861 q 264 892 279 892 q 229 875 243 892 q 215 840 215 858 m 58 132 q 97 44 58 79 q 183 -3 136 10 q 281 -15 231 -15 q 394 19 346 -15 q 463 106 442 53 q 496 26 467 60 q 571 -8 525 -8 q 646 21 607 -8 q 685 124 685 50 l 685 201 l 650 201 l 650 124 q 600 35 650 35 q 567 52 579 35 q 551 83 554 69 q 549 104 549 96 l 549 382 q 547 441 549 421 q 534 492 546 461 q 499 546 522 522 q 308 622 422 622 q 160 578 221 622 q 99 465 99 533 q 117 417 99 435 q 163 400 135 400 q 209 418 192 400 q 226 464 226 436 q 212 506 226 485 q 156 528 197 526 q 306 592 204 592 q 408 546 363 592 q 453 414 453 500 l 453 363 q 197 313 281 353 q 58 132 58 250 m 165 133 q 232 267 165 206 q 453 333 299 328 l 453 194 q 401 60 453 106 q 290 15 349 15 q 202 49 239 15 q 165 133 165 82 "},"":{"ha":694,"x_min":58,"x_max":685,"o":"m 219 708 l 240 681 q 428 786 246 683 q 437 792 429 788 q 448 798 444 796 q 458 805 451 800 q 467 815 464 810 q 474 826 471 819 q 476 840 476 832 q 463 875 476 858 q 428 892 449 892 q 395 878 413 892 q 311 797 378 864 q 219 708 257 744 m 58 132 q 97 44 58 79 q 183 -3 136 10 q 281 -15 231 -15 q 394 19 346 -15 q 463 106 442 53 q 496 26 467 60 q 571 -8 525 -8 q 646 21 607 -8 q 685 124 685 50 l 685 201 l 650 201 l 650 124 q 600 35 650 35 q 567 52 579 35 q 551 83 554 69 q 549 104 549 96 l 549 382 q 547 441 549 421 q 534 492 546 461 q 499 546 522 522 q 308 622 422 622 q 160 578 221 622 q 99 465 99 533 q 117 417 99 435 q 163 400 135 400 q 209 418 192 400 q 226 464 226 436 q 212 506 226 485 q 156 528 197 526 q 306 592 204 592 q 408 546 363 592 q 453 414 453 500 l 453 363 q 197 313 281 353 q 58 132 58 250 m 165 133 q 232 267 165 206 q 453 333 299 328 l 453 194 q 401 60 453 106 q 290 15 349 15 q 202 49 239 15 q 165 133 165 82 "},"":{"ha":694,"x_min":58,"x_max":685,"o":"m 121 694 l 146 669 l 307 828 l 308 828 l 468 669 l 493 694 l 308 901 l 307 901 l 121 694 m 58 132 q 97 44 58 79 q 183 -3 136 10 q 281 -15 231 -15 q 394 19 346 -15 q 463 106 442 53 q 496 26 467 60 q 571 -8 525 -8 q 646 21 607 -8 q 685 124 685 50 l 685 201 l 650 201 l 650 124 q 600 35 650 35 q 567 52 579 35 q 551 83 554 69 q 549 104 549 96 l 549 382 q 547 441 549 421 q 534 492 546 461 q 499 546 522 522 q 308 622 422 622 q 160 578 221 622 q 99 465 99 533 q 117 417 99 435 q 163 400 135 400 q 209 418 192 400 q 226 464 226 436 q 212 506 226 485 q 156 528 197 526 q 306 592 204 592 q 408 546 363 592 q 453 414 453 500 l 453 363 q 197 313 281 353 q 58 132 58 250 m 165 133 q 232 267 165 206 q 453 333 299 328 l 453 194 q 401 60 453 106 q 290 15 349 15 q 202 49 239 15 q 165 133 165 82 "},"":{"ha":694,"x_min":58,"x_max":685,"o":"m 58 132 q 97 44 58 79 q 183 -3 136 10 q 281 -15 231 -15 q 394 19 346 -15 q 463 106 442 53 q 496 26 467 60 q 571 -8 525 -8 q 646 21 607 -8 q 685 124 685 50 l 685 201 l 650 201 l 650 124 q 600 35 650 35 q 567 52 579 35 q 551 83 554 69 q 549 104 549 96 l 549 382 q 547 441 549 421 q 534 492 546 461 q 499 546 522 522 q 308 622 422 622 q 160 578 221 622 q 99 465 99 533 q 117 417 99 435 q 163 400 135 400 q 209 418 192 400 q 226 464 226 436 q 212 506 226 485 q 156 528 197 526 q 306 592 204 592 q 408 546 363 592 q 453 414 453 500 l 453 363 q 197 313 281 353 q 58 132 58 250 m 165 133 q 232 267 165 206 q 453 333 299 328 l 453 194 q 401 60 453 106 q 290 15 349 15 q 202 49 239 15 q 165 133 165 82 "},"":{"ha":694,"x_min":58,"x_max":685,"o":"m 139 842 q 159 791 139 813 q 211 769 179 769 q 262 790 239 769 q 285 842 285 811 q 262 894 285 872 q 211 915 239 915 q 160 894 182 915 q 139 842 139 874 m 408 842 q 429 791 408 813 q 482 769 450 769 q 532 790 510 769 q 554 842 554 811 q 533 894 554 874 q 482 915 511 915 q 431 894 453 915 q 408 842 408 874 m 58 132 q 97 44 58 79 q 183 -3 136 10 q 281 -15 231 -15 q 394 19 346 -15 q 463 106 442 53 q 496 26 467 60 q 571 -8 525 -8 q 646 21 607 -8 q 685 124 685 50 l 685 201 l 650 201 l 650 124 q 600 35 650 35 q 567 52 579 35 q 551 83 554 69 q 549 104 549 96 l 549 382 q 547 441 549 421 q 534 492 546 461 q 499 546 522 522 q 308 622 422 622 q 160 578 221 622 q 99 465 99 533 q 117 417 99 435 q 163 400 135 400 q 209 418 192 400 q 226 464 226 436 q 212 506 226 485 q 156 528 197 526 q 306 592 204 592 q 408 546 363 592 q 453 414 453 500 l 453 363 q 197 313 281 353 q 58 132 58 250 m 165 133 q 232 267 165 206 q 453 333 299 328 l 453 194 q 401 60 453 106 q 290 15 349 15 q 202 49 239 15 q 165 133 165 82 "},"":{"ha":694,"x_min":58,"x_max":685,"o":"m 58 132 q 97 44 58 79 q 183 -3 136 10 q 281 -15 231 -15 q 394 19 346 -15 q 463 106 442 53 q 496 26 467 60 q 571 -8 525 -8 q 646 21 607 -8 q 685 124 685 50 l 685 201 l 650 201 l 650 124 q 600 35 650 35 q 567 52 579 35 q 551 83 554 69 q 549 104 549 96 l 549 382 q 547 441 549 421 q 534 492 546 461 q 499 546 522 522 q 308 622 422 622 q 160 578 221 622 q 99 465 99 533 q 117 417 99 435 q 163 400 135 400 q 209 418 192 400 q 226 464 226 436 q 212 506 226 485 q 156 528 197 526 q 306 592 204 592 q 408 546 363 592 q 453 414 453 500 l 453 363 q 197 313 281 353 q 58 132 58 250 m 165 133 q 232 267 165 206 q 453 333 299 328 l 453 194 q 401 60 453 106 q 290 15 349 15 q 202 49 239 15 q 165 133 165 82 m 175 806 q 216 725 175 756 q 308 694 257 694 q 403 728 365 694 q 440 806 440 763 q 399 887 440 856 q 307 918 358 918 q 213 884 250 918 q 175 806 175 850 m 310 886 q 406 806 406 886 q 306 725 406 725 q 210 806 210 725 q 310 886 210 886 "},"":{"ha":1003,"x_min":61,"x_max":964,"o":"m 61 128 q 99 42 61 76 q 183 -3 136 8 q 281 -15 229 -15 q 515 107 447 -15 q 747 -15 614 -15 q 891 40 835 -15 q 961 153 947 94 q 957 174 964 167 q 939 178 950 182 q 921 147 932 175 q 859 59 903 97 q 754 21 815 21 q 688 35 721 21 q 622 81 654 50 q 570 170 590 111 q 550 310 550 229 l 550 319 l 933 319 q 957 325 950 319 q 964 351 964 331 q 902 544 964 468 q 732 621 840 621 q 524 514 608 621 l 522 514 q 308 621 449 621 q 160 576 221 621 q 99 469 99 532 q 115 419 99 439 q 163 400 132 400 q 206 418 188 400 q 225 464 225 436 q 210 508 225 488 q 157 528 194 528 l 156 528 q 304 589 217 589 q 347 582 325 589 q 394 557 368 575 q 437 499 421 539 q 453 401 453 458 l 453 347 q 169 285 276 344 q 61 128 61 226 m 169 129 q 235 254 169 199 q 453 318 300 310 q 460 231 453 267 q 468 182 468 194 q 416 66 468 115 q 292 17 364 17 q 206 48 242 17 q 169 129 169 79 m 551 350 q 581 478 558 426 q 635 552 604 531 q 688 581 665 574 q 729 589 710 589 q 871 350 863 589 l 551 350 "},"":{"ha":617,"x_min":46,"x_max":576,"o":"m 46 300 q 117 96 46 185 q 299 -11 188 7 l 299 -99 q 386 -124 360 -101 q 413 -175 413 -147 q 226 -251 413 -251 l 182 -251 l 182 -283 l 200 -283 q 437 -260 363 -283 q 511 -175 511 -236 q 483 -115 511 -139 q 435 -84 456 -90 q 396 -75 415 -78 l 396 -11 q 473 18 439 -3 q 525 61 507 39 q 556 107 543 83 q 572 144 568 131 q 576 163 576 158 q 567 177 576 174 q 550 175 557 181 q 542 164 546 172 q 533 144 538 156 q 526 126 529 132 q 360 21 475 21 q 224 88 286 21 q 163 300 163 156 q 181 441 163 382 q 228 529 199 500 q 289 572 258 558 q 351 585 319 585 q 500 536 431 585 q 435 472 435 526 q 453 426 435 444 q 499 408 472 408 q 544 428 526 408 q 563 475 563 447 q 500 580 563 539 q 349 621 438 621 q 135 528 224 621 q 46 300 46 435 "},"":{"ha":617,"x_min":39,"x_max":576,"o":"m 215 840 q 219 825 215 832 q 226 813 222 818 q 236 803 229 808 q 247 795 243 797 q 257 789 250 793 l 265 785 q 451 681 424 694 l 472 708 q 393 786 440 739 q 298 876 317 861 q 264 892 279 892 q 229 875 243 892 q 215 840 215 858 m 39 306 q 131 77 39 169 q 344 -15 222 -15 q 451 9 403 -15 q 525 66 500 33 q 563 126 550 99 q 576 165 576 153 q 558 182 576 182 q 540 163 544 182 q 494 81 524 113 q 432 37 465 49 q 383 22 399 25 q 353 19 367 19 q 196 113 254 19 q 154 321 154 179 l 542 321 q 571 325 565 321 q 576 350 576 329 q 513 543 576 464 q 328 622 450 622 q 123 529 207 622 q 39 306 39 436 m 156 350 q 178 474 158 422 q 228 549 199 526 q 281 582 257 572 q 328 592 306 592 q 412 563 378 592 q 460 490 446 535 q 480 412 475 444 q 485 350 485 379 l 156 350 "},"":{"ha":617,"x_min":39,"x_max":576,"o":"m 181 708 l 201 681 q 389 786 207 683 q 398 792 390 788 q 409 798 406 796 q 419 805 413 800 q 428 815 425 810 q 435 826 432 819 q 438 840 438 832 q 424 875 438 858 q 389 892 410 892 q 356 878 374 892 q 272 797 339 864 q 181 708 218 744 m 39 306 q 131 77 39 169 q 344 -15 222 -15 q 451 9 403 -15 q 525 66 500 33 q 563 126 550 99 q 576 165 576 153 q 558 182 576 182 q 540 163 544 182 q 494 81 524 113 q 432 37 465 49 q 383 22 399 25 q 353 19 367 19 q 196 113 254 19 q 154 321 154 179 l 542 321 q 571 325 565 321 q 576 350 576 329 q 513 543 576 464 q 328 622 450 622 q 123 529 207 622 q 39 306 39 436 m 156 350 q 178 474 158 422 q 228 549 199 526 q 281 582 257 572 q 328 592 306 592 q 412 563 378 592 q 460 490 446 535 q 480 412 475 444 q 485 350 485 379 l 156 350 "},"":{"ha":617,"x_min":39,"x_max":576,"o":"m 121 694 l 146 669 l 307 828 l 308 828 l 468 669 l 493 694 l 308 901 l 307 901 l 121 694 m 39 306 q 131 77 39 169 q 344 -15 222 -15 q 451 9 403 -15 q 525 66 500 33 q 563 126 550 99 q 576 165 576 153 q 558 182 576 182 q 540 163 544 182 q 494 81 524 113 q 432 37 465 49 q 383 22 399 25 q 353 19 367 19 q 196 113 254 19 q 154 321 154 179 l 542 321 q 571 325 565 321 q 576 350 576 329 q 513 543 576 464 q 328 622 450 622 q 123 529 207 622 q 39 306 39 436 m 156 350 q 178 474 158 422 q 228 549 199 526 q 281 582 257 572 q 328 592 306 592 q 412 563 378 592 q 460 490 446 535 q 480 412 475 444 q 485 350 485 379 l 156 350 "},"":{"ha":617,"x_min":39,"x_max":576,"o":"m 100 842 q 120 791 100 813 q 172 769 140 769 q 223 790 200 769 q 246 842 246 811 q 223 894 246 872 q 172 915 200 915 q 122 894 143 915 q 100 842 100 874 m 369 842 q 390 791 369 813 q 443 769 411 769 q 493 790 471 769 q 515 842 515 811 q 494 894 515 874 q 443 915 472 915 q 392 894 414 915 q 369 842 369 874 m 39 306 q 131 77 39 169 q 344 -15 222 -15 q 451 9 403 -15 q 525 66 500 33 q 563 126 550 99 q 576 165 576 153 q 558 182 576 182 q 540 163 544 182 q 494 81 524 113 q 432 37 465 49 q 383 22 399 25 q 353 19 367 19 q 196 113 254 19 q 154 321 154 179 l 542 321 q 571 325 565 321 q 576 350 576 329 q 513 543 576 464 q 328 622 450 622 q 123 529 207 622 q 39 306 39 436 m 156 350 q 178 474 158 422 q 228 549 199 526 q 281 582 257 572 q 328 592 306 592 q 412 563 378 592 q 460 490 446 535 q 480 412 475 444 q 485 350 485 379 l 156 350 "},"":{"ha":385,"x_min":-6,"x_max":346,"o":"m -6 840 q -2 825 -6 832 q 5 813 1 818 q 15 803 8 808 q 26 795 22 797 q 36 789 29 793 l 44 785 q 231 681 203 694 l 251 708 q 172 786 219 739 q 77 876 96 861 q 43 892 58 892 q 8 875 22 892 q -6 840 -6 858 m 49 0 q 201 4 182 4 q 346 0 204 4 l 346 43 q 263 53 278 43 q 249 104 249 63 l 249 614 l 54 599 l 54 556 q 140 543 122 556 q 157 479 157 531 l 157 106 q 140 52 157 61 q 49 43 122 43 l 49 0 "},"":{"ha":385,"x_min":46,"x_max":368,"o":"m 46 0 q 199 4 179 4 q 343 0 201 4 l 343 43 q 260 53 275 43 q 246 104 246 63 l 246 614 l 51 599 l 51 556 q 137 543 119 556 q 154 479 154 531 l 154 106 q 137 52 154 61 q 46 43 119 43 l 46 0 m 111 708 l 132 681 q 319 786 138 683 q 335 794 331 792 q 349 803 339 796 q 364 820 360 811 q 368 840 368 829 q 354 875 368 858 q 319 892 340 892 q 288 878 304 892 q 204 799 272 865 q 111 708 149 746 "},"":{"ha":385,"x_min":14,"x_max":386,"o":"m 14 694 l 39 669 l 200 828 l 201 828 l 361 669 l 386 694 l 201 901 l 200 901 l 14 694 m 47 0 q 200 4 181 4 q 344 0 203 4 l 344 43 q 262 53 276 43 q 247 104 247 63 l 247 614 l 53 599 l 53 556 q 138 543 121 556 q 156 479 156 531 l 156 106 q 138 52 156 61 q 47 43 121 43 l 47 0 "},"":{"ha":463,"x_min":29,"x_max":444,"o":"m 299 842 q 319 791 299 813 q 372 769 340 769 q 422 790 400 769 q 444 842 444 811 q 423 894 444 874 q 372 915 401 915 q 321 894 343 915 q 299 842 299 874 m 29 842 q 50 791 29 813 q 103 769 71 769 q 153 790 131 769 q 175 842 175 811 q 153 894 175 874 q 103 915 132 915 q 51 894 74 915 q 29 842 29 874 m 85 0 q 238 4 218 4 q 382 0 240 4 l 382 43 q 299 53 314 43 q 285 104 285 63 l 285 614 l 90 599 l 90 556 q 176 543 158 556 q 193 479 193 531 l 193 106 q 176 52 193 61 q 85 43 158 43 l 85 0 "},"":{"ha":694,"x_min":38,"x_max":654,"o":"m 38 296 q 129 74 38 164 q 346 -15 221 -15 q 560 70 465 -15 q 654 310 654 156 l 654 351 q 647 440 654 394 q 617 558 639 486 q 538 705 594 629 q 399 846 482 781 l 536 925 q 556 947 556 936 q 540 961 556 961 q 456 916 529 961 q 368 871 382 871 q 347 881 364 871 q 208 943 275 924 q 110 963 140 963 q 86 947 86 963 q 97 933 86 938 q 128 923 101 931 q 198 893 154 915 q 301 828 242 871 q 231 788 288 819 q 146 735 174 756 l 144 729 l 143 722 q 161 711 147 711 l 181 718 l 329 804 q 444 669 400 735 q 515 514 488 604 q 343 621 444 621 q 131 527 224 621 q 38 296 38 433 m 154 308 q 194 499 154 433 q 344 589 251 589 q 482 505 426 589 q 538 297 538 421 q 519 163 538 219 q 469 76 500 106 q 408 34 439 47 q 346 21 378 21 q 244 56 288 21 q 181 139 201 92 q 154 308 154 200 "},"":{"ha":771,"x_min":44,"x_max":743,"o":"m 44 0 q 201 4 190 4 q 357 0 215 4 l 357 43 q 266 52 283 43 q 249 106 249 61 l 249 361 q 306 523 249 463 q 436 583 364 583 q 517 542 496 583 q 539 429 539 500 l 539 106 q 522 52 539 61 q 431 43 504 43 l 431 0 q 588 4 576 4 q 743 0 601 4 l 743 43 q 658 49 681 43 q 635 85 636 56 l 635 350 q 628 489 635 450 q 592 563 622 528 q 446 614 550 614 q 240 468 306 614 l 240 614 l 44 599 l 44 556 q 135 542 117 556 q 153 478 153 529 l 153 106 q 135 52 153 61 q 44 43 118 43 l 44 0 "},"":{"ha":694,"x_min":39,"x_max":654,"o":"m 215 840 q 219 825 215 832 q 226 813 222 818 q 236 803 229 808 q 247 795 243 797 q 257 789 250 793 l 265 785 q 451 681 424 694 l 472 708 q 393 786 440 739 q 298 876 317 861 q 264 892 279 892 q 229 875 243 892 q 215 840 215 858 m 131 75 q 346 -15 222 -15 q 563 76 472 -15 q 654 297 654 167 q 564 526 654 431 q 347 622 474 622 q 128 526 218 622 q 39 297 39 429 q 85 120 39 165 q 131 75 131 75 m 154 308 q 188 499 154 438 q 258 568 214 544 q 346 592 301 592 q 503 501 449 592 q 539 308 539 442 q 508 122 539 183 q 442 47 485 75 q 347 19 399 19 q 189 113 243 19 q 154 308 154 174 "},"":{"ha":694,"x_min":39,"x_max":654,"o":"m 219 708 l 240 681 q 428 786 246 683 q 437 792 429 788 q 448 798 444 796 q 458 805 451 800 q 467 815 464 810 q 474 826 471 819 q 476 840 476 832 q 463 875 476 858 q 428 892 449 892 q 395 878 413 892 q 311 797 378 864 q 219 708 257 744 m 131 75 q 346 -15 222 -15 q 563 76 472 -15 q 654 297 654 167 q 564 526 654 431 q 347 622 474 622 q 128 526 218 622 q 39 297 39 429 q 85 120 39 165 q 131 75 131 75 m 154 308 q 188 499 154 438 q 258 568 214 544 q 346 592 301 592 q 503 501 449 592 q 539 308 539 442 q 508 122 539 183 q 442 47 485 75 q 347 19 399 19 q 189 113 243 19 q 154 308 154 174 "},"":{"ha":694,"x_min":39,"x_max":654,"o":"m 160 694 l 185 669 l 346 828 l 347 828 l 507 669 l 532 694 l 347 901 l 346 901 l 160 694 m 131 75 q 346 -15 222 -15 q 563 76 472 -15 q 654 297 654 167 q 564 526 654 431 q 347 622 474 622 q 128 526 218 622 q 39 297 39 429 q 85 120 39 165 q 131 75 131 75 m 154 308 q 188 499 154 438 q 258 568 214 544 q 346 592 301 592 q 503 501 449 592 q 539 308 539 442 q 508 122 539 183 q 442 47 485 75 q 347 19 399 19 q 189 113 243 19 q 154 308 154 174 "},"":{"ha":694,"x_min":39,"x_max":654,"o":"m 131 75 q 346 -15 222 -15 q 563 76 472 -15 q 654 297 654 167 q 564 526 654 431 q 347 622 474 622 q 128 526 218 622 q 39 297 39 429 q 85 120 39 165 q 131 75 131 75 m 154 308 q 188 499 154 438 q 258 568 214 544 q 346 592 301 592 q 503 501 449 592 q 539 308 539 442 q 508 122 539 183 q 442 47 485 75 q 347 19 399 19 q 189 113 243 19 q 154 308 154 174 "},"":{"ha":694,"x_min":39,"x_max":654,"o":"m 138 842 q 158 791 138 813 q 210 769 178 769 q 260 790 238 769 q 283 842 283 811 q 260 894 283 872 q 210 915 238 915 q 159 894 181 915 q 138 842 138 874 m 407 842 q 428 791 407 813 q 481 769 449 769 q 531 790 508 769 q 553 842 553 811 q 531 894 553 874 q 481 915 510 915 q 429 894 451 915 q 407 842 407 874 m 131 75 q 346 -15 222 -15 q 563 76 472 -15 q 654 297 654 167 q 564 526 654 431 q 347 622 474 622 q 128 526 218 622 q 39 297 39 429 q 85 120 39 165 q 131 75 131 75 m 154 308 q 188 499 154 438 q 258 568 214 544 q 346 592 301 592 q 503 501 449 592 q 539 308 539 442 q 508 122 539 183 q 442 47 485 75 q 347 19 399 19 q 189 113 243 19 q 154 308 154 174 "},"":{"ha":1081,"x_min":78,"x_max":1000,"o":"m 118 319 l 961 319 q 1000 347 1000 319 q 957 375 1000 375 l 122 375 q 78 347 78 375 q 118 319 78 319 m 451 49 q 476 -12 451 14 q 539 -39 501 -39 q 600 -14 574 -39 q 626 49 626 11 q 601 110 626 86 q 539 135 575 135 q 478 110 504 135 q 451 49 451 86 m 451 646 q 476 585 451 611 q 539 560 500 560 q 601 584 575 560 q 626 646 626 608 q 600 708 626 683 q 539 733 574 733 q 478 708 504 733 q 451 646 451 683 "},"":{"ha":694,"x_min":47,"x_max":644,"o":"m 47 296 q 81 150 47 218 q 178 39 115 82 l 82 -128 l 110 -143 l 204 22 q 346 -15 275 -15 q 556 74 467 -15 q 644 296 644 164 q 630 400 644 351 q 591 482 615 449 q 550 533 567 515 q 517 563 533 550 l 610 725 l 582 740 l 490 581 q 346 621 417 621 q 133 524 219 621 q 47 296 47 426 m 144 296 q 178 483 144 418 q 248 560 203 532 q 347 589 293 589 q 468 543 410 589 l 203 82 q 175 122 185 104 q 155 185 165 139 q 144 296 144 232 m 226 58 l 490 518 l 492 518 q 549 296 549 442 q 521 129 549 188 q 447 45 494 74 q 346 17 400 17 q 226 58 285 17 "},"":{"ha":771,"x_min":44,"x_max":743,"o":"m 242 840 q 245 825 242 832 q 252 813 249 818 q 263 803 256 808 q 273 795 269 797 q 283 789 276 793 l 292 785 q 478 681 450 694 l 499 708 q 419 786 467 739 q 324 876 343 861 q 290 892 306 892 q 256 875 269 892 q 242 840 242 858 m 44 556 q 139 539 125 556 q 153 428 153 522 l 153 219 q 154 152 153 175 q 167 92 156 129 q 199 35 178 54 q 261 0 219 15 q 364 -15 303 -15 q 543 110 485 -15 l 543 -15 l 743 0 l 743 43 q 653 56 671 43 q 635 121 635 69 l 635 614 l 431 599 l 431 556 q 521 542 503 556 q 539 478 539 529 l 539 231 q 492 77 539 139 q 371 15 446 15 q 303 26 329 15 q 265 58 276 36 q 251 100 254 81 q 249 153 249 119 l 249 614 l 44 599 l 44 556 "},"":{"ha":771,"x_min":44,"x_max":743,"o":"m 265 708 l 286 681 q 474 786 292 683 q 483 792 475 788 q 494 798 490 796 q 503 805 497 800 q 513 815 510 810 q 519 826 517 819 q 522 840 522 832 q 508 875 522 858 q 474 892 494 892 q 441 878 458 892 q 357 797 424 864 q 265 708 303 744 m 44 556 q 139 539 125 556 q 153 428 153 522 l 153 219 q 154 152 153 175 q 167 92 156 129 q 199 35 178 54 q 261 0 219 15 q 364 -15 303 -15 q 543 110 485 -15 l 543 -15 l 743 0 l 743 43 q 653 56 671 43 q 635 121 635 69 l 635 614 l 431 599 l 431 556 q 521 542 503 556 q 539 478 539 529 l 539 231 q 492 77 539 139 q 371 15 446 15 q 303 26 329 15 q 265 58 276 36 q 251 100 254 81 q 249 153 249 119 l 249 614 l 44 599 l 44 556 "},"":{"ha":771,"x_min":44,"x_max":743,"o":"m 206 694 l 231 669 l 392 828 l 393 828 l 553 669 l 578 694 l 393 901 l 392 901 l 206 694 m 44 556 q 139 539 125 556 q 153 428 153 522 l 153 219 q 154 152 153 175 q 167 92 156 129 q 199 35 178 54 q 261 0 219 15 q 364 -15 303 -15 q 543 110 485 -15 l 543 -15 l 743 0 l 743 43 q 653 56 671 43 q 635 121 635 69 l 635 614 l 431 599 l 431 556 q 521 542 503 556 q 539 478 539 529 l 539 231 q 492 77 539 139 q 371 15 446 15 q 303 26 329 15 q 265 58 276 36 q 251 100 254 81 q 249 153 249 119 l 249 614 l 44 599 l 44 556 "},"":{"ha":771,"x_min":44,"x_max":743,"o":"m 44 556 q 139 539 125 556 q 153 428 153 522 l 153 219 q 154 152 153 175 q 167 92 156 129 q 199 35 178 54 q 261 0 219 15 q 364 -15 303 -15 q 543 110 485 -15 l 543 -15 l 743 0 l 743 43 q 653 56 671 43 q 635 121 635 69 l 635 614 l 431 599 l 431 556 q 521 542 503 556 q 539 478 539 529 l 539 231 q 492 77 539 139 q 371 15 446 15 q 303 26 329 15 q 265 58 276 36 q 251 100 254 81 q 249 153 249 119 l 249 614 l 44 599 l 44 556 m 185 842 q 205 791 185 813 q 257 769 225 769 q 308 790 285 769 q 331 842 331 811 q 308 894 331 872 q 257 915 285 915 q 206 894 228 915 q 185 842 185 874 m 454 842 q 477 790 454 811 q 528 769 500 769 q 578 790 556 769 q 600 842 600 811 q 578 894 600 874 q 528 915 557 915 q 476 894 499 915 q 454 842 454 874 "},"":{"ha":732,"x_min":26,"x_max":706,"o":"m 317 708 l 338 681 q 525 786 343 683 q 534 792 526 788 q 545 798 542 796 q 555 805 549 800 q 565 815 561 810 q 571 826 568 819 q 574 840 574 832 q 560 875 574 858 q 525 892 546 892 q 492 878 510 892 q 408 797 475 864 q 317 708 354 744 m 26 -172 q 64 -252 26 -219 q 154 -285 101 -285 q 332 -126 265 -285 l 576 467 q 706 556 613 556 l 706 599 q 601 594 658 594 q 481 599 572 594 l 481 556 q 546 496 546 553 q 538 463 546 482 l 397 121 l 243 494 q 235 519 235 515 q 313 556 235 556 l 313 599 q 161 594 204 594 q 26 599 89 594 l 26 556 q 104 548 83 556 q 139 507 125 540 l 347 0 q 313 -82 332 -40 q 277 -164 292 -135 q 229 -224 263 -193 q 154 -254 196 -254 q 89 -229 115 -254 q 143 -171 143 -222 q 126 -128 143 -144 q 85 -112 110 -112 q 44 -128 61 -112 q 26 -172 26 -143 "},"":{"ha":771,"x_min":38,"x_max":724,"o":"m 38 -228 l 38 -271 q 183 -267 118 -267 l 189 -267 q 350 -271 269 -267 l 350 -228 l 342 -228 q 260 -217 278 -228 q 243 -164 243 -206 l 243 69 q 415 -15 317 -15 q 629 74 535 -15 q 724 300 724 164 q 637 522 724 432 q 432 613 550 613 q 239 522 314 613 l 239 979 l 38 964 l 38 921 q 124 909 101 921 q 146 847 146 897 l 146 -165 q 128 -217 146 -206 q 44 -228 110 -228 l 38 -228 m 243 160 l 243 438 q 244 465 243 461 q 304 538 254 499 q 419 578 354 578 q 554 496 500 578 q 608 299 608 414 q 550 99 608 182 q 406 17 492 17 q 294 62 346 17 q 243 160 243 107 "},"":{"ha":732,"x_min":26,"x_max":706,"o":"m 26 -172 q 64 -252 26 -219 q 154 -285 101 -285 q 332 -126 265 -285 l 576 467 q 706 556 613 556 l 706 599 q 601 594 658 594 q 481 599 572 594 l 481 556 q 546 496 546 553 q 538 463 546 482 l 397 121 l 243 494 q 235 519 235 515 q 313 556 235 556 l 313 599 q 161 594 204 594 q 26 599 89 594 l 26 556 q 104 548 83 556 q 139 507 125 540 l 347 0 q 313 -82 332 -40 q 277 -164 292 -135 q 229 -224 263 -193 q 154 -254 196 -254 q 89 -229 115 -254 q 143 -171 143 -222 q 126 -128 143 -144 q 85 -112 110 -112 q 44 -128 61 -112 q 26 -172 26 -143 m 157 842 q 178 791 157 813 q 231 769 199 769 q 281 790 258 769 q 303 842 303 811 q 281 894 303 874 q 231 915 260 915 q 179 894 201 915 q 157 842 157 874 m 428 842 q 449 791 428 813 q 501 769 469 769 q 551 790 529 769 q 574 842 574 811 q 551 894 574 872 q 500 915 528 915 q 449 894 471 915 q 428 842 428 874 "},"":{"ha":1042,"x_min":44,"x_max":996,"o":"m 44 0 q 186 4 140 4 q 346 0 213 4 l 346 43 q 269 64 296 43 q 242 114 242 85 q 244 135 242 129 l 308 317 l 651 317 l 725 104 q 729 85 729 88 q 614 43 729 43 l 614 0 q 814 4 664 4 q 996 0 908 4 l 996 43 l 971 43 q 886 53 908 43 q 853 99 864 64 l 553 967 q 547 979 549 976 q 542 987 546 982 q 534 993 539 992 q 521 994 529 994 q 499 989 506 994 q 488 967 493 983 l 200 136 q 44 43 168 46 l 44 0 m 324 360 l 479 811 l 636 360 l 324 360 "},"":{"ha":694,"x_min":58,"x_max":685,"o":"m 58 132 q 97 44 58 79 q 183 -3 136 10 q 281 -15 231 -15 q 394 19 346 -15 q 463 106 442 53 q 496 26 467 60 q 571 -8 525 -8 q 646 21 607 -8 q 685 124 685 50 l 685 201 l 650 201 l 650 124 q 600 35 650 35 q 567 52 579 35 q 551 83 554 69 q 549 104 549 96 l 549 382 q 547 441 549 421 q 534 492 546 461 q 499 546 522 522 q 308 622 422 622 q 160 578 221 622 q 99 465 99 533 q 117 417 99 435 q 163 400 135 400 q 209 418 192 400 q 226 464 226 436 q 212 506 226 485 q 156 528 197 526 q 306 592 204 592 q 408 546 363 592 q 453 414 453 500 l 453 363 q 197 313 281 353 q 58 132 58 250 m 165 133 q 232 267 165 206 q 453 333 299 328 l 453 194 q 401 60 453 106 q 290 15 349 15 q 202 49 239 15 q 165 133 165 82 "},"":{"ha":1042,"x_min":44,"x_max":996,"o":"m 44 0 q 186 4 140 4 q 346 0 213 4 l 346 43 q 269 64 296 43 q 242 114 242 85 q 244 135 242 129 l 308 317 l 651 317 l 725 104 q 729 85 729 88 q 614 43 729 43 l 614 0 q 814 4 664 4 q 996 0 908 4 l 996 43 l 971 43 q 886 53 908 43 q 853 99 864 64 l 553 967 q 547 979 549 976 q 542 987 546 982 q 534 993 539 992 q 521 994 529 994 q 499 989 506 994 q 488 967 493 983 l 200 136 q 44 43 168 46 l 44 0 m 313 1238 q 376 1099 314 1151 q 521 1046 439 1046 q 665 1099 603 1046 q 729 1238 728 1151 l 697 1238 q 639 1133 693 1168 q 521 1099 585 1099 q 469 1105 496 1099 q 415 1126 443 1111 q 366 1169 386 1140 q 343 1238 346 1197 l 313 1238 m 324 360 l 479 811 l 636 360 l 324 360 "},"":{"ha":694,"x_min":58,"x_max":685,"o":"m 58 132 q 97 44 58 79 q 183 -3 136 10 q 281 -15 231 -15 q 394 19 346 -15 q 463 106 442 53 q 496 26 467 60 q 571 -8 525 -8 q 646 21 607 -8 q 685 124 685 50 l 685 201 l 650 201 l 650 124 q 600 35 650 35 q 567 52 579 35 q 551 83 554 69 q 549 104 549 96 l 549 382 q 547 441 549 421 q 534 492 546 461 q 499 546 522 522 q 308 622 422 622 q 160 578 221 622 q 99 465 99 533 q 117 417 99 435 q 163 400 135 400 q 209 418 192 400 q 226 464 226 436 q 212 506 226 485 q 156 528 197 526 q 306 592 204 592 q 408 546 363 592 q 453 414 453 500 l 453 363 q 197 313 281 353 q 58 132 58 250 m 138 888 q 204 749 142 799 q 346 699 267 699 q 488 749 425 699 q 556 888 551 800 l 524 888 q 500 819 521 847 q 449 776 479 790 q 394 757 419 763 q 346 751 368 751 q 228 785 282 751 q 169 888 174 818 l 138 888 m 165 133 q 232 267 165 206 q 453 333 299 328 l 453 194 q 401 60 453 106 q 290 15 349 15 q 202 49 239 15 q 165 133 165 82 "},"":{"ha":1042,"x_min":44,"x_max":996,"o":"m 44 0 q 182 4 114 4 q 344 0 264 4 l 344 43 q 266 66 290 44 q 242 113 242 88 q 252 156 242 124 q 281 239 263 189 q 307 317 299 289 l 651 317 q 726 88 726 99 q 617 43 726 43 l 614 43 l 614 0 l 797 4 q 694 -164 694 -85 q 740 -263 694 -225 q 844 -301 786 -301 q 949 -256 907 -301 q 990 -176 990 -211 q 986 -165 990 -169 q 967 -168 976 -158 q 957 -183 965 -169 q 940 -207 949 -196 q 913 -228 932 -218 q 872 -237 894 -237 q 794 -207 831 -237 q 757 -131 757 -176 q 797 -42 757 -87 q 871 4 836 4 l 872 4 q 882 3 875 4 q 892 3 889 3 l 894 3 q 996 0 929 3 l 996 43 l 988 43 q 892 53 917 43 q 853 103 868 63 l 563 938 q 556 956 560 943 q 549 974 551 969 q 543 984 547 978 q 533 992 539 990 q 519 994 528 994 q 485 958 497 994 l 208 161 q 183 102 194 122 q 136 63 171 82 q 44 43 101 44 l 44 0 m 322 360 l 479 811 l 636 360 l 322 360 "},"":{"ha":694,"x_min":57,"x_max":694,"o":"m 57 133 q 127 21 57 57 q 282 -15 197 -15 q 464 104 403 -15 q 514 10 471 44 q 397 -167 397 -79 q 444 -264 397 -226 q 549 -301 490 -301 q 655 -256 615 -301 q 694 -181 694 -210 q 688 -168 694 -172 q 675 -167 682 -164 q 660 -188 671 -169 q 628 -223 649 -207 q 576 -239 608 -239 q 496 -207 532 -239 q 460 -132 460 -175 q 493 -53 460 -92 q 546 -8 526 -15 q 568 -7 550 -7 q 606 -1 586 -7 q 643 19 625 4 q 667 44 657 31 q 680 73 676 58 q 685 97 683 88 q 686 120 686 106 q 686 136 686 135 l 686 201 l 650 201 l 650 132 q 642 71 650 90 q 600 39 626 39 q 550 131 550 39 l 550 404 q 525 510 550 465 q 460 578 500 556 q 383 610 421 600 q 308 621 344 621 q 159 576 221 621 q 97 467 97 532 q 117 418 97 436 q 163 400 138 400 q 207 418 189 400 q 225 464 225 436 q 209 507 225 486 q 156 528 193 528 q 304 589 211 589 q 407 545 361 589 q 453 404 453 501 l 453 363 q 258 337 340 360 q 135 278 176 314 q 75 207 93 243 q 57 133 57 171 m 165 135 q 233 267 165 208 q 453 333 300 326 l 453 200 q 403 63 453 110 q 290 17 353 17 q 202 50 239 17 q 165 135 165 83 "},"":{"ha":1003,"x_min":78,"x_max":924,"o":"m 435 1063 l 449 1031 q 657 1094 468 1036 q 715 1146 715 1106 q 701 1181 715 1164 q 668 1197 688 1197 q 657 1196 661 1197 q 435 1063 643 1192 m 78 475 q 221 116 78 263 q 561 -31 364 -31 q 822 81 721 -31 q 924 324 924 192 q 906 347 924 347 q 897 346 900 347 q 892 341 893 344 q 890 335 890 338 q 889 325 890 332 q 789 97 881 182 q 578 13 697 13 q 507 20 544 13 q 416 56 469 28 q 322 131 363 85 q 251 267 281 178 q 221 474 221 357 q 251 681 221 592 q 322 817 281 769 q 416 892 363 864 q 506 928 469 921 q 576 936 543 936 q 775 847 692 936 q 879 607 858 757 q 885 588 882 592 q 901 583 888 583 q 921 589 918 583 q 924 617 924 594 l 924 946 q 922 973 924 967 q 908 979 919 979 q 886 963 897 979 l 817 860 q 756 915 781 896 q 676 957 731 935 q 561 979 622 979 q 221 832 364 979 q 78 475 78 685 "},"":{"ha":617,"x_min":47,"x_max":576,"o":"m 240 708 l 261 681 q 449 786 267 683 q 458 792 450 788 q 469 798 465 796 q 478 805 472 800 q 488 815 485 810 q 494 826 492 819 q 497 840 497 832 q 483 875 497 858 q 449 892 469 892 q 416 878 433 892 q 332 797 399 864 q 240 708 278 744 m 135 76 q 346 -15 224 -15 q 441 2 399 -15 q 508 44 483 19 q 549 96 532 68 q 571 141 565 124 q 576 165 576 158 q 558 179 576 179 q 540 165 544 179 q 358 19 494 19 q 297 33 328 19 q 233 77 265 47 q 182 165 201 107 q 163 303 163 224 q 221 521 163 454 q 350 588 279 588 q 499 536 449 588 q 457 522 472 535 q 438 497 442 508 q 433 472 433 485 q 451 426 433 444 q 497 408 468 408 q 543 426 525 408 q 561 474 561 443 q 497 582 561 542 q 349 622 433 622 q 134 527 221 622 q 47 300 47 432 q 91 122 47 168 q 135 76 135 76 "},"":{"ha":1003,"x_min":78,"x_max":924,"o":"m 375 1057 l 400 1033 l 561 1179 l 722 1033 l 747 1057 l 561 1253 l 375 1057 m 78 475 q 221 116 78 263 q 561 -31 364 -31 q 822 81 721 -31 q 924 324 924 192 q 906 347 924 347 q 897 346 900 347 q 892 341 893 344 q 890 335 890 338 q 889 325 890 332 q 789 97 881 182 q 578 13 697 13 q 507 20 544 13 q 416 56 469 28 q 322 131 363 85 q 251 267 281 178 q 221 474 221 357 q 251 681 221 592 q 322 817 281 769 q 416 892 363 864 q 506 928 469 921 q 576 936 543 936 q 775 847 692 936 q 879 607 858 757 q 885 588 882 592 q 901 583 888 583 q 921 589 918 583 q 924 617 924 594 l 924 946 q 922 973 924 967 q 908 979 919 979 q 886 963 897 979 l 817 860 q 756 915 781 896 q 676 957 731 935 q 561 979 622 979 q 221 832 364 979 q 78 475 78 685 "},"":{"ha":617,"x_min":47,"x_max":576,"o":"m 135 76 q 346 -15 224 -15 q 441 2 399 -15 q 508 44 483 19 q 549 96 532 68 q 571 141 565 124 q 576 165 576 158 q 558 179 576 179 q 540 165 544 179 q 358 19 494 19 q 297 33 328 19 q 233 77 265 47 q 182 165 201 107 q 163 303 163 224 q 221 521 163 454 q 350 588 279 588 q 499 536 449 588 q 457 522 472 535 q 438 497 442 508 q 433 472 433 485 q 451 426 433 444 q 497 408 468 408 q 543 426 525 408 q 561 474 561 443 q 497 582 561 542 q 349 622 433 622 q 134 527 221 622 q 47 300 47 432 q 91 122 47 168 q 135 76 135 76 "},"":{"ha":1003,"x_min":78,"x_max":924,"o":"m 509 1085 q 561 1064 531 1064 q 613 1085 592 1064 q 635 1138 635 1107 q 613 1190 635 1168 q 561 1211 592 1211 q 509 1190 531 1211 q 488 1138 488 1168 q 498 1096 488 1107 q 509 1085 509 1085 m 78 475 q 221 116 78 263 q 561 -31 364 -31 q 822 81 721 -31 q 924 324 924 192 q 906 347 924 347 q 897 346 900 347 q 892 341 893 344 q 890 335 890 338 q 889 325 890 332 q 789 97 881 182 q 578 13 697 13 q 507 20 544 13 q 416 56 469 28 q 322 131 363 85 q 251 267 281 178 q 221 474 221 357 q 251 681 221 592 q 322 817 281 769 q 416 892 363 864 q 506 928 469 921 q 576 936 543 936 q 775 847 692 936 q 879 607 858 757 q 885 588 882 592 q 901 583 888 583 q 921 589 918 583 q 924 617 924 594 l 924 946 q 922 973 924 967 q 908 979 919 979 q 886 963 897 979 l 817 860 q 756 915 781 896 q 676 957 731 935 q 561 979 622 979 q 221 832 364 979 q 78 475 78 685 "},"":{"ha":617,"x_min":47,"x_max":576,"o":"m 135 76 q 346 -15 224 -15 q 441 2 399 -15 q 508 44 483 19 q 549 96 532 68 q 571 141 565 124 q 576 165 576 158 q 558 179 576 179 q 540 165 544 179 q 358 19 494 19 q 297 33 328 19 q 233 77 265 47 q 182 165 201 107 q 163 303 163 224 q 221 521 163 454 q 350 588 279 588 q 499 536 449 588 q 457 522 472 535 q 438 497 442 508 q 433 472 433 485 q 451 426 433 444 q 497 408 468 408 q 543 426 525 408 q 561 474 561 443 q 497 582 561 542 q 349 622 433 622 q 134 527 221 622 q 47 300 47 432 q 91 122 47 168 q 135 76 135 76 "},"":{"ha":1003,"x_min":78,"x_max":924,"o":"m 78 475 q 221 116 78 263 q 561 -31 364 -31 q 822 81 721 -31 q 924 324 924 192 q 906 347 924 347 q 897 346 900 347 q 892 341 893 344 q 890 335 890 338 q 889 325 890 332 q 789 97 881 182 q 578 13 697 13 q 507 20 544 13 q 416 56 469 28 q 322 131 363 85 q 251 267 281 178 q 221 474 221 357 q 251 681 221 592 q 322 817 281 769 q 416 892 363 864 q 506 928 469 921 q 576 936 543 936 q 775 847 692 936 q 879 607 858 757 q 885 588 882 592 q 901 583 888 583 q 921 589 918 583 q 924 617 924 594 l 924 946 q 922 973 924 967 q 908 979 919 979 q 886 963 897 979 l 817 860 q 756 915 781 896 q 676 957 731 935 q 561 979 622 979 q 221 832 364 979 q 78 475 78 685 m 365 1276 q 446 1207 397 1250 q 578 1103 568 1103 q 610 1124 585 1103 q 790 1276 636 1144 l 774 1299 q 702 1258 750 1286 q 620 1209 654 1229 q 581 1189 586 1189 q 572 1190 576 1189 q 558 1196 567 1192 q 542 1205 550 1200 q 516 1219 533 1210 q 483 1239 499 1229 q 438 1265 467 1249 q 382 1299 410 1282 l 365 1276 "},"":{"ha":617,"x_min":47,"x_max":576,"o":"m 135 76 q 346 -15 224 -15 q 441 2 399 -15 q 508 44 483 19 q 549 96 532 68 q 571 141 565 124 q 576 165 576 158 q 558 179 576 179 q 540 165 544 179 q 358 19 494 19 q 297 33 328 19 q 233 77 265 47 q 182 165 201 107 q 163 303 163 224 q 221 521 163 454 q 350 588 279 588 q 499 536 449 588 q 457 522 472 535 q 438 497 442 508 q 433 472 433 485 q 451 426 433 444 q 497 408 468 408 q 543 426 525 408 q 561 474 561 443 q 497 582 561 542 q 349 622 433 622 q 134 527 221 622 q 47 300 47 432 q 91 122 47 168 q 135 76 135 76 m 125 876 l 338 672 l 550 876 l 532 897 q 446 840 497 874 q 338 772 346 772 q 143 897 329 772 l 125 876 "},"":{"ha":1060,"x_min":49,"x_max":982,"o":"m 49 0 l 557 0 q 858 136 733 0 q 982 467 982 272 q 858 807 982 665 q 557 949 735 949 l 49 949 l 49 906 l 82 906 q 174 893 157 906 q 192 840 192 881 l 192 108 q 174 56 192 68 q 82 43 157 43 l 49 43 l 49 0 m 253 1276 q 364 1182 300 1236 q 464 1103 456 1103 q 497 1124 471 1103 q 676 1276 522 1144 l 661 1299 q 590 1258 638 1286 q 507 1209 542 1229 q 467 1189 472 1189 q 458 1190 463 1189 q 445 1196 453 1192 q 428 1205 438 1200 q 403 1219 419 1210 q 370 1239 386 1229 q 326 1265 354 1249 q 269 1299 297 1282 l 268 1299 l 253 1276 m 311 99 l 311 850 q 322 896 311 886 q 379 906 332 906 l 518 906 q 771 776 678 906 q 843 467 843 678 q 767 161 843 265 q 673 81 735 118 q 519 43 611 43 l 379 43 q 322 53 332 43 q 311 99 311 63 "},"":{"ha":938,"x_min":47,"x_max":853,"o":"m 47 299 q 135 76 47 168 q 342 -15 222 -15 q 528 76 456 -15 l 528 -15 l 732 0 l 732 43 q 642 56 660 43 q 624 121 624 69 l 624 964 l 424 949 l 424 906 q 514 892 496 906 q 532 828 532 879 l 532 528 q 357 614 463 614 q 140 522 232 614 q 47 299 47 431 m 163 297 q 206 494 163 428 q 363 583 265 583 q 513 500 456 583 q 528 449 528 476 l 528 164 q 513 113 528 136 q 349 15 451 15 q 203 104 258 15 q 163 297 163 168 m 688 949 q 708 897 688 917 q 760 876 729 876 q 821 906 796 876 q 803 823 821 861 q 765 766 786 785 q 727 732 744 747 q 710 711 710 717 q 725 699 710 699 q 768 722 739 699 q 825 797 797 746 q 853 904 853 847 q 824 991 853 960 q 761 1022 796 1022 q 707 1000 726 1022 q 688 949 688 978 "},"":{"ha":1061,"x_min":47,"x_max":982,"o":"m 47 0 l 536 0 q 604 3 582 0 q 874 155 767 22 q 982 467 982 288 q 923 711 982 596 q 761 890 864 826 q 529 949 668 949 l 47 949 l 47 906 l 63 906 q 167 894 144 906 q 190 843 190 883 l 190 486 q 154 487 178 486 q 118 488 131 488 q 100 487 111 488 q 82 486 89 486 q 49 467 49 486 l 49 460 q 63 446 53 449 q 117 443 74 443 q 153 444 129 443 q 190 444 178 444 l 190 106 q 167 54 190 65 q 63 43 144 43 l 47 43 l 47 0 m 311 93 l 311 444 l 540 444 q 572 465 572 447 q 542 486 572 483 l 311 486 l 311 856 q 328 899 313 890 q 394 907 344 907 l 408 907 q 447 906 422 907 q 486 906 472 906 l 510 906 q 771 778 682 906 q 843 469 843 675 q 775 174 843 272 q 510 43 688 43 l 408 43 q 328 50 343 43 q 311 93 313 57 "},"":{"ha":771,"x_min":46,"x_max":733,"o":"m 46 299 q 135 75 46 165 q 340 -15 224 -15 q 526 76 454 -15 l 528 -15 l 733 0 l 733 43 l 725 43 q 643 58 661 43 q 625 121 625 72 l 625 738 l 717 738 l 717 781 l 625 781 l 625 964 l 424 949 l 424 906 q 483 903 464 906 q 508 894 499 900 q 523 883 518 888 q 530 863 528 878 q 532 844 532 849 q 532 819 532 839 l 532 781 l 233 781 l 233 738 l 532 738 l 532 528 q 356 613 456 613 q 140 523 233 613 q 46 299 46 433 m 163 303 q 207 493 163 428 q 363 581 267 581 q 476 538 425 581 q 528 446 528 496 l 528 161 q 473 65 528 114 q 349 17 418 17 q 210 93 263 17 q 163 303 163 160 "},"":{"ha":944,"x_min":46,"x_max":906,"o":"m 46 0 l 847 0 l 906 358 l 871 358 q 853 260 861 297 q 830 182 844 222 q 794 119 815 142 q 743 78 774 97 q 669 51 713 58 q 565 43 625 43 l 381 43 q 323 53 333 43 q 313 99 313 63 l 313 469 l 438 469 q 560 435 533 469 q 588 307 588 401 l 622 307 l 622 675 l 588 675 q 560 546 588 579 q 438 513 533 513 l 313 513 l 313 846 q 323 892 313 882 q 381 901 333 901 l 560 901 q 688 888 639 901 q 767 838 738 874 q 810 757 797 803 q 832 632 822 711 l 867 632 l 828 944 l 46 944 l 46 901 l 79 901 q 172 889 154 901 q 189 836 189 876 l 189 108 q 172 56 189 68 q 79 43 154 43 l 46 43 l 46 0 "},"":{"ha":617,"x_min":39,"x_max":578,"o":"m 39 306 q 131 77 39 169 q 344 -15 222 -15 q 451 9 403 -15 q 525 66 500 33 q 563 126 550 99 q 576 165 576 153 q 558 182 576 182 q 540 163 544 182 q 494 81 524 113 q 432 37 465 49 q 383 22 399 25 q 353 19 367 19 q 196 113 254 19 q 154 321 154 179 l 542 321 q 571 325 565 321 q 576 350 576 329 q 513 543 576 464 q 328 622 450 622 q 123 529 207 622 q 39 306 39 436 m 156 350 q 178 474 158 422 q 228 549 199 526 q 281 582 257 572 q 328 592 306 592 q 412 563 378 592 q 460 490 446 535 q 480 412 475 444 q 485 350 485 379 l 156 350 "},"":{"ha":944,"x_min":46,"x_max":906,"o":"m 267 1238 q 331 1099 268 1151 q 475 1046 393 1046 q 619 1099 557 1046 q 683 1238 682 1151 l 651 1238 q 590 1131 646 1164 q 475 1099 533 1099 q 360 1131 417 1099 q 299 1238 304 1164 l 267 1238 m 46 0 l 847 0 l 906 358 l 871 358 q 853 260 861 297 q 830 182 844 222 q 794 119 815 142 q 743 78 774 97 q 669 51 713 58 q 565 43 625 43 l 381 43 q 323 53 333 43 q 313 99 313 63 l 313 469 l 438 469 q 560 435 533 469 q 588 307 588 401 l 622 307 l 622 675 l 588 675 q 560 546 588 579 q 438 513 533 513 l 313 513 l 313 846 q 323 892 313 882 q 381 901 333 901 l 560 901 q 688 888 639 901 q 767 838 738 874 q 810 757 797 803 q 832 632 822 711 l 867 632 l 828 944 l 46 944 l 46 901 l 79 901 q 172 889 154 901 q 189 836 189 876 l 189 108 q 172 56 189 68 q 79 43 154 43 l 46 43 l 46 0 "},"":{"ha":617,"x_min":39,"x_max":576,"o":"m 39 306 q 131 77 39 169 q 344 -15 222 -15 q 451 9 403 -15 q 525 66 500 33 q 563 126 550 99 q 576 165 576 153 q 558 182 576 182 q 540 163 544 182 q 494 81 524 113 q 432 37 465 49 q 383 22 399 25 q 353 19 367 19 q 196 113 254 19 q 154 321 154 179 l 542 321 q 571 325 565 321 q 576 350 576 329 q 513 543 576 464 q 328 622 450 622 q 123 529 207 622 q 39 306 39 436 m 156 350 q 178 474 158 422 q 228 549 199 526 q 281 582 257 572 q 328 592 306 592 q 412 563 378 592 q 460 490 446 535 q 480 412 475 444 q 485 350 485 379 l 156 350 "},"":{"ha":944,"x_min":46,"x_max":906,"o":"m 423 1085 q 475 1064 444 1064 q 527 1085 506 1064 q 549 1138 549 1107 q 527 1190 549 1168 q 475 1211 506 1211 q 423 1190 444 1211 q 401 1138 401 1168 q 412 1096 401 1107 q 423 1085 423 1085 m 46 0 l 847 0 l 906 358 l 871 358 q 853 260 861 297 q 830 182 844 222 q 794 119 815 142 q 743 78 774 97 q 669 51 713 58 q 565 43 625 43 l 381 43 q 323 53 333 43 q 313 99 313 63 l 313 469 l 438 469 q 560 435 533 469 q 588 307 588 401 l 622 307 l 622 675 l 588 675 q 560 546 588 579 q 438 513 533 513 l 313 513 l 313 846 q 323 892 313 882 q 381 901 333 901 l 560 901 q 688 888 639 901 q 767 838 738 874 q 810 757 797 803 q 832 632 822 711 l 867 632 l 828 944 l 46 944 l 46 901 l 79 901 q 172 889 154 901 q 189 836 189 876 l 189 108 q 172 56 189 68 q 79 43 154 43 l 46 43 l 46 0 "},"":{"ha":617,"x_min":39,"x_max":576,"o":"m 39 306 q 131 77 39 169 q 344 -15 222 -15 q 451 9 403 -15 q 525 66 500 33 q 563 126 550 99 q 576 165 576 153 q 558 182 576 182 q 540 163 544 182 q 494 81 524 113 q 432 37 465 49 q 383 22 399 25 q 353 19 367 19 q 196 113 254 19 q 154 321 154 179 l 542 321 q 571 325 565 321 q 576 350 576 329 q 513 543 576 464 q 328 622 450 622 q 123 529 207 622 q 39 306 39 436 m 156 350 q 178 474 158 422 q 228 549 199 526 q 281 582 257 572 q 328 592 306 592 q 412 563 378 592 q 460 490 446 535 q 480 412 475 444 q 485 350 485 379 l 156 350 "},"":{"ha":944,"x_min":46,"x_max":906,"o":"m 46 0 l 663 0 q 564 -164 564 -83 q 610 -263 564 -225 q 714 -301 656 -301 q 819 -256 778 -301 q 860 -176 860 -211 q 857 -165 860 -167 q 847 -161 853 -161 q 832 -173 840 -161 q 815 -199 824 -185 q 785 -226 806 -214 q 740 -237 765 -237 q 663 -207 699 -237 q 626 -131 626 -176 q 675 -33 626 -82 q 706 -7 694 -14 q 739 0 718 0 l 847 0 l 906 358 l 871 358 q 835 197 856 254 q 789 114 817 146 q 720 67 761 82 q 641 47 679 51 q 543 43 603 43 l 392 43 q 327 52 342 43 q 313 96 313 61 l 313 469 l 431 469 q 556 440 524 469 q 588 318 588 410 l 588 307 l 622 307 l 622 674 l 588 674 q 583 601 588 625 q 563 550 578 569 q 522 523 549 531 q 477 514 496 515 q 424 513 458 513 l 313 513 l 313 851 q 330 894 314 886 q 410 903 346 903 l 538 903 q 647 897 606 903 q 722 876 688 890 q 776 829 757 861 q 809 751 796 797 q 832 632 822 706 l 867 632 l 829 944 l 46 944 l 46 903 l 67 903 q 165 892 142 903 q 189 844 188 881 l 189 103 q 164 53 188 64 q 67 43 140 43 l 46 43 l 46 0 "},"":{"ha":617,"x_min":38,"x_max":593,"o":"m 38 304 q 130 76 38 168 q 344 -15 222 -15 q 378 -14 367 -15 q 296 -164 296 -96 q 342 -263 296 -225 q 446 -301 389 -301 q 553 -255 514 -301 q 593 -178 593 -208 q 585 -163 593 -168 q 568 -168 576 -158 q 558 -183 567 -169 q 541 -207 550 -196 q 513 -228 532 -218 q 472 -237 494 -237 q 394 -206 431 -237 q 358 -131 358 -175 q 390 -51 358 -86 q 472 20 422 -17 q 543 89 521 57 q 575 164 575 135 q 561 182 575 182 q 535 147 550 182 q 466 59 514 97 q 353 21 418 21 q 196 111 251 21 q 154 319 154 178 l 540 319 q 570 325 564 319 q 576 349 576 331 q 508 547 576 472 q 329 621 440 621 q 121 526 204 621 q 38 304 38 431 m 156 350 q 214 532 161 476 q 325 589 267 588 q 376 578 351 589 q 426 544 401 568 q 467 469 451 519 q 483 350 482 419 l 156 350 "},"":{"ha":944,"x_min":46,"x_max":906,"o":"m 46 0 l 847 0 l 906 358 l 871 358 q 853 260 861 297 q 830 182 844 222 q 794 119 815 142 q 743 78 774 97 q 669 51 713 58 q 565 43 625 43 l 381 43 q 323 53 333 43 q 313 99 313 63 l 313 469 l 438 469 q 560 435 533 469 q 588 307 588 401 l 622 307 l 622 675 l 588 675 q 560 546 588 579 q 438 513 533 513 l 313 513 l 313 846 q 323 892 313 882 q 381 901 333 901 l 560 901 q 688 888 639 901 q 767 838 738 874 q 810 757 797 803 q 832 632 822 711 l 867 632 l 828 944 l 46 944 l 46 901 l 79 901 q 172 889 154 901 q 189 836 189 876 l 189 108 q 172 56 189 68 q 79 43 154 43 l 46 43 l 46 0 m 229 1276 q 310 1207 261 1250 q 442 1103 432 1103 q 474 1124 449 1103 q 654 1276 500 1144 l 638 1299 q 566 1258 614 1286 q 484 1209 518 1229 q 444 1189 450 1189 q 435 1190 440 1189 q 423 1196 431 1192 q 406 1205 415 1200 q 381 1219 397 1210 q 348 1239 364 1229 q 303 1265 332 1249 q 247 1299 275 1282 l 246 1299 l 229 1276 "},"":{"ha":617,"x_min":39,"x_max":576,"o":"m 114 876 l 326 672 l 328 672 l 539 876 l 522 897 q 357 787 379 801 q 326 772 335 772 q 132 897 318 772 l 114 876 m 39 306 q 131 77 39 169 q 344 -15 222 -15 q 451 9 403 -15 q 525 66 500 33 q 563 126 550 99 q 576 165 576 153 q 558 182 576 182 q 540 163 544 182 q 494 81 524 113 q 432 37 465 49 q 383 22 399 25 q 353 19 367 19 q 196 113 254 19 q 154 321 154 179 l 542 321 q 571 325 565 321 q 576 350 576 329 q 513 543 576 464 q 328 622 450 622 q 123 529 207 622 q 39 306 39 436 m 156 350 q 178 474 158 422 q 228 549 199 526 q 281 582 257 572 q 328 592 306 592 q 412 563 378 592 q 460 490 446 535 q 480 412 475 444 q 485 350 485 379 l 156 350 "},"":{"ha":1089,"x_min":78,"x_max":1021,"o":"m 374 1057 l 399 1033 l 560 1179 l 721 1033 l 746 1057 l 560 1253 l 374 1057 m 221 117 q 564 -31 364 -31 q 718 -1 646 -31 q 824 88 790 29 q 869 33 838 64 q 913 1 901 1 q 925 33 925 1 l 925 275 q 940 326 925 317 q 1021 336 954 336 l 1021 379 q 851 375 867 375 q 628 379 678 375 l 628 336 l 672 336 q 781 324 761 336 q 801 269 801 311 l 801 181 q 775 90 801 126 q 707 38 749 53 q 638 17 665 22 q 586 13 610 13 q 513 20 551 13 q 419 57 474 28 q 322 133 364 86 q 251 269 281 179 q 221 475 221 358 q 251 682 221 593 q 322 817 281 771 q 417 892 363 864 q 508 928 471 921 q 578 936 544 936 q 776 847 692 936 q 881 607 860 757 q 886 588 883 592 q 903 583 889 583 q 922 589 919 583 q 925 617 925 594 l 925 946 q 923 973 925 967 q 910 979 921 979 q 888 963 899 979 l 818 860 q 777 898 794 883 q 726 935 760 913 q 651 968 693 957 q 561 979 610 979 q 222 833 365 979 q 78 475 78 686 q 149 190 78 264 q 221 117 221 117 "},"":{"ha":694,"x_min":39,"x_max":674,"o":"m 39 -110 q 128 -235 39 -185 q 346 -286 218 -286 q 563 -236 472 -286 q 654 -107 654 -186 q 564 51 654 1 q 485 78 529 69 q 411 89 442 88 q 325 90 381 90 q 221 92 231 90 q 168 123 189 96 q 147 185 147 150 q 171 250 147 222 q 308 207 231 207 q 468 267 403 207 q 533 410 533 328 q 476 544 533 492 q 601 599 533 599 q 615 597 611 599 q 593 560 593 589 q 605 531 593 542 q 633 519 617 519 q 660 530 647 519 q 674 561 674 540 q 656 607 674 585 q 603 629 639 629 q 456 564 522 629 q 308 614 392 614 q 149 553 214 614 q 83 411 83 493 q 149 268 83 322 q 106 153 106 218 q 167 29 106 68 q 73 -26 107 13 q 39 -110 39 -65 m 111 -110 q 144 -28 111 -62 q 225 10 178 7 l 307 10 q 403 8 369 10 q 486 -5 438 6 q 558 -42 535 -15 q 582 -110 582 -68 q 515 -211 582 -168 q 347 -254 447 -254 q 178 -210 246 -254 q 111 -110 111 -167 m 188 410 q 210 526 188 489 q 308 582 247 582 q 429 411 429 582 q 407 294 429 332 q 308 239 369 239 q 188 410 188 239 "},"":{"ha":1090,"x_min":76,"x_max":1021,"o":"m 76 475 q 221 116 76 263 q 563 -31 365 -31 q 822 88 749 -31 l 824 88 q 870 28 844 53 q 911 4 896 4 q 925 33 926 4 l 925 276 q 936 318 925 306 q 963 333 947 331 q 1021 335 979 335 l 1021 378 q 861 374 935 374 l 851 374 q 626 378 739 374 l 626 335 l 644 335 q 774 324 749 335 q 800 267 800 313 l 800 186 q 797 140 800 156 q 727 50 785 88 q 583 13 669 13 q 496 24 540 13 q 400 66 451 35 q 310 147 349 97 q 245 281 271 196 q 219 474 219 365 q 244 664 219 581 q 308 797 269 747 q 397 880 346 847 q 496 924 449 913 q 592 936 543 936 q 788 886 707 936 q 845 835 824 863 q 872 789 867 808 q 883 756 876 769 q 901 743 890 743 q 925 775 925 743 l 925 950 q 908 978 925 978 q 901 976 904 978 q 821 913 899 976 q 565 979 714 979 q 219 831 361 979 q 76 475 76 683 m 356 1238 q 419 1099 357 1151 q 564 1046 482 1046 q 708 1099 646 1046 q 772 1238 771 1151 l 740 1238 q 682 1133 736 1168 q 564 1099 628 1099 q 494 1109 529 1099 q 425 1153 458 1119 q 388 1238 392 1186 l 356 1238 "},"":{"ha":694,"x_min":39,"x_max":674,"o":"m 39 -110 q 128 -235 39 -185 q 346 -286 218 -286 q 563 -236 472 -286 q 654 -107 654 -186 q 564 51 654 1 q 485 78 529 69 q 411 89 442 88 q 325 90 381 90 q 221 92 231 90 q 168 123 189 96 q 147 185 147 150 q 171 250 147 222 q 308 207 231 207 q 468 267 403 207 q 533 410 533 328 q 476 544 533 492 q 601 599 533 599 q 615 597 611 599 q 593 560 593 589 q 605 531 593 542 q 633 519 617 519 q 660 530 647 519 q 674 561 674 540 q 656 607 674 585 q 603 629 639 629 q 456 564 522 629 q 308 614 392 614 q 149 553 214 614 q 83 411 83 493 q 149 268 83 322 q 106 153 106 218 q 167 29 106 68 q 73 -26 107 13 q 39 -110 39 -65 m 111 -110 q 144 -28 111 -62 q 225 10 178 7 l 307 10 q 403 8 369 10 q 486 -5 438 6 q 558 -42 535 -15 q 582 -110 582 -68 q 515 -211 582 -168 q 347 -254 447 -254 q 178 -210 246 -254 q 111 -110 111 -167 m 138 888 q 204 749 142 799 q 346 699 267 699 q 488 749 425 699 q 554 888 550 799 l 524 888 q 465 786 519 821 q 346 751 410 751 q 297 757 322 751 q 242 776 271 763 q 192 819 213 790 q 169 888 172 849 l 138 888 m 188 410 q 210 526 188 489 q 308 582 247 582 q 429 411 429 582 q 407 294 429 332 q 308 239 369 239 q 188 410 188 239 "},"":{"ha":1089,"x_min":78,"x_max":1021,"o":"m 508 1085 q 560 1064 529 1064 q 612 1085 590 1064 q 633 1138 633 1107 q 612 1190 633 1168 q 560 1211 590 1211 q 508 1190 529 1211 q 486 1138 486 1168 q 497 1096 486 1107 q 508 1085 508 1085 m 221 117 q 564 -31 364 -31 q 718 -1 646 -31 q 824 88 790 29 q 869 33 838 64 q 913 1 901 1 q 925 33 925 1 l 925 275 q 940 326 925 317 q 1021 336 954 336 l 1021 379 q 851 375 867 375 q 628 379 678 375 l 628 336 l 672 336 q 781 324 761 336 q 801 269 801 311 l 801 181 q 775 90 801 126 q 707 38 749 53 q 638 17 665 22 q 586 13 610 13 q 513 20 551 13 q 419 57 474 28 q 322 133 364 86 q 251 269 281 179 q 221 475 221 358 q 251 682 221 593 q 322 817 281 771 q 417 892 363 864 q 508 928 471 921 q 578 936 544 936 q 776 847 692 936 q 881 607 860 757 q 886 588 883 592 q 903 583 889 583 q 922 589 919 583 q 925 617 925 594 l 925 946 q 923 973 925 967 q 910 979 921 979 q 888 963 899 979 l 818 860 q 777 898 794 883 q 726 935 760 913 q 651 968 693 957 q 561 979 610 979 q 222 833 365 979 q 78 475 78 686 q 149 190 78 264 q 221 117 221 117 "},"":{"ha":694,"x_min":39,"x_max":674,"o":"m 39 -110 q 128 -235 39 -185 q 346 -286 218 -286 q 563 -236 472 -286 q 654 -107 654 -186 q 564 51 654 1 q 485 78 529 69 q 411 89 442 88 q 325 90 381 90 q 221 92 231 90 q 168 123 189 96 q 147 185 147 150 q 171 250 147 222 q 308 207 231 207 q 468 267 403 207 q 533 410 533 328 q 476 544 533 492 q 601 599 533 599 q 615 597 611 599 q 593 560 593 589 q 605 531 593 542 q 633 519 617 519 q 660 530 647 519 q 674 561 674 540 q 656 607 674 585 q 603 629 639 629 q 456 564 522 629 q 308 614 392 614 q 149 553 214 614 q 83 411 83 493 q 149 268 83 322 q 106 153 106 218 q 167 29 106 68 q 73 -26 107 13 q 39 -110 39 -65 m 111 -110 q 144 -28 111 -62 q 225 10 178 7 l 307 10 q 403 8 369 10 q 486 -5 438 6 q 558 -42 535 -15 q 582 -110 582 -68 q 515 -211 582 -168 q 347 -254 447 -254 q 178 -210 246 -254 q 111 -110 111 -167 m 188 410 q 210 526 188 489 q 308 582 247 582 q 429 411 429 582 q 407 294 429 332 q 308 239 369 239 q 188 410 188 239 "},"":{"ha":1089,"x_min":78,"x_max":1021,"o":"m 221 117 q 564 -31 364 -31 q 718 -1 646 -31 q 824 88 790 29 q 869 33 838 64 q 913 1 901 1 q 925 33 925 1 l 925 275 q 940 326 925 317 q 1021 336 954 336 l 1021 379 q 851 375 867 375 q 628 379 678 375 l 628 336 l 672 336 q 781 324 761 336 q 801 269 801 311 l 801 181 q 775 90 801 126 q 707 38 749 53 q 638 17 665 22 q 586 13 610 13 q 513 20 551 13 q 419 57 474 28 q 322 133 364 86 q 251 269 281 179 q 221 475 221 358 q 251 682 221 593 q 322 817 281 771 q 417 892 363 864 q 508 928 471 921 q 578 936 544 936 q 775 847 692 936 q 881 607 858 758 q 886 588 883 592 q 903 583 889 583 q 922 589 919 583 q 925 617 925 594 l 925 946 q 923 973 925 967 q 910 979 921 979 q 894 971 901 979 q 856 915 888 963 q 818 860 833 882 q 777 898 794 883 q 726 935 760 913 q 651 968 693 957 q 561 979 610 979 q 222 833 365 979 q 78 475 78 686 q 149 190 78 264 q 221 117 221 117 m 531 -189 q 567 -204 546 -204 q 606 -186 588 -204 l 606 -203 q 587 -294 606 -253 q 549 -356 568 -335 q 531 -381 531 -378 q 539 -390 531 -390 q 595 -328 563 -390 q 628 -201 628 -265 q 610 -126 628 -151 q 565 -101 592 -101 q 529 -117 543 -101 q 515 -153 515 -132 q 523 -181 515 -174 q 531 -189 531 -189 "},"":{"ha":694,"x_min":39,"x_max":674,"o":"m 39 -110 q 128 -235 39 -185 q 346 -286 218 -286 q 563 -236 472 -286 q 654 -107 654 -186 q 564 51 654 1 q 485 78 529 69 q 411 89 442 88 q 325 90 381 90 q 221 92 231 90 q 168 123 189 96 q 147 185 147 150 q 171 250 147 222 q 308 207 231 207 q 468 267 403 207 q 533 410 533 328 q 476 544 533 492 q 601 599 533 599 q 615 597 611 599 q 593 560 593 589 q 605 531 593 542 q 633 519 617 519 q 660 530 647 519 q 674 561 674 540 q 656 607 674 585 q 603 629 639 629 q 456 564 522 629 q 308 614 392 614 q 149 553 214 614 q 83 411 83 493 q 149 268 83 322 q 106 153 106 218 q 167 29 106 68 q 73 -26 107 13 q 39 -110 39 -65 m 111 -110 q 144 -28 111 -62 q 225 10 178 7 l 307 10 q 403 8 369 10 q 486 -5 438 6 q 558 -42 535 -15 q 582 -110 582 -68 q 515 -211 582 -168 q 347 -254 447 -254 q 178 -210 246 -254 q 111 -110 111 -167 m 188 410 q 210 526 188 489 q 308 582 247 582 q 429 411 429 582 q 407 294 429 332 q 308 239 369 239 q 188 410 188 239 m 232 808 q 258 724 232 757 q 324 690 285 690 q 378 713 358 690 q 397 764 397 735 q 376 816 397 796 q 325 836 356 836 q 264 807 293 836 q 315 942 264 882 q 346 971 331 958 q 368 988 361 983 q 375 1000 375 993 q 360 1014 375 1014 q 330 999 350 1014 q 288 958 310 983 q 249 892 265 933 q 232 808 232 851 "},"":{"ha":1042,"x_min":46,"x_max":994,"o":"m 333 1057 l 358 1033 l 519 1179 l 681 1033 l 706 1057 l 519 1253 l 333 1057 m 46 0 q 250 4 94 4 q 456 0 407 4 l 456 43 l 422 43 q 330 56 347 43 q 313 108 313 68 l 313 472 l 728 472 l 728 108 q 710 56 728 68 q 618 43 693 43 l 585 43 l 585 0 q 789 4 633 4 q 994 0 946 4 l 994 43 l 961 43 q 869 56 886 43 q 851 108 851 68 l 851 840 q 869 893 851 881 q 961 906 886 906 l 994 906 l 994 949 q 790 944 946 944 q 585 949 633 944 l 585 906 l 618 906 q 710 893 693 906 q 728 840 728 881 l 728 515 l 313 515 l 313 840 q 330 893 313 881 q 422 906 347 906 l 456 906 l 456 949 q 251 944 407 944 q 46 949 94 944 l 46 906 l 79 906 q 172 893 154 906 q 189 840 189 881 l 189 108 q 172 56 189 68 q 79 43 154 43 l 46 43 l 46 0 "},"":{"ha":771,"x_min":44,"x_max":743,"o":"m 44 0 q 201 4 190 4 q 357 0 215 4 l 357 43 q 266 52 283 43 q 249 106 249 61 l 249 361 q 306 523 249 463 q 436 583 364 583 q 517 542 496 583 q 539 429 539 500 l 539 106 q 522 52 539 61 q 431 43 504 43 l 431 0 q 588 4 576 4 q 743 0 601 4 l 743 43 q 658 49 681 43 q 635 85 636 56 l 635 350 q 628 489 635 450 q 592 563 622 528 q 446 614 550 614 q 318 572 368 614 q 246 481 268 531 l 244 481 l 244 964 l 44 949 l 44 906 q 135 892 117 906 q 153 828 153 879 l 153 106 q 135 52 153 61 q 44 43 118 43 l 44 0 "},"":{"ha":1042,"x_min":46,"x_max":994,"o":"m 46 0 q 250 4 94 4 q 456 0 407 4 l 456 43 l 422 43 q 330 56 347 43 q 313 108 313 68 l 313 472 l 728 472 l 728 108 q 710 56 728 68 q 618 43 693 43 l 585 43 l 585 0 q 789 4 633 4 q 994 0 946 4 l 994 43 l 961 43 q 869 56 886 43 q 851 108 851 68 l 851 717 l 958 717 q 994 739 994 717 q 954 761 994 761 l 851 761 l 851 840 q 869 893 851 881 q 961 906 886 906 l 994 906 l 994 949 q 790 944 946 944 q 585 949 633 944 l 585 906 l 618 906 q 710 893 693 906 q 728 840 728 881 l 728 761 l 313 761 l 313 840 q 330 893 313 881 q 422 906 347 906 l 456 906 l 456 949 q 251 944 407 944 q 46 949 94 944 l 46 906 l 79 906 q 172 893 154 906 q 189 840 189 881 l 189 761 l 90 761 q 46 739 46 761 q 81 717 46 717 l 189 717 l 189 108 q 172 56 189 68 q 79 43 154 43 l 46 43 l 46 0 m 313 515 l 313 717 l 728 717 l 728 515 l 313 515 "},"":{"ha":810,"x_min":36,"x_max":779,"o":"m 36 760 q 71 739 36 739 l 189 739 l 189 93 q 174 58 188 69 q 145 45 161 47 q 93 43 129 43 l 81 43 l 81 0 q 226 4 161 4 l 233 4 q 394 0 314 4 l 394 43 l 385 43 q 305 53 324 43 q 286 101 286 64 l 286 349 q 345 524 286 467 q 474 581 404 581 l 475 581 q 553 537 532 579 q 575 419 575 494 l 575 107 q 559 55 575 67 q 479 43 543 43 l 467 43 l 467 0 q 613 4 547 4 l 618 4 q 779 0 697 4 l 779 43 l 760 43 q 719 44 729 43 q 694 51 708 46 q 676 69 681 57 q 672 103 672 81 l 672 407 q 671 456 672 436 q 660 508 669 475 q 631 560 650 540 q 574 597 613 581 q 483 613 536 613 q 355 571 404 613 q 283 481 306 529 l 282 576 l 282 739 l 442 739 q 478 760 478 739 q 442 782 478 782 l 282 782 l 282 965 l 81 950 l 81 907 q 140 903 111 907 q 165 894 156 900 q 180 883 175 888 q 187 863 185 878 q 189 844 189 849 q 189 819 189 839 l 189 782 l 79 782 q 36 760 36 782 "},"":{"ha":501,"x_min":39,"x_max":463,"o":"m 39 0 q 250 4 88 4 q 463 0 414 4 l 463 43 l 426 43 q 331 56 349 43 q 313 108 313 68 l 313 840 q 331 893 313 881 q 426 906 349 906 l 463 906 l 463 949 q 251 944 414 944 q 39 949 88 944 l 39 906 l 75 906 q 171 893 153 906 q 189 840 189 881 l 189 108 q 171 56 189 68 q 75 43 153 43 l 39 43 l 39 0 m 42 1124 l 71 1099 q 161 1149 121 1149 q 245 1124 192 1149 q 329 1099 299 1099 q 345 1100 338 1099 q 358 1103 353 1101 q 372 1110 364 1106 q 384 1117 379 1114 q 397 1127 389 1119 q 408 1138 404 1135 q 420 1151 411 1142 q 432 1165 429 1161 q 445 1181 435 1169 q 458 1197 456 1193 l 428 1222 l 419 1214 q 410 1205 413 1207 q 400 1196 408 1203 q 387 1186 392 1189 q 374 1179 382 1183 q 357 1174 365 1175 q 339 1172 349 1172 q 255 1197 308 1172 q 171 1222 201 1222 q 155 1221 163 1222 q 142 1217 147 1219 q 128 1211 136 1215 q 116 1204 121 1207 q 103 1194 111 1201 q 92 1183 96 1186 q 80 1169 89 1179 q 68 1156 71 1160 q 55 1140 65 1151 q 42 1124 44 1128 "},"":{"ha":385,"x_min":-7,"x_max":410,"o":"m -7 772 l 22 747 q 113 797 72 797 q 197 773 143 797 q 281 749 250 749 q 331 763 307 749 q 410 846 354 778 l 381 871 q 290 821 331 821 q 206 846 260 821 q 122 871 153 871 q 106 869 114 871 q 93 866 99 868 q 80 860 88 864 q 67 853 72 856 q 55 842 63 850 q 44 831 47 835 q 31 818 40 828 q 19 804 22 808 q 6 788 17 800 q -7 772 -4 776 m 49 0 q 201 4 182 4 q 346 0 204 4 l 346 43 q 263 53 278 43 q 249 104 249 63 l 249 614 l 54 599 l 54 556 q 140 543 122 556 q 157 479 157 531 l 157 106 q 140 52 157 61 q 49 43 122 43 l 49 0 "},"":{"ha":501,"x_min":-1,"x_max":499,"o":"m -1 1049 l 499 1049 l 499 1093 l -1 1093 l -1 1049 m 39 0 q 250 4 88 4 q 463 0 414 4 l 463 43 l 426 43 q 331 56 349 43 q 313 108 313 68 l 313 840 q 331 893 313 881 q 426 906 349 906 l 463 906 l 463 949 q 251 944 414 944 q 39 949 88 944 l 39 906 l 75 906 q 171 893 153 906 q 189 840 189 881 l 189 108 q 171 56 189 68 q 75 43 153 43 l 39 43 l 39 0 "},"":{"ha":385,"x_min":-50,"x_max":450,"o":"m 46 0 q 199 4 179 4 q 343 0 201 4 l 343 43 q 260 53 275 43 q 246 104 246 63 l 246 614 l 51 599 l 51 556 q 137 543 119 556 q 154 479 154 531 l 154 106 q 137 52 154 61 q 46 43 119 43 l 46 0 "},"":{"ha":501,"x_min":39,"x_max":463,"o":"m 42 1238 q 106 1099 43 1151 q 250 1046 168 1046 q 394 1099 332 1046 q 458 1238 457 1151 l 426 1238 q 365 1131 421 1164 q 250 1099 308 1099 q 135 1131 192 1099 q 74 1238 79 1164 l 42 1238 m 39 0 q 250 4 88 4 q 463 0 414 4 l 463 43 l 426 43 q 331 56 349 43 q 313 108 313 68 l 313 840 q 331 893 313 881 q 426 906 349 906 l 463 906 l 463 949 q 251 944 414 944 q 39 949 88 944 l 39 906 l 75 906 q 171 893 153 906 q 189 840 189 881 l 189 108 q 171 56 189 68 q 75 43 153 43 l 39 43 l 39 0 "},"":{"ha":385,"x_min":-8,"x_max":408,"o":"m 46 0 q 199 4 179 4 q 343 0 201 4 l 343 43 q 260 53 275 43 q 246 104 246 63 l 246 614 l 51 599 l 51 556 q 137 543 119 556 q 154 479 154 531 l 154 106 q 137 52 154 61 q 46 43 119 43 l 46 0 "},"":{"ha":501,"x_min":39,"x_max":463,"o":"m 39 0 q 236 4 85 4 q 138 -164 138 -78 q 183 -263 138 -225 q 288 -301 229 -301 q 392 -256 351 -301 q 433 -176 433 -211 q 421 -161 433 -161 q 403 -181 414 -161 q 369 -219 392 -200 q 314 -237 347 -237 q 236 -207 272 -237 q 200 -131 200 -176 q 238 -43 200 -85 q 296 4 276 -1 q 463 0 404 4 l 463 43 l 426 43 q 331 56 349 43 q 313 108 313 68 l 313 840 q 331 893 313 881 q 426 906 349 906 l 463 906 l 463 949 q 251 944 414 944 q 39 949 88 944 l 39 906 l 75 906 q 171 893 153 906 q 189 840 189 881 l 189 108 q 171 56 189 68 q 75 43 153 43 l 39 43 l 39 0 "},"":{"ha":385,"x_min":46,"x_max":378,"o":"m 46 0 l 179 4 q 82 -164 82 -78 q 128 -263 82 -225 q 232 -301 174 -301 q 337 -256 296 -301 q 378 -176 378 -211 q 365 -161 378 -161 q 347 -181 358 -161 q 314 -219 336 -200 q 258 -237 292 -237 q 181 -207 217 -237 q 144 -131 144 -176 q 193 -33 144 -79 q 263 3 211 -14 q 303 1 276 3 q 343 0 331 0 l 343 43 q 260 53 275 43 q 246 104 246 63 l 246 614 l 51 599 l 51 556 q 137 543 119 556 q 154 479 154 531 l 154 106 q 137 52 154 61 q 46 43 119 43 l 46 0 m 104 856 q 125 804 104 826 q 178 782 146 782 q 230 803 208 782 q 251 856 251 824 q 230 908 251 888 q 178 929 208 929 q 126 906 147 929 q 104 856 104 883 "},"":{"ha":501,"x_min":39,"x_max":463,"o":"m 176 1138 q 197 1087 176 1108 q 250 1065 218 1065 q 300 1086 278 1065 q 322 1138 322 1107 q 301 1190 322 1169 q 250 1211 279 1211 q 199 1190 221 1211 q 176 1138 176 1169 m 39 0 q 250 4 88 4 q 463 0 414 4 l 463 43 l 426 43 q 331 56 349 43 q 313 108 313 68 l 313 840 q 331 893 313 881 q 426 906 349 906 l 463 906 l 463 949 q 251 944 414 944 q 39 949 88 944 l 39 906 l 75 906 q 171 893 153 906 q 189 840 189 881 l 189 108 q 171 56 189 68 q 75 43 153 43 l 39 43 l 39 0 "},"":{"ha":385,"x_min":46,"x_max":343,"o":"m 46 0 q 199 4 179 4 q 343 0 201 4 l 343 43 q 260 53 275 43 q 246 104 246 63 l 246 614 l 51 599 l 51 556 q 137 543 119 556 q 154 479 154 531 l 154 106 q 137 52 154 61 q 46 43 119 43 l 46 0 "},"":{"ha":1196,"x_min":39,"x_max":1128,"o":"m 39 0 q 257 4 147 4 q 463 0 360 4 l 463 43 l 442 43 q 337 53 360 43 q 313 103 314 64 l 313 847 q 337 895 314 885 q 442 906 360 906 l 463 906 l 463 949 q 243 944 353 944 q 39 949 142 944 l 39 906 l 60 906 q 164 896 140 906 q 189 847 188 886 l 189 104 q 164 54 188 65 q 60 43 140 43 l 39 43 l 39 0 m 539 154 q 599 28 539 86 q 761 -31 658 -31 q 944 37 868 -31 q 1021 208 1021 104 l 1021 844 q 1038 895 1021 885 q 1121 906 1056 906 l 1128 906 l 1128 949 q 950 944 1022 944 q 715 949 832 944 l 715 906 l 742 906 q 872 895 843 906 q 900 842 900 885 l 900 225 q 897 157 900 179 q 851 49 888 96 q 756 1 814 1 q 604 82 663 1 q 609 81 606 82 q 614 81 613 81 q 672 103 650 81 q 693 158 693 126 q 671 213 693 192 q 617 235 649 235 q 563 215 588 235 q 539 154 539 194 "},"":{"ha":810,"x_min":64,"x_max":688,"o":"m 64 0 q 217 4 197 4 q 361 0 219 4 l 361 43 q 278 53 293 43 q 264 104 264 63 l 264 614 l 69 599 l 69 556 q 155 543 138 556 q 172 479 172 531 l 172 106 q 155 52 172 61 q 64 43 138 43 l 64 0 m 122 854 q 143 803 122 825 q 196 782 164 782 q 246 803 224 782 q 268 854 268 824 q 246 907 268 886 q 196 928 224 928 q 144 907 167 928 q 122 854 122 886 m 349 -175 q 393 -254 349 -224 q 499 -285 438 -285 q 628 -231 569 -285 q 688 -58 688 -176 l 688 613 l 475 597 l 475 556 l 486 556 q 575 541 556 556 q 594 476 594 526 l 594 -58 q 497 -253 594 -253 q 426 -236 465 -253 q 476 -174 476 -218 q 457 -128 476 -146 q 413 -110 438 -110 q 368 -128 388 -110 q 349 -175 349 -146 m 540 854 q 561 803 540 825 q 614 782 582 782 q 664 803 642 782 q 686 854 686 824 q 665 907 686 886 q 614 928 643 928 q 563 907 585 928 q 540 854 540 886 "},"":{"ha":713,"x_min":57,"x_max":665,"o":"m 293 1057 l 318 1033 l 479 1179 l 640 1033 l 665 1057 l 479 1253 l 293 1057 m 57 156 q 122 24 57 78 q 279 -31 186 -31 q 453 29 382 -31 q 538 171 525 89 q 539 232 539 182 l 539 849 q 557 897 539 889 q 646 906 575 906 l 646 949 q 467 944 554 944 q 233 949 286 944 l 233 906 l 283 906 q 379 898 350 906 q 414 879 408 890 q 419 839 419 868 l 419 206 q 377 57 419 114 q 276 0 335 0 q 124 81 174 0 q 213 158 213 81 q 189 215 213 194 q 135 236 165 236 q 81 217 106 236 q 57 156 57 197 "},"":{"ha":424,"x_min":-56,"x_max":432,"o":"m -56 -174 q -9 -255 -56 -225 q 101 -285 38 -285 q 236 -224 181 -285 q 292 -69 292 -162 l 292 614 l 81 599 l 81 556 q 180 542 160 556 q 200 478 200 529 l 200 -72 q 197 -128 200 -101 q 183 -185 193 -154 q 152 -235 174 -217 q 99 -254 131 -254 q 24 -236 60 -254 q 58 -215 43 -231 q 72 -174 72 -199 q 55 -128 72 -146 q 8 -110 38 -110 q -38 -128 -21 -110 q -56 -174 -56 -146 "},"":{"ha":1079,"x_min":46,"x_max":1022,"o":"m 46 0 q 250 4 94 4 q 456 0 407 4 l 456 43 l 422 43 q 330 56 347 43 q 313 108 313 68 l 313 351 l 474 504 l 725 132 q 746 85 746 100 q 664 43 746 43 l 664 0 q 863 4 713 4 q 1022 0 935 4 l 1022 43 q 934 55 963 43 q 876 110 906 67 l 556 582 l 806 822 q 1003 906 888 904 l 1003 949 q 885 944 967 944 q 708 949 756 944 l 708 906 q 749 896 733 906 q 769 877 765 886 q 772 860 772 868 q 747 814 772 836 l 313 399 l 313 840 q 330 893 313 881 q 422 906 347 906 l 456 906 l 456 949 q 251 944 407 944 q 46 949 94 944 l 46 906 l 79 906 q 172 893 154 906 q 189 840 189 881 l 189 108 q 172 56 189 68 q 79 43 154 43 l 46 43 l 46 0 m 519 -189 q 556 -204 535 -204 q 594 -186 576 -204 l 594 -203 q 576 -294 594 -253 q 538 -356 557 -335 q 519 -381 519 -378 q 528 -390 519 -390 q 584 -328 551 -390 q 617 -201 617 -265 q 599 -126 617 -151 q 554 -101 581 -101 q 518 -117 532 -101 q 504 -153 504 -132 q 512 -181 504 -174 q 519 -189 519 -189 "},"":{"ha":732,"x_min":39,"x_max":710,"o":"m 39 0 q 190 4 176 4 q 343 0 260 4 l 343 43 q 252 52 269 43 q 235 106 235 61 l 235 249 l 324 325 q 350 288 333 313 q 376 253 368 264 q 489 75 489 97 q 439 43 489 43 l 439 0 q 589 4 556 4 q 710 0 650 4 l 710 43 q 638 55 664 43 q 575 117 611 67 q 390 381 390 378 q 437 425 390 385 q 503 481 483 465 q 678 556 590 551 l 678 599 q 581 594 638 594 q 425 599 483 594 l 425 556 q 465 521 465 553 q 450 483 465 500 q 239 297 439 469 l 239 964 l 39 949 l 39 906 q 129 892 111 906 q 147 828 147 879 l 147 106 q 130 52 147 61 q 39 43 113 43 l 39 0 m 354 -189 q 390 -204 369 -204 q 429 -186 411 -204 l 429 -203 q 410 -294 429 -253 q 373 -356 392 -335 q 354 -381 354 -378 q 363 -390 354 -390 q 419 -328 386 -390 q 451 -201 451 -265 q 433 -126 451 -151 q 389 -101 415 -101 q 353 -117 367 -101 q 339 -153 339 -132 q 347 -181 339 -174 q 354 -189 354 -189 "},"":{"ha":738,"x_min":35,"x_max":711,"o":"m 35 0 q 190 4 172 4 q 344 0 207 4 l 344 32 q 256 43 276 32 q 236 96 236 54 l 236 285 l 332 283 q 413 170 379 219 q 462 100 447 121 q 489 64 476 79 q 509 39 497 54 q 524 19 521 24 q 535 9 528 15 q 548 1 542 3 q 564 0 554 0 q 586 2 567 0 q 608 4 606 4 q 711 0 658 4 l 711 32 l 663 32 q 628 35 640 32 q 606 47 617 39 q 578 80 594 56 q 541 133 561 104 q 478 223 521 163 q 385 349 436 283 l 394 368 q 424 422 404 388 q 464 489 443 457 q 492 531 485 521 q 515 554 500 542 q 547 567 531 567 q 581 561 575 567 q 569 556 578 561 q 549 537 560 551 q 539 504 539 522 q 558 460 539 478 q 600 443 576 443 q 641 459 622 443 q 660 506 660 475 q 628 572 660 546 q 546 597 597 597 q 449 547 492 597 q 401 470 436 532 q 331 364 365 408 q 267 319 296 319 l 236 319 l 236 503 q 256 556 236 544 q 344 567 276 567 l 344 597 q 189 594 253 594 q 35 597 126 594 l 35 567 q 123 556 103 567 q 143 503 143 544 l 143 96 q 123 43 143 54 q 35 32 103 32 l 35 0 "},"":{"ha":868,"x_min":46,"x_max":808,"o":"m 122 1063 l 136 1031 q 344 1094 156 1036 q 403 1146 403 1106 q 389 1181 403 1164 q 356 1197 375 1197 q 344 1196 349 1197 q 122 1063 331 1192 m 46 0 l 769 0 l 808 358 l 774 358 q 763 269 768 301 q 739 188 757 238 q 694 111 721 138 q 616 64 667 85 q 494 43 565 43 l 381 43 q 323 53 333 43 q 313 99 313 63 l 313 839 q 317 878 313 867 q 351 897 322 889 q 444 906 381 906 l 490 906 l 490 949 q 257 944 440 944 q 46 949 94 944 l 46 906 l 79 906 q 172 893 154 906 q 189 840 189 881 l 189 108 q 172 56 189 68 q 79 43 154 43 l 46 43 l 46 0 "},"":{"ha":385,"x_min":46,"x_max":414,"o":"m 46 0 q 200 4 183 4 q 241 3 215 4 q 302 1 267 3 q 354 0 338 0 l 354 43 q 263 52 281 43 q 246 106 246 61 l 246 964 l 46 949 l 46 906 q 136 892 118 906 q 154 828 154 879 l 154 106 q 137 52 154 61 q 46 43 119 43 l 46 0 m 133 1063 l 149 1029 l 354 1093 q 383 1103 375 1100 q 403 1117 392 1106 q 414 1146 414 1129 q 401 1181 414 1164 q 367 1197 388 1197 q 356 1196 360 1197 q 133 1063 342 1192 "},"":{"ha":868,"x_min":46,"x_max":808,"o":"m 46 0 l 769 0 l 808 358 l 774 358 q 763 269 768 301 q 739 188 757 238 q 694 111 721 138 q 616 64 667 85 q 494 43 565 43 l 381 43 q 323 53 333 43 q 313 99 313 63 l 313 839 q 317 878 313 867 q 351 897 322 889 q 444 906 381 906 l 490 906 l 490 949 q 257 944 440 944 q 46 949 94 944 l 46 906 l 79 906 q 172 893 154 906 q 189 840 189 881 l 189 108 q 172 56 189 68 q 79 43 154 43 l 46 43 l 46 0 m 442 -189 q 478 -204 457 -204 q 517 -186 499 -204 l 517 -203 q 498 -294 517 -253 q 460 -356 479 -335 q 442 -381 442 -378 q 450 -390 442 -390 q 506 -328 474 -390 q 539 -201 539 -265 q 521 -126 539 -151 q 476 -101 503 -101 q 440 -117 454 -101 q 426 -153 426 -132 q 434 -181 426 -174 q 442 -189 442 -189 "},"":{"ha":385,"x_min":46,"x_max":354,"o":"m 46 0 q 200 4 183 4 q 241 3 215 4 q 302 1 267 3 q 354 0 338 0 l 354 43 q 263 52 281 43 q 246 106 246 61 l 246 964 l 46 949 l 46 906 q 136 892 118 906 q 154 828 154 879 l 154 106 q 137 52 154 61 q 46 43 119 43 l 46 0 m 169 -189 q 206 -204 185 -204 q 244 -186 226 -204 l 244 -203 q 226 -294 244 -253 q 188 -356 207 -335 q 169 -381 169 -378 q 178 -390 169 -390 q 234 -328 201 -390 q 267 -201 267 -265 q 249 -126 267 -151 q 204 -101 231 -101 q 168 -117 182 -101 q 154 -153 154 -132 q 162 -181 154 -174 q 169 -189 169 -189 "},"":{"ha":868,"x_min":46,"x_max":808,"o":"m 46 0 l 769 0 l 808 358 l 774 358 q 763 269 768 301 q 739 188 757 238 q 694 111 721 138 q 616 64 667 85 q 494 43 565 43 l 381 43 q 323 53 333 43 q 313 99 313 63 l 313 839 q 317 878 313 867 q 351 897 322 889 q 444 906 381 906 l 490 906 l 490 949 q 257 944 440 944 q 46 949 94 944 l 46 906 l 79 906 q 172 893 154 906 q 189 840 189 881 l 189 108 q 172 56 189 68 q 79 43 154 43 l 46 43 l 46 0 m 571 1007 q 592 955 571 976 q 644 933 613 933 q 706 964 679 933 q 688 881 706 919 q 650 824 671 843 q 612 790 629 806 q 594 769 594 775 q 610 757 594 757 q 653 781 624 757 q 710 855 682 804 q 738 963 738 906 q 711 1046 738 1011 q 644 1081 685 1081 q 590 1058 610 1081 q 571 1007 571 1036 "},"":{"ha":560,"x_min":46,"x_max":474,"o":"m 46 0 q 200 4 183 4 q 241 3 215 4 q 302 1 267 3 q 354 0 338 0 l 354 43 q 263 52 281 43 q 246 106 246 61 l 246 964 l 46 949 l 46 906 q 136 892 118 906 q 154 828 154 879 l 154 106 q 137 52 154 61 q 46 43 119 43 l 46 0 m 308 949 q 328 897 308 918 q 381 876 349 876 q 442 906 417 876 q 424 823 442 861 q 386 766 407 785 q 348 732 365 747 q 331 711 331 717 q 346 699 331 699 q 389 722 360 699 q 446 797 418 746 q 474 904 474 847 q 445 991 474 960 q 382 1022 417 1022 q 328 1000 347 1022 q 308 949 308 978 "},"":{"ha":868,"x_min":46,"x_max":808,"o":"m 46 0 l 769 0 l 808 358 l 774 358 q 763 269 768 301 q 739 188 757 238 q 694 111 721 138 q 616 64 667 85 q 494 43 565 43 l 381 43 q 323 53 333 43 q 313 99 313 63 l 313 839 q 317 878 313 867 q 351 897 322 889 q 444 906 381 906 l 490 906 l 490 949 q 257 944 440 944 q 46 949 94 944 l 46 906 l 79 906 q 172 893 154 906 q 189 840 189 881 l 189 108 q 172 56 189 68 q 79 43 154 43 l 46 43 l 46 0 m 533 456 q 586 433 554 433 q 636 454 614 433 q 658 507 658 475 q 638 559 658 539 q 586 579 617 579 q 533 558 554 579 q 513 507 513 536 q 523 467 513 478 q 533 456 533 456 "},"":{"ha":538,"x_min":46,"x_max":500,"o":"m 46 0 q 200 4 183 4 q 241 3 215 4 q 302 1 267 3 q 354 0 338 0 l 354 43 q 263 52 281 43 q 246 106 246 61 l 246 964 l 46 949 l 46 906 q 136 892 118 906 q 154 828 154 879 l 154 106 q 137 52 154 61 q 46 43 119 43 l 46 0 m 375 285 q 428 263 396 263 q 478 283 456 263 q 500 336 500 304 q 479 388 500 368 q 428 408 458 408 q 375 387 396 408 q 354 336 354 365 q 365 296 354 307 q 375 285 375 285 "},"":{"ha":868,"x_min":46,"x_max":810,"o":"m 46 0 l 771 0 l 810 358 l 774 358 q 765 290 768 314 q 753 227 763 267 q 731 167 743 188 q 698 118 719 146 q 647 76 676 90 q 576 53 618 63 q 479 43 533 43 l 385 43 q 344 45 357 43 q 322 58 331 47 q 313 93 313 69 l 313 485 q 316 516 313 508 q 339 539 319 524 l 544 708 l 517 742 l 313 574 l 313 838 q 339 894 313 883 q 475 906 365 906 l 490 906 l 490 949 q 251 944 372 944 q 46 949 138 944 l 46 906 l 61 906 q 166 894 143 906 q 189 843 189 883 l 189 490 q 188 483 189 486 q 187 477 188 481 q 183 470 186 474 q 178 463 181 467 q 169 454 175 460 q 158 444 164 449 q 141 430 151 439 q 120 413 131 421 q 93 391 110 404 q 60 364 76 378 l 88 331 l 189 414 l 189 106 q 166 53 189 64 q 60 43 143 43 l 46 43 l 46 0 "},"":{"ha":467,"x_min":82,"x_max":411,"o":"m 82 392 l 110 358 l 192 426 l 192 97 q 172 52 190 61 q 93 43 153 43 l 83 43 l 83 0 q 235 4 158 4 q 393 0 314 4 l 393 43 l 382 43 q 303 53 321 43 q 285 101 286 64 l 285 483 q 292 507 285 497 q 411 608 299 517 l 383 642 l 285 561 l 285 964 l 83 949 l 83 906 q 172 892 153 906 q 192 819 192 879 l 192 506 q 183 476 192 486 q 126 428 174 465 q 82 392 100 406 "},"":{"ha":1042,"x_min":46,"x_max":994,"o":"m 397 1063 l 411 1031 q 619 1094 431 1036 q 678 1146 678 1106 q 664 1181 678 1164 q 631 1197 650 1197 q 619 1196 624 1197 q 397 1063 606 1192 m 46 0 q 208 4 192 4 q 371 0 225 4 l 371 43 q 289 53 321 43 q 245 81 257 63 q 231 113 233 100 q 228 146 228 125 l 228 868 q 242 851 236 860 l 808 18 q 832 0 822 0 q 849 7 846 0 q 851 36 851 14 l 851 803 q 854 836 851 824 q 869 867 857 849 q 913 896 881 886 q 994 906 944 906 l 994 949 q 832 944 849 944 q 669 949 815 944 l 669 906 q 751 896 719 906 q 795 867 783 886 q 810 836 807 849 q 813 803 813 824 l 813 210 l 322 931 q 307 946 313 943 q 282 949 301 949 l 46 949 l 46 906 l 86 906 q 156 903 114 906 q 184 895 179 900 q 189 871 189 890 l 189 146 q 186 113 189 125 q 172 81 183 100 q 128 53 160 63 q 46 43 96 43 l 46 0 "},"":{"ha":771,"x_min":44,"x_max":743,"o":"m 304 708 l 325 681 q 513 786 331 683 q 522 792 514 788 q 533 798 529 796 q 542 805 536 800 q 552 815 549 810 q 558 826 556 819 q 561 840 561 832 q 547 875 561 858 q 513 892 533 892 q 480 878 497 892 q 396 797 463 864 q 304 708 342 744 m 44 0 q 201 4 190 4 q 357 0 215 4 l 357 43 q 266 52 283 43 q 249 106 249 61 l 249 361 q 306 523 249 463 q 436 583 364 583 q 517 542 496 583 q 539 429 539 500 l 539 106 q 522 52 539 61 q 431 43 504 43 l 431 0 q 588 4 576 4 q 743 0 601 4 l 743 43 q 658 49 681 43 q 635 85 636 56 l 635 350 q 628 489 635 450 q 592 563 622 528 q 446 614 550 614 q 240 468 306 614 l 240 614 l 44 599 l 44 556 q 135 542 117 556 q 153 478 153 529 l 153 106 q 135 52 153 61 q 44 43 118 43 l 44 0 "},"":{"ha":1042,"x_min":46,"x_max":994,"o":"m 46 0 q 208 4 192 4 q 371 0 225 4 l 371 43 q 289 53 321 43 q 245 81 257 63 q 231 113 233 100 q 228 146 228 125 l 228 868 q 242 851 236 860 l 808 18 q 832 0 822 0 q 849 7 846 0 q 851 36 851 14 l 851 803 q 854 836 851 824 q 869 867 857 849 q 913 896 881 886 q 994 906 944 906 l 994 949 q 832 944 849 944 q 669 949 815 944 l 669 906 q 751 896 719 906 q 795 867 783 886 q 810 836 807 849 q 813 803 813 824 l 813 210 l 322 931 q 307 946 313 943 q 282 949 301 949 l 46 949 l 46 906 l 86 906 q 174 900 160 906 q 189 871 189 894 l 189 146 q 186 113 189 125 q 172 81 183 100 q 128 53 160 63 q 46 43 96 43 l 46 0 m 506 -189 q 542 -204 521 -204 q 581 -186 563 -204 l 581 -203 q 562 -294 581 -253 q 524 -356 543 -335 q 506 -381 506 -378 q 514 -390 506 -390 q 570 -328 538 -390 q 603 -201 603 -265 q 585 -126 603 -151 q 540 -101 567 -101 q 504 -117 518 -101 q 490 -153 490 -132 q 498 -181 490 -174 q 506 -189 506 -189 "},"":{"ha":771,"x_min":44,"x_max":743,"o":"m 44 0 q 201 4 190 4 q 357 0 215 4 l 357 43 q 266 52 283 43 q 249 106 249 61 l 249 361 q 306 523 249 463 q 436 583 364 583 q 517 542 496 583 q 539 429 539 500 l 539 106 q 522 52 539 61 q 431 43 504 43 l 431 0 q 588 4 576 4 q 743 0 601 4 l 743 43 q 658 49 681 43 q 635 85 636 56 l 635 383 q 633 452 635 425 q 620 513 631 479 q 590 567 610 547 q 535 600 571 586 q 446 614 499 614 q 240 468 306 614 l 240 614 l 44 599 l 44 556 q 135 542 117 556 q 153 478 153 529 l 153 106 q 135 52 153 61 q 44 43 118 43 l 44 0 m 367 -189 q 403 -204 382 -204 q 442 -186 424 -204 l 442 -203 q 423 -294 442 -253 q 385 -356 404 -335 q 367 -381 367 -378 q 375 -390 367 -390 q 431 -328 399 -390 q 464 -201 464 -265 q 446 -126 464 -151 q 401 -101 428 -101 q 365 -117 379 -101 q 351 -153 351 -132 q 359 -181 351 -174 q 367 -189 367 -189 "},"":{"ha":1042,"x_min":46,"x_max":994,"o":"m 46 0 q 208 4 192 4 q 371 0 225 4 l 371 43 q 289 53 321 43 q 245 81 257 63 q 231 113 233 100 q 228 146 228 125 l 228 868 q 242 851 236 860 l 808 18 q 832 0 822 0 q 849 7 846 0 q 851 36 851 14 l 851 803 q 854 836 851 824 q 869 867 857 849 q 913 896 881 886 q 994 906 944 906 l 994 949 q 832 944 849 944 q 669 949 815 944 l 669 906 q 751 896 719 906 q 795 867 783 886 q 810 836 807 849 q 813 803 813 824 l 813 210 l 322 931 q 307 946 313 943 q 282 949 301 949 l 46 949 l 46 906 l 86 906 q 156 903 114 906 q 184 895 179 900 q 189 871 189 890 l 189 146 q 186 113 189 125 q 172 81 183 100 q 128 53 160 63 q 46 43 96 43 l 46 0 m 308 1276 q 389 1207 340 1250 q 521 1103 511 1103 q 553 1124 528 1103 q 733 1276 579 1144 l 717 1299 q 644 1258 692 1286 q 563 1209 597 1229 q 524 1189 529 1189 q 515 1190 519 1189 q 501 1196 510 1192 q 485 1205 493 1200 q 459 1219 476 1210 q 426 1239 442 1229 q 381 1265 410 1249 q 325 1299 353 1282 l 324 1299 l 308 1276 "},"":{"ha":771,"x_min":44,"x_max":743,"o":"m 125 876 l 338 672 l 339 672 l 550 876 l 533 897 q 368 787 390 801 q 338 772 346 772 q 143 897 329 772 l 125 876 m 44 0 q 201 4 190 4 q 357 0 215 4 l 357 43 q 266 52 283 43 q 249 106 249 61 l 249 361 q 306 523 249 463 q 436 583 364 583 q 517 542 496 583 q 539 429 539 500 l 539 106 q 522 52 539 61 q 431 43 504 43 l 431 0 q 588 4 576 4 q 743 0 601 4 l 743 43 q 658 49 681 43 q 635 85 636 56 l 635 350 q 628 489 635 450 q 592 563 622 528 q 446 614 550 614 q 240 468 306 614 l 240 614 l 44 599 l 44 556 q 135 542 117 556 q 153 478 153 529 l 153 106 q 135 52 153 61 q 44 43 118 43 l 44 0 "},"":{"ha":835,"x_min":21,"x_max":807,"o":"m 21 949 q 42 897 21 917 q 93 876 63 876 q 154 906 125 876 q 103 771 154 831 q 72 742 88 754 q 50 724 57 729 q 43 713 43 719 q 58 699 43 699 q 88 714 68 699 q 131 754 108 729 q 169 820 153 779 q 186 904 186 861 q 160 989 186 956 q 94 1022 133 1022 q 40 1000 60 1022 q 21 949 21 978 m 108 0 q 265 4 254 4 q 421 0 279 4 l 421 43 q 330 52 347 43 q 313 106 313 61 l 313 361 q 370 523 313 463 q 500 583 428 583 q 581 542 560 583 q 603 429 603 500 l 603 106 q 585 52 603 61 q 494 43 568 43 l 494 0 q 651 4 640 4 q 807 0 665 4 l 807 43 q 722 49 744 43 q 699 85 700 56 l 699 383 q 697 452 699 425 q 684 513 694 479 q 654 567 674 547 q 599 600 635 586 q 510 614 563 614 q 304 468 369 614 l 304 614 l 108 599 l 108 556 q 199 542 181 556 q 217 478 217 529 l 217 106 q 199 52 217 61 q 108 43 182 43 l 108 0 "},"":{"ha":1099,"x_min":46,"x_max":1021,"o":"m 46 0 q 242 4 221 4 q 456 0 350 4 l 456 43 l 436 43 q 336 54 358 43 q 313 103 314 65 l 313 763 q 315 788 313 779 q 404 886 329 829 q 585 943 479 943 q 755 892 681 943 q 865 768 829 842 q 897 613 897 703 l 897 221 q 882 108 897 156 q 842 40 867 61 q 797 10 818 18 q 754 1 775 1 q 603 82 663 1 l 610 82 q 672 105 651 82 q 693 158 693 128 q 670 213 693 192 q 615 235 647 235 q 560 213 582 235 q 539 154 539 190 q 601 26 539 83 q 761 -31 663 -31 q 846 -17 803 -31 q 929 24 889 -3 q 995 101 969 51 q 1021 215 1021 151 l 1021 617 q 900 888 1021 790 q 625 986 779 986 q 313 851 442 986 l 313 949 l 271 946 l 178 946 l 46 949 l 46 906 l 67 906 q 165 896 142 906 q 189 847 188 886 l 189 101 q 165 54 188 65 q 68 43 143 43 l 46 43 l 46 0 "},"":{"ha":771,"x_min":43,"x_max":635,"o":"m 43 0 q 189 4 124 4 l 194 4 q 356 0 275 4 l 356 43 l 346 43 q 267 53 285 43 q 249 101 249 64 l 249 351 q 269 465 249 417 q 321 536 289 513 q 381 570 353 560 q 435 581 410 581 q 500 556 476 581 q 530 500 524 532 q 536 421 536 468 l 536 81 q 537 47 536 69 q 538 14 538 25 q 521 -188 538 -124 q 450 -253 504 -253 q 385 -236 417 -253 q 435 -174 435 -224 q 415 -128 435 -146 q 371 -110 396 -110 q 327 -128 346 -110 q 308 -175 308 -146 q 353 -255 308 -225 q 453 -285 397 -285 q 513 -272 485 -285 q 570 -228 540 -260 q 617 -128 600 -196 q 635 35 635 -61 q 634 63 635 44 q 633 90 633 81 l 633 414 q 627 485 633 454 q 602 547 621 515 q 544 595 583 578 q 446 613 504 613 q 314 569 364 613 q 242 472 264 526 l 240 529 l 240 613 l 43 597 l 43 556 q 134 541 117 556 q 151 463 151 526 l 151 103 q 134 54 151 65 q 57 43 117 43 l 43 43 l 43 0 "},"":{"ha":1079,"x_min":78,"x_max":1001,"o":"m 78 471 q 215 115 78 260 q 539 -31 351 -31 q 865 115 729 -31 q 1001 471 1001 261 q 865 831 1001 682 q 539 979 729 979 q 214 831 350 979 q 78 471 78 683 m 221 490 q 253 712 221 618 q 338 853 286 806 q 440 923 389 901 q 539 944 490 944 q 619 932 578 944 q 703 887 660 919 q 781 805 747 854 q 837 674 815 756 q 858 490 858 592 q 827 260 858 360 q 747 108 796 161 q 645 31 697 56 q 540 6 593 6 q 433 31 486 6 q 331 110 381 57 q 251 263 282 164 q 221 490 221 361 "},"":{"ha":694,"x_min":39,"x_max":654,"o":"m 131 75 q 346 -15 222 -15 q 563 76 472 -15 q 654 297 654 167 q 564 526 654 431 q 347 622 474 622 q 128 526 218 622 q 39 297 39 429 q 85 120 39 165 q 131 75 131 75 m 154 308 q 188 499 154 438 q 258 568 214 544 q 346 592 301 592 q 503 501 449 592 q 539 308 539 442 q 508 122 539 183 q 442 47 485 75 q 347 19 399 19 q 189 113 243 19 q 154 308 154 174 "},"":{"ha":1079,"x_min":78,"x_max":1001,"o":"m 331 1238 q 394 1099 332 1151 q 539 1046 457 1046 q 683 1099 621 1046 q 747 1238 746 1151 l 715 1238 q 653 1131 710 1164 q 539 1099 597 1099 q 424 1131 481 1099 q 363 1238 368 1164 l 331 1238 m 78 471 q 215 115 78 260 q 539 -31 351 -31 q 865 115 729 -31 q 1001 471 1001 261 q 865 831 1001 682 q 539 979 729 979 q 214 831 350 979 q 78 471 78 683 m 221 490 q 253 712 221 618 q 338 853 286 806 q 440 923 389 901 q 539 944 490 944 q 619 932 578 944 q 703 887 660 919 q 781 805 747 854 q 837 674 815 756 q 858 490 858 592 q 827 260 858 360 q 747 108 796 161 q 645 31 697 56 q 540 6 593 6 q 433 31 486 6 q 331 110 381 57 q 251 263 282 164 q 221 490 221 361 "},"":{"ha":694,"x_min":39,"x_max":654,"o":"m 131 75 q 346 -15 222 -15 q 563 76 472 -15 q 654 297 654 167 q 564 526 654 431 q 347 622 474 622 q 128 526 218 622 q 39 297 39 429 q 85 120 39 165 q 131 75 131 75 m 154 308 q 188 499 154 438 q 258 568 214 544 q 346 592 301 592 q 503 501 449 592 q 539 308 539 442 q 508 122 539 183 q 442 47 485 75 q 347 19 399 19 q 189 113 243 19 q 154 308 154 174 "},"":{"ha":1079,"x_min":78,"x_max":1001,"o":"m 358 1063 l 372 1031 q 581 1094 392 1036 q 639 1146 639 1106 q 625 1181 639 1164 q 592 1197 611 1197 q 581 1196 585 1197 q 358 1063 567 1192 m 590 1063 l 604 1031 q 813 1094 624 1036 q 871 1146 871 1106 q 857 1181 871 1164 q 824 1197 843 1197 q 813 1196 817 1197 q 590 1063 799 1192 m 78 471 q 215 115 78 260 q 539 -31 351 -31 q 865 115 729 -31 q 1001 471 1001 261 q 865 831 1001 682 q 539 979 729 979 q 214 831 350 979 q 78 471 78 683 m 221 490 q 253 712 221 618 q 338 853 286 806 q 440 923 389 901 q 539 944 490 944 q 619 932 578 944 q 703 887 660 919 q 781 805 747 854 q 837 674 815 756 q 858 490 858 592 q 827 260 858 360 q 747 108 796 161 q 645 31 697 56 q 540 6 593 6 q 433 31 486 6 q 331 110 381 57 q 251 263 282 164 q 221 490 221 361 "},"":{"ha":694,"x_min":39,"x_max":669,"o":"m 131 75 q 346 -15 222 -15 q 563 76 472 -15 q 654 297 654 167 q 564 526 654 431 q 347 622 474 622 q 128 526 218 622 q 39 297 39 429 q 85 120 39 165 q 131 75 131 75 m 154 308 q 188 499 154 438 q 258 568 214 544 q 346 592 301 592 q 503 501 449 592 q 539 308 539 442 q 508 122 539 183 q 442 47 485 75 q 347 19 399 19 q 189 113 243 19 q 154 308 154 174 "},"":{"ha":1408,"x_min":96,"x_max":1368,"o":"m 233 113 q 556 -31 371 -31 q 663 -15 596 -31 q 785 0 731 0 l 1310 0 l 1368 358 l 1332 358 q 1313 256 1321 293 q 1290 178 1306 219 q 1256 115 1275 136 q 1206 76 1238 94 q 1132 50 1175 57 q 1028 43 1089 43 l 893 43 q 834 52 849 43 q 819 97 819 61 l 819 472 l 961 472 q 1090 444 1054 472 q 1126 325 1126 417 l 1126 310 l 1163 310 l 1163 676 l 1126 676 q 1122 604 1126 628 q 1073 531 1111 547 q 953 514 1035 514 l 819 514 l 819 854 q 836 897 821 889 q 894 906 851 906 l 1022 906 q 1207 868 1154 906 q 1255 807 1236 846 q 1280 733 1274 768 q 1294 636 1286 699 l 1329 636 l 1290 949 l 785 949 q 663 964 731 949 q 556 979 594 979 q 233 832 369 979 q 96 471 96 685 q 165 185 96 257 q 233 113 233 113 m 236 490 q 332 818 236 688 q 560 949 428 949 q 633 935 604 949 q 677 903 661 922 q 701 840 693 885 q 710 753 708 794 q 713 632 713 711 l 713 311 q 712 228 713 256 q 708 160 711 200 q 700 101 706 119 q 683 60 694 83 q 656 26 672 36 q 616 8 640 15 q 560 1 592 1 q 329 146 422 1 q 236 490 236 290 "},"":{"ha":1081,"x_min":38,"x_max":1040,"o":"m 126 78 q 335 -15 214 -15 q 472 22 408 -15 q 578 128 536 60 l 603 93 q 824 -15 692 -15 q 920 8 876 -15 q 988 62 964 31 q 1024 120 1011 93 q 1038 161 1038 147 q 1024 181 1038 181 q 1015 178 1018 181 q 1008 172 1011 176 q 1003 163 1004 167 q 999 153 1001 160 q 997 146 997 147 q 935 58 979 96 q 831 21 890 21 q 679 104 740 21 q 626 319 626 176 l 1008 319 q 1033 325 1025 319 q 1040 351 1040 331 q 978 544 1040 468 q 807 621 915 621 q 576 482 663 621 l 575 482 q 470 585 533 549 q 335 621 407 621 q 126 529 215 621 q 38 304 38 438 q 82 124 38 171 q 126 78 126 78 m 146 308 q 206 525 146 456 q 335 589 261 589 q 436 553 392 589 q 501 469 481 517 q 529 311 529 408 q 510 167 529 228 q 460 75 492 106 q 398 31 429 44 q 335 17 367 17 q 235 53 278 17 q 174 138 193 90 q 146 308 146 203 m 628 350 q 658 478 635 426 q 711 552 681 531 q 763 581 742 574 q 804 589 785 589 q 843 582 822 589 q 947 350 943 544 l 628 350 "},"":{"ha":1022,"x_min":49,"x_max":1017,"o":"m 396 1063 l 410 1031 q 618 1094 429 1036 q 676 1146 676 1106 q 663 1181 676 1164 q 629 1197 649 1197 q 618 1196 622 1197 q 396 1063 604 1192 m 49 0 q 251 4 99 4 q 454 0 404 4 l 454 43 l 421 43 q 328 56 346 43 q 311 108 311 68 l 311 460 l 471 460 q 600 413 551 460 q 644 342 636 378 q 653 226 653 307 q 655 144 653 169 q 669 85 657 118 q 710 28 682 53 q 885 -31 776 -31 q 951 -12 922 -31 q 992 32 979 6 q 1011 81 1006 58 q 1017 122 1017 104 q 999 146 1017 146 q 982 124 985 146 q 949 28 976 57 q 890 0 922 0 q 861 5 874 0 q 839 24 849 10 q 823 51 829 38 q 810 92 817 64 q 801 140 804 119 q 792 200 797 160 l 774 311 q 604 472 742 425 q 778 560 710 499 q 847 699 847 621 q 742 874 847 800 q 485 949 636 949 l 49 949 l 49 906 l 82 906 q 174 893 157 906 q 192 840 192 881 l 192 108 q 174 56 192 68 q 82 43 157 43 l 49 43 l 49 0 m 311 490 l 311 850 q 313 878 311 869 q 320 894 314 886 q 342 903 326 901 q 424 906 356 906 q 489 904 464 906 q 551 897 514 903 q 611 878 588 892 q 658 842 635 864 q 693 784 682 821 q 704 699 704 747 q 695 624 704 657 q 663 559 686 592 q 589 508 639 526 q 465 490 539 490 l 311 490 "},"":{"ha":543,"x_min":39,"x_max":506,"o":"m 39 0 q 93 1 58 0 q 154 3 128 3 q 197 4 181 4 q 374 0 318 4 l 374 43 l 344 43 q 256 56 272 43 q 239 108 239 68 l 239 322 q 283 507 239 431 q 403 583 326 583 q 418 582 415 583 q 408 576 414 581 q 394 558 401 571 q 386 528 386 544 q 403 484 386 500 q 446 468 421 468 q 487 483 468 468 q 506 529 506 499 q 476 589 506 564 q 403 614 447 614 q 293 567 335 614 q 232 461 251 521 l 232 614 l 39 599 l 39 556 q 129 542 111 556 q 147 478 147 529 l 147 106 q 130 52 147 61 q 39 43 113 43 l 39 0 m 203 708 l 224 681 q 411 786 229 683 q 426 794 422 792 q 441 803 431 796 q 456 820 451 811 q 460 840 460 829 q 446 875 460 858 q 411 892 432 892 q 380 878 396 892 q 296 799 364 865 q 203 708 240 746 "},"":{"ha":1022,"x_min":49,"x_max":1017,"o":"m 49 0 q 251 4 99 4 q 454 0 404 4 l 454 43 l 421 43 q 328 56 346 43 q 311 108 311 68 l 311 460 l 471 460 q 600 413 551 460 q 644 342 636 378 q 653 226 653 307 q 655 143 653 169 q 669 85 657 117 q 710 28 682 53 q 885 -31 775 -31 q 951 -12 922 -31 q 992 32 979 6 q 1011 81 1006 58 q 1017 122 1017 104 q 999 146 1017 146 q 982 124 985 146 q 949 28 976 57 q 890 0 922 0 q 878 1 883 0 q 814 76 835 7 q 774 311 807 104 q 604 472 742 425 q 778 560 710 499 q 847 699 847 621 q 742 874 847 800 q 485 949 636 949 l 49 949 l 49 906 l 82 906 q 174 893 157 906 q 192 840 192 881 l 192 108 q 174 56 192 68 q 82 43 157 43 l 49 43 l 49 0 m 311 490 l 311 850 q 326 899 311 892 q 422 906 340 906 l 424 906 q 489 904 464 906 q 551 897 514 903 q 611 878 588 892 q 658 842 635 864 q 693 784 682 821 q 704 699 704 747 q 695 624 704 657 q 663 559 686 592 q 589 508 639 526 q 465 490 539 490 l 311 490 m 479 -189 q 515 -204 494 -204 q 554 -186 536 -204 l 554 -203 q 535 -294 554 -253 q 498 -356 517 -335 q 479 -381 479 -378 q 488 -390 479 -390 q 544 -328 511 -390 q 576 -201 576 -265 q 558 -126 576 -151 q 514 -101 540 -101 q 478 -117 492 -101 q 464 -153 464 -132 q 472 -181 464 -174 q 479 -189 479 -189 "},"":{"ha":543,"x_min":39,"x_max":506,"o":"m 39 0 q 93 1 58 0 q 154 3 128 3 q 197 4 181 4 q 374 0 318 4 l 374 43 l 344 43 q 256 56 272 43 q 239 108 239 68 l 239 322 q 283 507 239 431 q 403 583 326 583 q 418 582 415 583 q 408 576 414 581 q 394 558 401 571 q 386 528 386 544 q 403 484 386 500 q 446 468 421 468 q 487 483 468 468 q 506 529 506 499 q 476 589 506 564 q 403 614 447 614 q 293 567 335 614 q 232 461 251 521 l 232 614 l 39 599 l 39 556 q 129 542 111 556 q 147 478 147 529 l 147 106 q 130 52 147 61 q 39 43 113 43 l 39 0 m 163 -189 q 199 -204 178 -204 q 238 -186 219 -204 l 238 -203 q 219 -294 238 -253 q 181 -356 200 -335 q 163 -381 163 -378 q 171 -390 163 -390 q 227 -328 194 -390 q 260 -201 260 -265 q 242 -126 260 -151 q 197 -101 224 -101 q 161 -117 175 -101 q 147 -153 147 -132 q 155 -181 147 -174 q 163 -189 163 -189 "},"":{"ha":1022,"x_min":49,"x_max":1017,"o":"m 49 0 q 251 4 99 4 q 454 0 404 4 l 454 43 l 421 43 q 328 56 346 43 q 311 108 311 68 l 311 460 l 471 460 q 600 413 551 460 q 644 342 636 378 q 653 226 653 307 q 655 144 653 169 q 669 85 657 118 q 710 28 682 53 q 885 -31 776 -31 q 951 -12 922 -31 q 992 32 979 6 q 1011 81 1006 58 q 1017 122 1017 104 q 999 146 1017 146 q 982 124 985 146 q 949 28 976 57 q 890 0 922 0 q 861 5 874 0 q 839 24 849 10 q 823 51 829 38 q 810 92 817 64 q 801 140 804 119 q 792 200 797 160 l 774 311 q 604 472 742 425 q 778 560 710 499 q 847 699 847 621 q 742 874 847 800 q 485 949 636 949 l 49 949 l 49 906 l 82 906 q 174 893 157 906 q 192 840 192 881 l 192 108 q 174 56 192 68 q 82 43 157 43 l 49 43 l 49 0 m 229 1276 q 310 1207 261 1250 q 442 1103 432 1103 q 474 1124 449 1103 q 654 1276 500 1144 l 638 1299 q 565 1258 613 1286 q 484 1209 518 1229 q 444 1189 450 1189 q 435 1190 440 1189 q 423 1196 431 1192 q 406 1205 415 1200 q 381 1219 397 1210 q 348 1239 364 1229 q 303 1265 332 1249 q 247 1299 275 1282 l 246 1299 l 229 1276 m 311 490 l 311 850 q 313 878 311 869 q 320 894 314 886 q 342 903 326 901 q 424 906 356 906 q 489 904 464 906 q 551 897 514 903 q 611 878 588 892 q 658 842 635 864 q 693 784 682 821 q 704 699 704 747 q 695 624 704 657 q 663 559 686 592 q 589 508 639 526 q 465 490 539 490 l 311 490 "},"":{"ha":543,"x_min":39,"x_max":508,"o":"m 83 876 l 296 672 l 297 672 l 508 876 l 492 897 q 326 787 349 801 q 296 772 304 772 q 101 897 288 772 l 83 876 m 39 0 q 93 1 58 0 q 154 3 128 3 q 197 4 181 4 q 374 0 318 4 l 374 43 l 344 43 q 256 56 272 43 q 239 108 239 68 l 239 322 q 283 507 239 431 q 403 583 326 583 q 418 582 415 583 q 408 576 414 581 q 394 558 401 571 q 386 528 386 544 q 403 484 386 500 q 446 468 421 468 q 487 483 468 468 q 506 529 506 499 q 476 589 506 564 q 403 614 447 614 q 293 567 335 614 q 232 461 251 521 l 232 614 l 39 599 l 39 556 q 129 542 111 556 q 147 478 147 529 l 147 106 q 130 52 147 61 q 39 43 113 43 l 39 0 "},"":{"ha":771,"x_min":78,"x_max":693,"o":"m 243 1063 l 257 1031 q 465 1094 276 1036 q 524 1146 524 1106 q 510 1181 524 1164 q 476 1197 496 1197 q 465 1196 469 1197 q 243 1063 451 1192 m 78 3 q 80 -24 78 -17 q 93 -31 82 -31 q 114 -12 103 -31 l 118 -6 q 164 67 136 21 q 267 -2 200 26 q 419 -31 333 -31 q 616 55 539 -31 q 693 258 693 140 q 633 440 693 361 q 485 539 574 518 l 307 582 q 205 647 243 597 q 167 758 167 697 q 219 887 167 833 q 350 940 271 940 q 621 650 582 940 q 638 633 624 633 q 650 637 646 633 q 655 646 654 640 q 656 667 656 651 l 656 946 q 653 973 656 967 q 640 979 651 979 q 619 961 631 979 l 571 882 q 521 927 540 911 q 453 961 501 943 q 349 979 406 979 q 156 900 235 979 q 78 710 78 821 q 128 553 78 624 q 260 456 178 483 q 443 410 271 451 q 483 398 469 403 q 520 378 497 393 q 561 339 543 363 q 604 211 604 286 q 553 72 604 132 q 418 13 501 13 q 199 88 279 13 q 113 301 117 164 q 96 315 111 315 q 83 311 88 315 q 78 301 79 307 q 78 281 78 296 l 78 3 "},"":{"ha":547,"x_min":46,"x_max":501,"o":"m 46 15 q 61 -12 46 -12 q 71 -10 65 -12 q 83 0 76 -7 q 95 12 90 7 q 110 29 100 17 q 124 46 119 42 q 279 -15 190 -15 q 449 39 397 -15 q 501 176 501 93 q 453 299 501 250 q 342 364 406 347 q 290 374 326 368 q 227 388 253 381 q 174 406 201 394 q 131 440 146 418 q 115 490 115 461 q 267 593 115 593 q 366 567 328 593 q 414 513 404 542 q 428 453 424 483 q 436 421 433 424 q 450 415 442 415 q 467 450 467 415 l 467 589 q 450 618 467 618 q 400 582 436 618 q 267 621 342 621 q 93 569 140 621 q 46 450 46 518 q 89 347 46 388 q 188 289 132 306 q 265 273 207 283 q 346 253 324 263 q 432 139 432 218 q 278 17 432 17 q 189 37 226 17 q 133 87 151 57 q 103 147 114 117 q 85 201 92 176 q 75 229 79 225 q 56 231 65 236 q 46 189 46 225 l 46 15 m 185 708 l 206 681 q 393 786 211 683 q 402 792 394 788 q 413 798 410 796 q 423 805 417 800 q 433 815 429 810 q 439 826 436 819 q 442 840 442 832 q 428 875 442 858 q 393 892 414 892 q 360 878 378 892 q 276 797 343 864 q 185 708 222 744 "},"":{"ha":771,"x_min":78,"x_max":693,"o":"m 163 1057 l 188 1033 l 349 1179 l 510 1033 l 535 1057 l 349 1253 l 163 1057 m 78 3 q 80 -24 78 -17 q 93 -31 82 -31 q 114 -12 103 -31 l 118 -6 q 164 67 136 21 q 267 -2 200 26 q 419 -31 333 -31 q 616 55 539 -31 q 693 258 693 140 q 633 440 693 361 q 485 539 574 518 l 307 582 q 205 647 243 597 q 167 758 167 697 q 219 887 167 833 q 350 940 271 940 q 621 650 582 940 q 638 633 624 633 q 650 637 646 633 q 655 646 654 640 q 656 667 656 651 l 656 946 q 653 973 656 967 q 640 979 651 979 q 619 961 631 979 l 571 882 q 521 927 540 911 q 453 961 501 943 q 349 979 406 979 q 156 900 235 979 q 78 710 78 821 q 128 553 78 624 q 260 456 178 483 q 443 410 271 451 q 483 398 469 403 q 520 378 497 393 q 561 339 543 363 q 604 211 604 286 q 553 72 604 132 q 418 13 501 13 q 199 88 279 13 q 113 301 117 164 q 96 315 111 315 q 83 311 88 315 q 78 301 79 307 q 78 281 78 296 l 78 3 "},"":{"ha":547,"x_min":46,"x_max":500,"o":"m 46 18 q 48 -8 46 -1 q 61 -15 50 -15 q 96 13 68 -15 q 98 15 97 14 q 101 19 99 17 q 109 29 103 22 q 124 44 115 36 q 276 -15 186 -15 q 444 40 389 -15 q 500 178 500 96 q 442 310 500 251 q 283 376 394 356 q 235 387 251 383 q 191 400 218 390 q 149 420 164 410 q 124 449 135 431 q 113 490 113 467 q 149 565 113 533 q 268 596 186 596 q 431 428 419 596 q 447 415 432 415 q 460 419 456 415 q 465 428 464 422 q 465 449 465 433 l 465 589 q 463 615 465 608 q 450 622 461 622 q 422 606 440 622 q 399 583 414 596 q 268 622 346 622 q 99 572 151 622 q 46 451 46 521 q 106 333 46 382 q 171 297 136 308 q 289 269 206 286 q 433 142 433 243 q 394 50 433 85 q 276 15 354 15 q 149 66 194 15 q 83 213 104 117 q 77 232 81 228 q 64 236 74 236 q 51 232 56 236 q 47 222 47 228 q 46 201 46 217 l 46 18 "},"":{"ha":771,"x_min":76,"x_max":693,"o":"m 76 7 q 88 -28 76 -24 q 90 -28 89 -28 q 93 -29 92 -29 q 163 67 110 -29 q 375 -28 249 -14 l 375 -99 q 463 -124 436 -101 q 489 -175 489 -147 q 435 -235 489 -218 q 275 -251 382 -251 l 258 -251 l 258 -283 l 276 -283 q 513 -260 438 -283 q 588 -175 588 -236 q 472 -75 588 -101 l 472 -26 q 631 74 569 -6 q 693 257 693 153 q 640 428 693 353 q 507 532 588 504 q 392 561 485 539 q 282 590 299 583 q 199 655 232 610 q 167 760 167 700 q 219 886 167 832 q 350 940 271 940 q 534 864 467 940 q 618 660 601 788 q 639 635 621 635 q 656 672 656 635 q 655 678 656 675 q 654 683 654 682 l 654 943 q 639 978 654 978 q 621 965 631 978 q 586 910 611 953 q 569 882 575 892 q 349 979 478 979 q 156 901 236 979 q 76 710 76 822 q 129 550 76 617 q 257 457 182 483 q 374 426 278 450 q 486 396 469 403 q 570 324 538 375 q 603 210 603 274 q 551 72 603 131 q 417 13 499 13 q 189 97 274 13 q 157 136 171 115 q 136 174 143 157 q 124 212 129 190 q 117 244 118 233 q 113 274 115 254 q 111 294 111 293 q 93 314 108 314 q 76 288 78 314 l 76 7 "},"":{"ha":547,"x_min":46,"x_max":501,"o":"m 46 15 q 61 -12 46 -12 q 71 -10 65 -12 q 83 0 76 -7 q 95 12 90 7 q 110 29 100 17 q 124 46 119 42 q 225 -10 171 3 l 225 -99 q 313 -124 286 -101 q 339 -175 339 -147 q 320 -217 339 -200 q 265 -240 301 -233 q 199 -249 229 -247 q 125 -251 168 -251 l 108 -251 l 108 -283 l 128 -283 q 363 -260 289 -283 q 438 -175 438 -236 q 410 -115 438 -139 q 362 -84 382 -90 q 322 -75 342 -78 l 322 -14 l 333 -12 q 359 -8 343 -11 q 394 3 375 -4 q 431 24 413 10 q 466 56 450 38 q 492 106 482 75 q 501 175 501 138 q 457 294 501 246 q 351 361 413 342 q 299 373 335 367 q 234 386 263 379 q 176 405 206 393 q 131 438 147 417 q 114 490 114 460 q 147 562 114 531 q 267 593 179 593 q 366 567 328 593 q 414 513 404 542 q 428 453 424 483 q 436 421 433 424 q 450 415 442 415 q 467 450 467 415 l 467 589 q 450 618 467 618 q 400 582 436 618 q 267 621 342 621 q 93 569 140 621 q 46 450 46 518 q 89 347 46 388 q 188 289 132 306 q 265 273 207 283 q 346 253 324 263 q 432 139 432 218 q 278 17 432 17 q 189 37 226 17 q 133 87 151 57 q 103 147 114 117 q 85 201 92 176 q 75 229 79 225 q 56 231 65 236 q 46 189 46 225 l 46 15 "},"":{"ha":771,"x_min":78,"x_max":693,"o":"m 78 3 q 80 -24 78 -17 q 93 -31 82 -31 q 114 -12 103 -31 l 118 -6 q 164 67 136 21 q 267 -2 200 26 q 419 -31 333 -31 q 616 55 539 -31 q 693 258 693 140 q 633 440 693 361 q 485 539 574 518 l 307 582 q 205 647 243 597 q 167 758 167 697 q 219 887 167 833 q 350 940 271 940 q 621 650 582 940 q 638 633 624 633 q 650 637 646 633 q 655 646 654 640 q 656 667 656 651 l 656 946 q 653 973 656 967 q 640 979 651 979 q 619 961 631 979 l 571 882 q 521 927 540 911 q 453 961 501 943 q 349 979 406 979 q 156 900 235 979 q 78 710 78 821 q 128 553 78 624 q 260 456 178 483 q 443 410 271 451 q 483 398 469 403 q 520 378 497 393 q 561 339 543 363 q 604 211 604 286 q 553 72 604 132 q 418 13 501 13 q 199 88 279 13 q 113 301 117 164 q 96 315 111 315 q 83 311 88 315 q 78 301 79 307 q 78 281 78 296 l 78 3 m 174 1276 q 285 1182 221 1236 q 385 1103 376 1103 q 417 1124 392 1103 q 597 1276 443 1144 l 582 1299 q 510 1258 558 1286 q 427 1209 461 1229 q 388 1189 393 1189 q 378 1190 383 1189 q 366 1196 374 1192 q 349 1205 358 1200 q 324 1219 340 1210 q 291 1239 307 1229 q 247 1265 275 1249 q 190 1299 218 1282 l 189 1299 l 174 1276 "},"":{"ha":547,"x_min":43,"x_max":500,"o":"m 43 876 l 256 672 l 257 672 l 468 876 l 451 897 q 286 787 308 801 q 256 772 264 772 q 61 897 247 772 l 43 876 m 46 15 q 61 -12 46 -12 q 71 -10 65 -12 q 83 0 76 -7 q 95 12 90 7 q 110 29 100 17 q 124 46 119 42 q 279 -15 190 -15 q 396 4 349 -15 q 464 56 443 24 q 492 115 485 88 q 500 175 500 143 q 451 300 500 253 q 342 364 403 347 q 289 375 326 368 q 226 388 251 382 q 173 407 201 394 q 129 440 144 419 q 114 490 114 461 q 267 593 114 593 q 366 567 328 593 q 414 513 404 542 q 428 453 424 483 q 436 421 433 424 q 449 415 442 415 q 467 450 467 415 l 467 589 q 450 618 467 618 q 400 582 436 618 q 267 621 342 621 q 93 569 140 621 q 46 450 46 518 q 65 376 46 408 q 144 306 93 329 q 261 272 196 282 q 344 254 326 261 q 432 139 432 219 q 278 17 432 17 q 173 48 215 17 q 116 116 131 79 q 90 189 101 153 q 75 229 79 225 q 56 231 65 236 q 46 189 46 225 l 46 15 "},"":{"ha":1003,"x_min":49,"x_max":951,"o":"m 49 628 l 83 628 q 94 731 89 696 q 114 805 100 767 q 151 860 128 843 q 214 888 175 876 q 313 899 253 899 l 358 899 q 406 897 393 899 q 428 883 419 894 q 438 846 438 872 l 438 125 q 438 117 438 122 q 439 108 439 111 q 408 54 439 65 q 268 43 376 43 l 236 43 l 236 0 l 451 4 l 451 -99 q 540 -124 514 -101 q 567 -176 567 -147 q 514 -235 567 -219 q 353 -251 461 -251 l 336 -251 l 336 -283 l 354 -283 q 589 -260 514 -283 q 664 -175 664 -236 q 649 -126 664 -147 q 612 -95 635 -106 q 575 -81 589 -85 q 549 -75 561 -76 l 549 4 l 764 0 l 764 43 l 733 43 q 594 54 625 43 q 563 108 563 65 l 563 846 q 566 876 563 865 q 582 892 569 888 q 606 898 594 897 q 643 899 617 899 l 689 899 q 764 892 732 899 q 819 878 796 886 q 858 849 842 869 q 883 813 874 829 q 900 761 893 796 q 910 702 907 726 q 917 628 913 678 l 951 628 l 924 942 l 76 942 l 49 628 "},"":{"ha":540,"x_min":25,"x_max":497,"o":"m 25 556 l 143 556 l 143 189 q 144 143 143 160 q 152 96 144 126 q 174 47 160 65 q 215 10 188 28 q 283 -12 243 -7 l 285 -12 l 285 -99 q 372 -124 346 -101 q 399 -175 399 -147 q 346 -235 399 -218 q 186 -251 293 -251 l 169 -251 l 169 -283 l 224 -283 q 497 -175 497 -283 q 382 -75 497 -99 l 382 -1 q 461 182 461 50 l 461 251 l 426 251 l 426 192 q 425 153 426 167 q 397 58 422 96 q 332 21 372 21 q 279 39 301 21 q 240 169 240 72 l 240 556 l 438 556 l 438 597 l 240 597 l 240 854 l 206 854 q 197 768 206 810 q 169 685 188 726 q 113 616 150 643 q 25 586 76 589 l 25 556 "},"":{"ha":1003,"x_min":50,"x_max":951,"o":"m 50 628 l 85 628 q 95 726 90 690 q 112 797 100 763 q 138 847 124 831 q 181 877 153 864 q 244 894 208 890 q 335 897 281 897 q 410 894 396 897 q 430 885 424 892 q 438 869 436 878 q 439 842 439 861 l 439 110 q 433 71 439 82 q 396 51 428 60 q 293 43 364 43 l 238 43 l 238 0 q 500 4 294 4 q 764 0 707 4 l 764 43 l 708 43 q 606 51 638 43 q 568 71 574 60 q 563 110 563 82 l 563 842 q 567 878 563 867 q 588 894 571 890 q 667 897 603 897 q 757 894 721 897 q 821 877 793 890 q 863 847 849 864 q 890 797 878 831 q 906 726 901 763 q 917 628 911 690 l 951 628 l 925 940 l 76 940 l 50 628 m 289 1276 q 400 1182 336 1236 q 500 1103 492 1103 q 533 1124 507 1103 q 713 1276 558 1144 l 697 1299 q 626 1258 674 1286 q 543 1209 578 1229 q 503 1189 508 1189 q 494 1190 499 1189 q 481 1196 489 1192 q 465 1205 474 1200 q 439 1219 456 1210 q 406 1239 422 1229 q 362 1265 390 1249 q 306 1299 333 1282 l 304 1299 l 289 1276 "},"":{"ha":540,"x_min":25,"x_max":531,"o":"m 25 556 l 143 556 l 143 176 q 322 -15 143 -15 q 419 31 378 -15 q 461 182 461 78 l 461 251 l 426 251 l 426 192 q 425 153 426 167 q 397 58 422 96 q 332 21 372 21 q 279 39 301 21 q 240 169 240 72 l 240 556 l 438 556 l 438 597 l 240 597 l 240 854 l 206 854 q 197 768 206 810 q 169 685 188 726 q 113 616 150 643 q 25 586 76 589 l 25 556 m 365 928 q 385 876 365 897 q 438 854 406 854 q 499 885 472 854 q 481 801 499 839 q 443 745 464 764 q 405 711 422 726 q 388 690 388 696 q 403 676 388 676 q 433 692 413 676 q 475 732 453 707 q 514 798 497 757 q 531 883 531 839 q 505 966 531 932 q 439 1000 479 1000 q 385 978 404 1000 q 365 928 365 957 "},"":{"ha":1003,"x_min":50,"x_max":951,"o":"m 50 628 l 85 628 q 95 726 90 690 q 112 797 100 763 q 138 847 124 831 q 181 877 153 864 q 244 894 208 890 q 335 897 281 897 q 425 890 411 897 q 439 842 439 882 l 439 508 l 296 508 q 251 486 251 508 q 286 464 251 464 l 439 464 l 439 110 q 433 71 439 82 q 396 51 428 60 q 293 43 364 43 l 238 43 l 238 0 q 500 4 294 4 q 764 0 707 4 l 764 43 l 708 43 q 606 51 638 43 q 568 71 574 60 q 563 110 563 82 l 563 464 l 715 464 q 751 486 751 464 q 711 508 751 508 l 563 508 l 563 842 q 576 890 563 882 q 667 897 590 897 q 757 894 721 897 q 821 877 793 890 q 863 847 849 864 q 890 797 878 831 q 906 726 901 763 q 917 628 911 690 l 951 628 l 925 940 l 76 940 l 50 628 "},"":{"ha":539,"x_min":26,"x_max":461,"o":"m 61 372 l 144 372 l 144 172 q 165 72 144 113 q 217 14 185 31 q 274 -9 249 -3 q 324 -15 299 -15 q 426 41 392 -15 q 461 172 461 97 l 461 251 l 426 251 l 426 175 q 400 60 426 101 q 333 19 374 19 q 240 169 240 19 l 240 372 l 403 372 q 439 394 439 372 q 399 417 439 417 l 240 417 l 240 556 l 439 556 l 439 599 l 240 599 l 240 854 l 206 854 q 190 735 204 790 q 133 634 175 679 q 26 586 90 589 l 26 556 l 144 556 l 144 417 l 71 417 q 26 394 26 417 q 61 372 26 372 "},"":{"ha":1042,"x_min":46,"x_max":994,"o":"m 46 906 l 79 906 q 172 893 154 906 q 189 840 189 881 l 189 317 q 292 70 189 171 q 539 -31 396 -31 q 743 53 657 -31 q 847 257 829 136 q 851 353 851 285 l 851 797 q 854 835 851 821 q 869 868 857 849 q 913 897 881 888 q 994 906 944 906 l 994 949 q 831 944 844 944 q 665 949 815 944 l 665 906 q 747 896 715 906 q 791 867 779 886 q 806 836 803 849 q 808 803 808 824 l 808 321 q 728 97 808 181 q 542 13 647 13 q 477 23 510 13 q 404 62 444 33 q 338 154 364 90 q 313 311 313 218 l 313 840 q 330 893 313 881 q 422 906 347 906 l 456 906 l 456 949 q 251 944 407 944 q 46 949 94 944 l 46 906 m 332 1124 l 363 1099 l 369 1106 q 380 1116 378 1114 q 390 1125 382 1118 q 403 1135 399 1132 q 417 1142 408 1138 q 433 1147 425 1146 q 451 1149 442 1149 q 535 1124 482 1149 q 619 1099 589 1099 q 635 1100 628 1099 q 649 1103 643 1101 q 662 1110 654 1106 q 674 1117 669 1114 q 687 1127 679 1119 q 698 1138 694 1135 q 710 1151 701 1142 q 722 1165 719 1161 q 735 1181 725 1169 q 749 1197 746 1193 l 719 1222 q 629 1172 669 1172 q 545 1197 599 1172 q 461 1222 492 1222 q 445 1221 453 1222 q 432 1217 438 1219 q 419 1211 426 1215 q 406 1204 411 1207 q 394 1194 401 1201 q 383 1183 386 1186 q 370 1169 379 1179 q 358 1156 361 1160 q 345 1140 356 1151 q 332 1124 335 1128 "},"":{"ha":771,"x_min":44,"x_max":743,"o":"m 44 556 q 139 539 125 556 q 153 428 153 522 l 153 219 q 154 152 153 175 q 167 92 156 129 q 199 35 178 54 q 261 0 219 15 q 364 -15 303 -15 q 543 110 485 -15 l 543 -15 l 743 0 l 743 43 q 653 56 671 43 q 635 121 635 69 l 635 614 l 431 599 l 431 556 q 521 542 503 556 q 539 478 539 529 l 539 231 q 492 77 539 139 q 371 15 446 15 q 303 26 329 15 q 265 58 276 36 q 251 100 254 81 q 249 153 249 119 l 249 614 l 44 599 l 44 556 m 165 772 l 194 747 q 285 797 244 797 q 369 773 315 797 q 453 749 422 749 q 503 763 479 749 q 582 846 526 778 l 551 871 l 544 864 q 534 853 536 856 q 524 844 532 851 q 510 835 515 838 q 497 828 506 832 q 481 822 489 824 q 463 821 472 821 q 378 846 432 821 q 294 871 325 871 q 278 869 286 871 q 265 866 271 868 q 252 860 260 864 q 240 853 244 856 q 227 842 235 850 q 216 831 219 835 q 203 818 213 828 q 192 804 194 808 q 178 788 189 800 q 165 772 168 776 "}}}
